<svg width="1053" height="184" viewBox="0 0 1053 184" fill="none" xmlns="http://www.w3.org/2000/svg">
<rect x="4" y="4" width="1045" height="176" rx="44" fill="black" stroke="black" stroke-width="8"/>
<mask id="path-2-outside-1_3318_13" maskUnits="userSpaceOnUse" x="251" y="46" width="552" height="97" fill="black">
<rect fill="white" x="251" y="46" width="552" height="97"/>
<path d="M283.632 137.573C277 137.573 271.669 136.901 267.641 135.559C263.653 134.175 260.744 132.202 258.913 129.638C257.082 127.075 256.167 123.962 256.167 120.3C256.167 118.103 256.512 115.885 257.204 113.647C257.937 111.409 259.117 109.537 260.744 108.032C262.412 106.526 264.671 105.773 267.519 105.773C268.414 105.773 269.37 105.875 270.388 106.079C274.253 106.892 277.834 107.849 281.13 108.947C283.205 109.639 285.138 110.229 286.928 110.717C288.759 111.206 290.448 111.45 291.994 111.45C293.581 111.45 294.761 111.104 295.534 110.412C296.348 109.72 296.755 108.907 296.755 107.971C296.755 107.157 296.45 106.323 295.839 105.468C295.27 104.614 294.395 103.861 293.215 103.21C290 101.623 286.074 100.382 281.435 99.4868C276.796 98.5509 273.541 98.083 271.669 98.083C268.007 98.083 265.139 97.0658 263.063 95.0312C261.029 92.9561 259.584 90.2502 258.73 86.9136C257.875 83.5363 257.448 79.8945 257.448 75.9883C257.448 71.3496 258.404 67.4637 260.317 64.3306C262.229 61.1567 264.772 58.6136 267.946 56.7012C271.161 54.748 274.742 53.3442 278.688 52.4897C282.635 51.5946 286.643 51.147 290.712 51.147C296.409 51.147 302.045 51.7573 307.619 52.978C320.64 55.8263 327.15 60.8923 327.15 68.1758C327.15 70.5765 326.52 72.9365 325.258 75.2559C324.038 77.5752 322.41 79.4876 320.375 80.9932C318.382 82.4987 316.245 83.2515 313.967 83.2515H312.258C309.165 83.2515 306.521 82.7632 304.323 81.7866C302.167 80.8101 300.193 79.7521 298.403 78.6128C296.938 77.6769 295.493 76.8631 294.069 76.1714C292.645 75.4797 291.099 75.1338 289.431 75.1338H288.332C286.745 75.1338 285.484 75.5203 284.548 76.2935C283.653 77.0666 283.205 78.0024 283.205 79.1011C283.205 79.9149 283.49 80.7694 284.06 81.6646C284.67 82.5597 285.626 83.3939 286.928 84.167C289.207 85.4691 291.709 86.5474 294.436 87.4019C297.162 88.2563 299.908 89.0295 302.675 89.7212C306.297 90.6164 309.593 91.6133 312.563 92.7119C315.859 94.0954 318.28 96.3537 319.826 99.4868C321.413 102.579 322.207 106.018 322.207 109.802V113.647C322.207 117.96 321.128 121.643 318.972 124.694C316.815 127.746 313.926 130.228 310.305 132.141C306.683 134.012 302.553 135.396 297.915 136.291C293.317 137.146 288.556 137.573 283.632 137.573ZM345.899 136.413C343.336 136.413 340.854 136.047 338.453 135.314C336.093 134.541 334.12 133.361 332.533 131.774C330.946 130.147 330.01 128.072 329.725 125.549C329.44 122.375 329.298 118.672 329.298 114.44C329.298 105.285 329.908 95.2144 331.129 84.228C332.35 73.201 334.059 64.7171 336.256 58.7764C337.273 56.457 338.799 54.9108 340.833 54.1377C342.909 53.3646 345.086 52.978 347.364 52.978C349.033 52.978 350.66 53.0798 352.247 53.2832C362.175 54.4632 370.375 56.6808 376.844 59.936C383.355 63.1506 388.197 66.9551 391.371 71.3496C394.544 75.7441 396.131 80.1997 396.131 84.7163C396.131 88.7853 394.89 92.6509 392.408 96.313C389.967 99.9344 386.345 103.007 381.544 105.529C376.783 108.011 370.883 109.619 363.844 110.351L362.684 110.412C362.033 110.412 361.565 110.493 361.28 110.656C360.995 110.778 360.853 111.185 360.853 111.877L361.158 115.966C361.402 117.797 361.524 119.995 361.524 122.558C361.524 124.267 361.423 126.139 361.219 128.173C360.812 130.778 359.083 132.812 356.031 134.277C353.02 135.701 349.643 136.413 345.899 136.413ZM362.745 89.5381C365.553 89.5381 367.77 88.8464 369.398 87.4629C371.026 86.0387 371.839 84.4518 371.839 82.7021C371.839 81.0339 370.965 79.4876 369.215 78.0635C367.506 76.6393 364.719 75.7441 360.853 75.3779C360.283 77.6159 359.795 80.0776 359.388 82.7632C358.981 85.408 358.778 87.4019 358.778 88.7446V88.9888C360.202 89.355 361.524 89.5381 362.745 89.5381ZM444.849 132.019C440.861 132.019 438.521 130.94 437.83 128.784C436.69 124.715 435.653 119.974 434.717 114.562C434.066 110.86 433.435 107.747 432.825 105.224C432.458 103.963 431.828 103.007 430.933 102.355C430.037 101.704 429.061 101.379 428.003 101.379C426.945 101.379 425.948 101.725 425.012 102.417C424.076 103.068 423.385 104.105 422.937 105.529C422.489 106.953 422.001 108.683 421.472 110.717C419.56 117.797 418.034 122.741 416.895 125.549C416.325 126.77 415.247 127.705 413.66 128.356C412.113 128.967 410.343 129.272 408.35 129.272C406.03 129.272 403.67 128.865 401.27 128.051C398.91 127.197 396.936 125.915 395.349 124.206C393.762 122.497 392.969 120.34 392.969 117.736L393.03 116.394C394.006 108.825 395.837 99.8937 398.523 89.5991C401.208 79.3045 403.711 71.4106 406.03 65.9175C407.495 63.0285 410.506 60.7702 415.063 59.1426C419.661 57.4743 424.544 56.6401 429.712 56.6401C434.31 56.6401 438.521 57.3929 442.346 58.8984C446.212 60.3633 448.796 62.703 450.098 65.9175C453.027 74.0555 455.855 83.7601 458.582 95.0312C461.308 106.262 463.078 115.58 463.892 122.985V123.229C463.892 124.654 462.834 126.037 460.718 127.38C458.643 128.723 456.12 129.842 453.149 130.737C450.179 131.591 447.412 132.019 444.849 132.019ZM427.332 88.5005C431.767 88.2563 433.984 87.2391 433.984 85.4487L433.862 84.8994C432.479 80.5049 430.75 78.3076 428.674 78.3076C427.494 78.3076 426.375 79.04 425.317 80.5049C424.3 81.9697 423.568 83.8415 423.12 86.1201V86.4253C423.12 87.0356 423.446 87.5443 424.097 87.9512C424.788 88.3174 425.867 88.5005 427.332 88.5005ZM502.904 132.263H501.928C495.417 132.263 489.741 131.245 484.899 129.211C480.097 127.176 476.11 124.45 472.936 121.032C469.803 117.574 467.463 113.667 465.917 109.313C464.371 104.919 463.598 100.382 463.598 95.7026C463.598 90.4943 464.513 85.347 466.344 80.2607C468.216 75.1745 470.963 70.5968 474.584 66.5278C478.246 62.4181 482.742 59.1222 488.073 56.6401C493.403 54.158 499.547 52.917 506.505 52.917C510.859 52.917 514.867 53.6087 518.529 54.9922C522.191 56.3757 525.121 58.4508 527.318 61.2178C529.556 63.944 530.675 67.3823 530.675 71.5327L530.553 73.6689C530.228 76.5173 529.394 78.8569 528.051 80.688C526.749 82.4784 525.141 83.8008 523.229 84.6553C521.357 85.5098 519.424 85.937 517.431 85.937C514.094 85.937 511.266 84.818 508.947 82.5801C505.936 78.9993 503.128 77.209 500.524 77.209C497.391 77.4531 494.97 78.979 493.261 81.7866C491.592 84.5942 490.758 87.7477 490.758 91.2471C490.758 94.9906 491.735 98.2458 493.688 101.013C495.641 103.739 498.693 105.204 502.843 105.407C505.936 105.407 508.926 104.125 511.815 101.562C515.111 98.3475 518.265 96.7402 521.276 96.7402C524.45 96.7402 526.993 98.3678 528.905 101.623C530.858 104.878 531.835 108.805 531.835 113.403C531.794 117.39 530.37 120.788 527.562 123.596C524.836 126.281 521.317 128.377 517.003 129.882C512.69 131.388 507.991 132.181 502.904 132.263ZM554.856 130.493H553.758C548.631 130.493 544.704 129.353 541.978 127.075C539.292 124.755 537.828 120.951 537.583 115.661C537.38 111.633 537.075 106.872 536.668 101.379C535.854 91.3285 535.346 82.1325 535.142 73.791C535.142 69.5999 536.098 65.8971 538.011 62.6826C539.964 59.4681 542.833 57.3319 546.617 56.2739C552.313 54.8498 560.879 54.1377 572.312 54.1377L579.759 54.1987L582.2 54.2598C584.601 54.3818 586.31 55.3787 587.327 57.2505C588.344 59.1222 588.853 61.2788 588.853 63.7202C588.853 66.4058 588.385 68.9082 587.449 71.2275C586.513 73.5062 585.374 74.7472 584.031 74.9507C581.102 75.1541 577.989 75.2559 574.693 75.2559C573.391 75.2559 572.19 75.2355 571.092 75.1948L569.322 75.1338C568.142 75.1338 567.267 75.4797 566.697 76.1714C566.128 76.8224 565.843 77.5752 565.843 78.4297C565.843 79.3656 566.148 80.2404 566.758 81.0542C567.409 81.868 568.325 82.2749 569.505 82.2749C571.458 82.2749 573.106 82.2139 574.449 82.0918C575.303 82.0104 576.239 81.9494 577.256 81.9087C578.843 81.9087 580.084 82.8039 580.979 84.5942C581.915 86.3846 582.383 88.297 582.383 90.3315C582.383 92.0812 581.997 93.6478 581.224 95.0312C580.491 96.374 579.291 97.1268 577.623 97.2896C574.408 97.5337 571.234 97.6558 568.101 97.6558C567.084 97.6558 566.229 98.1034 565.538 98.9985C564.887 99.8937 564.561 100.83 564.561 101.806C564.561 102.579 564.805 103.291 565.293 103.942C565.782 104.553 566.575 104.939 567.674 105.102C568.528 105.183 569.362 105.224 570.176 105.224C571.438 105.224 572.679 105.163 573.899 105.041C575.12 104.919 576.382 104.858 577.684 104.858C579.067 104.858 580.186 105.346 581.041 106.323C581.895 107.259 582.505 108.52 582.872 110.107C583.278 111.653 583.482 113.321 583.482 115.112C583.482 118.326 582.994 121.378 582.017 124.267C581.041 127.156 579.84 128.763 578.416 129.089C572.801 129.781 564.948 130.249 554.856 130.493ZM617.307 134.033C612.342 134.033 607.968 133.605 604.184 132.751C600.359 131.652 597.572 129.414 595.822 126.037C594.073 122.619 593.035 119.038 592.709 115.295C591.326 102.762 590.634 91.5319 590.634 81.6035C590.634 73.8724 591.184 68.3589 592.282 65.063C593.828 60.9533 597.165 57.8812 602.292 55.8467C607.419 53.8122 613.421 52.7949 620.297 52.7949C625.465 52.7949 630.734 53.446 636.105 54.748C641.477 56.0501 645.973 58.2677 649.594 61.4009C653.216 64.534 655.189 68.8268 655.515 74.2793C655.515 77.9821 654.213 81.5628 651.608 85.0215C649.045 88.4395 645.586 91.4302 641.232 93.9937C640.256 94.5226 639.768 94.9499 639.768 95.2754C639.768 95.5602 640.297 95.8451 641.354 96.1299C644.691 96.9844 647.377 98.2661 649.411 99.9751C651.446 101.643 652.91 103.556 653.806 105.712C654.742 107.869 655.209 110.087 655.209 112.365C655.209 116.394 654.029 119.791 651.669 122.558C649.35 125.325 646.298 127.563 642.514 129.272C638.771 130.94 634.661 132.161 630.185 132.934C625.75 133.667 621.457 134.033 617.307 134.033ZM617.124 84.8994C620.704 84.818 623.593 84.4925 625.791 83.9229C628.028 83.3125 629.656 82.5597 630.673 81.6646C631.691 80.7694 632.199 79.8335 632.199 78.8569C632.199 77.4735 631.324 76.2324 629.575 75.1338C627.825 73.9945 625.526 73.4248 622.678 73.4248C620.928 73.4248 619.016 73.7096 616.94 74.2793C616.778 76.029 616.696 77.7786 616.696 79.5283C616.696 81.278 616.839 83.0684 617.124 84.8994ZM621.274 116.394C624.163 116.394 626.279 115.844 627.622 114.746C629.005 113.647 629.697 112.467 629.697 111.206C629.697 110.026 629.168 108.968 628.11 108.032C627.052 107.096 625.526 106.628 623.532 106.628C622.352 106.628 621.03 106.852 619.565 107.299C619.402 108.154 619.321 109.354 619.321 110.9C619.321 113.342 619.524 115.153 619.931 116.333L621.274 116.394ZM709.176 132.019C705.188 132.019 702.848 130.94 702.157 128.784C701.017 124.715 699.98 119.974 699.044 114.562C698.393 110.86 697.762 107.747 697.152 105.224C696.786 103.963 696.155 103.007 695.26 102.355C694.365 101.704 693.388 101.379 692.33 101.379C691.272 101.379 690.275 101.725 689.339 102.417C688.403 103.068 687.712 104.105 687.264 105.529C686.817 106.953 686.328 108.683 685.799 110.717C683.887 117.797 682.361 122.741 681.222 125.549C680.652 126.77 679.574 127.705 677.987 128.356C676.441 128.967 674.671 129.272 672.677 129.272C670.357 129.272 667.997 128.865 665.597 128.051C663.237 127.197 661.263 125.915 659.676 124.206C658.089 122.497 657.296 120.34 657.296 117.736L657.357 116.394C658.333 108.825 660.165 99.8937 662.85 89.5991C665.536 79.3045 668.038 71.4106 670.357 65.9175C671.822 63.0285 674.833 60.7702 679.391 59.1426C683.989 57.4743 688.871 56.6401 694.039 56.6401C698.637 56.6401 702.848 57.3929 706.673 58.8984C710.539 60.3633 713.123 62.703 714.425 65.9175C717.354 74.0555 720.182 83.7601 722.909 95.0312C725.635 106.262 727.405 115.58 728.219 122.985V123.229C728.219 124.654 727.161 126.037 725.045 127.38C722.97 128.723 720.447 129.842 717.477 130.737C714.506 131.591 711.739 132.019 709.176 132.019ZM691.659 88.5005C696.094 88.2563 698.312 87.2391 698.312 85.4487L698.189 84.8994C696.806 80.5049 695.077 78.3076 693.001 78.3076C691.821 78.3076 690.702 79.04 689.645 80.5049C688.627 81.9697 687.895 83.8415 687.447 86.1201V86.4253C687.447 87.0356 687.773 87.5443 688.424 87.9512C689.116 88.3174 690.194 88.5005 691.659 88.5005ZM779.561 137.634C778.218 137.634 777.099 137.247 776.204 136.474C772.664 132.934 769.286 128.743 766.072 123.901C764.81 122.111 763.61 120.463 762.471 118.957C761.779 118.103 761.25 117.675 760.884 117.675C760.233 117.675 759.907 118.489 759.907 120.117L759.968 124.45C759.968 127.827 759.439 130.452 758.381 132.324C757.323 133.911 755.37 135.172 752.522 136.108C749.714 137.003 746.866 137.451 743.977 137.451C742.146 137.451 740.478 137.247 738.972 136.84C737.467 136.433 736.327 135.782 735.554 134.887C733.601 132.283 732.197 127.929 731.343 121.826C730.529 115.681 730.122 109.029 730.122 101.867C730.122 94.2988 730.488 87.0763 731.221 80.1997C731.953 73.2824 732.909 68.1147 734.089 64.6968C735.432 61.3602 737.609 58.7967 740.62 57.0063C743.672 55.216 747.09 53.9953 750.874 53.3442C754.699 52.6932 758.3 52.3677 761.677 52.3677C768.961 52.3677 775.064 53.6291 779.988 56.1519C784.911 58.634 788.614 61.9095 791.096 65.9785C793.619 70.0475 794.88 74.381 794.88 78.979C794.88 83.2108 793.802 87.4222 791.646 91.6133C789.408 95.9671 786.01 99.8123 781.453 103.149C780.761 103.597 780.415 103.922 780.415 104.125C780.415 104.288 780.7 104.471 781.27 104.675C787.292 107.482 792.154 111.49 795.857 116.699C796.793 118.042 797.261 119.466 797.261 120.971C797.261 123.535 796.243 126.098 794.209 128.662C792.215 131.184 789.835 133.321 787.068 135.07C784.301 136.779 781.799 137.634 779.561 137.634ZM756.062 87.1577C760.009 86.8322 762.796 86.2625 764.424 85.4487C766.051 84.5942 766.865 83.6584 766.865 82.6411C766.865 81.2983 765.807 80.0369 763.691 78.8569C761.616 77.6362 759.541 77.0259 757.466 77.0259H756.794C756.55 77.9211 756.347 79.2028 756.184 80.8711C756.062 82.4987 756.001 84.0246 756.001 85.4487L756.062 87.1577Z"/>
</mask>
<path d="M283.632 137.573C277 137.573 271.669 136.901 267.641 135.559C263.653 134.175 260.744 132.202 258.913 129.638C257.082 127.075 256.167 123.962 256.167 120.3C256.167 118.103 256.512 115.885 257.204 113.647C257.937 111.409 259.117 109.537 260.744 108.032C262.412 106.526 264.671 105.773 267.519 105.773C268.414 105.773 269.37 105.875 270.388 106.079C274.253 106.892 277.834 107.849 281.13 108.947C283.205 109.639 285.138 110.229 286.928 110.717C288.759 111.206 290.448 111.45 291.994 111.45C293.581 111.45 294.761 111.104 295.534 110.412C296.348 109.72 296.755 108.907 296.755 107.971C296.755 107.157 296.45 106.323 295.839 105.468C295.27 104.614 294.395 103.861 293.215 103.21C290 101.623 286.074 100.382 281.435 99.4868C276.796 98.5509 273.541 98.083 271.669 98.083C268.007 98.083 265.139 97.0658 263.063 95.0312C261.029 92.9561 259.584 90.2502 258.73 86.9136C257.875 83.5363 257.448 79.8945 257.448 75.9883C257.448 71.3496 258.404 67.4637 260.317 64.3306C262.229 61.1567 264.772 58.6136 267.946 56.7012C271.161 54.748 274.742 53.3442 278.688 52.4897C282.635 51.5946 286.643 51.147 290.712 51.147C296.409 51.147 302.045 51.7573 307.619 52.978C320.64 55.8263 327.15 60.8923 327.15 68.1758C327.15 70.5765 326.52 72.9365 325.258 75.2559C324.038 77.5752 322.41 79.4876 320.375 80.9932C318.382 82.4987 316.245 83.2515 313.967 83.2515H312.258C309.165 83.2515 306.521 82.7632 304.323 81.7866C302.167 80.8101 300.193 79.7521 298.403 78.6128C296.938 77.6769 295.493 76.8631 294.069 76.1714C292.645 75.4797 291.099 75.1338 289.431 75.1338H288.332C286.745 75.1338 285.484 75.5203 284.548 76.2935C283.653 77.0666 283.205 78.0024 283.205 79.1011C283.205 79.9149 283.49 80.7694 284.06 81.6646C284.67 82.5597 285.626 83.3939 286.928 84.167C289.207 85.4691 291.709 86.5474 294.436 87.4019C297.162 88.2563 299.908 89.0295 302.675 89.7212C306.297 90.6164 309.593 91.6133 312.563 92.7119C315.859 94.0954 318.28 96.3537 319.826 99.4868C321.413 102.579 322.207 106.018 322.207 109.802V113.647C322.207 117.96 321.128 121.643 318.972 124.694C316.815 127.746 313.926 130.228 310.305 132.141C306.683 134.012 302.553 135.396 297.915 136.291C293.317 137.146 288.556 137.573 283.632 137.573ZM345.899 136.413C343.336 136.413 340.854 136.047 338.453 135.314C336.093 134.541 334.12 133.361 332.533 131.774C330.946 130.147 330.01 128.072 329.725 125.549C329.44 122.375 329.298 118.672 329.298 114.44C329.298 105.285 329.908 95.2144 331.129 84.228C332.35 73.201 334.059 64.7171 336.256 58.7764C337.273 56.457 338.799 54.9108 340.833 54.1377C342.909 53.3646 345.086 52.978 347.364 52.978C349.033 52.978 350.66 53.0798 352.247 53.2832C362.175 54.4632 370.375 56.6808 376.844 59.936C383.355 63.1506 388.197 66.9551 391.371 71.3496C394.544 75.7441 396.131 80.1997 396.131 84.7163C396.131 88.7853 394.89 92.6509 392.408 96.313C389.967 99.9344 386.345 103.007 381.544 105.529C376.783 108.011 370.883 109.619 363.844 110.351L362.684 110.412C362.033 110.412 361.565 110.493 361.28 110.656C360.995 110.778 360.853 111.185 360.853 111.877L361.158 115.966C361.402 117.797 361.524 119.995 361.524 122.558C361.524 124.267 361.423 126.139 361.219 128.173C360.812 130.778 359.083 132.812 356.031 134.277C353.02 135.701 349.643 136.413 345.899 136.413ZM362.745 89.5381C365.553 89.5381 367.77 88.8464 369.398 87.4629C371.026 86.0387 371.839 84.4518 371.839 82.7021C371.839 81.0339 370.965 79.4876 369.215 78.0635C367.506 76.6393 364.719 75.7441 360.853 75.3779C360.283 77.6159 359.795 80.0776 359.388 82.7632C358.981 85.408 358.778 87.4019 358.778 88.7446V88.9888C360.202 89.355 361.524 89.5381 362.745 89.5381ZM444.849 132.019C440.861 132.019 438.521 130.94 437.83 128.784C436.69 124.715 435.653 119.974 434.717 114.562C434.066 110.86 433.435 107.747 432.825 105.224C432.458 103.963 431.828 103.007 430.933 102.355C430.037 101.704 429.061 101.379 428.003 101.379C426.945 101.379 425.948 101.725 425.012 102.417C424.076 103.068 423.385 104.105 422.937 105.529C422.489 106.953 422.001 108.683 421.472 110.717C419.56 117.797 418.034 122.741 416.895 125.549C416.325 126.77 415.247 127.705 413.66 128.356C412.113 128.967 410.343 129.272 408.35 129.272C406.03 129.272 403.67 128.865 401.27 128.051C398.91 127.197 396.936 125.915 395.349 124.206C393.762 122.497 392.969 120.34 392.969 117.736L393.03 116.394C394.006 108.825 395.837 99.8937 398.523 89.5991C401.208 79.3045 403.711 71.4106 406.03 65.9175C407.495 63.0285 410.506 60.7702 415.063 59.1426C419.661 57.4743 424.544 56.6401 429.712 56.6401C434.31 56.6401 438.521 57.3929 442.346 58.8984C446.212 60.3633 448.796 62.703 450.098 65.9175C453.027 74.0555 455.855 83.7601 458.582 95.0312C461.308 106.262 463.078 115.58 463.892 122.985V123.229C463.892 124.654 462.834 126.037 460.718 127.38C458.643 128.723 456.12 129.842 453.149 130.737C450.179 131.591 447.412 132.019 444.849 132.019ZM427.332 88.5005C431.767 88.2563 433.984 87.2391 433.984 85.4487L433.862 84.8994C432.479 80.5049 430.75 78.3076 428.674 78.3076C427.494 78.3076 426.375 79.04 425.317 80.5049C424.3 81.9697 423.568 83.8415 423.12 86.1201V86.4253C423.12 87.0356 423.446 87.5443 424.097 87.9512C424.788 88.3174 425.867 88.5005 427.332 88.5005ZM502.904 132.263H501.928C495.417 132.263 489.741 131.245 484.899 129.211C480.097 127.176 476.11 124.45 472.936 121.032C469.803 117.574 467.463 113.667 465.917 109.313C464.371 104.919 463.598 100.382 463.598 95.7026C463.598 90.4943 464.513 85.347 466.344 80.2607C468.216 75.1745 470.963 70.5968 474.584 66.5278C478.246 62.4181 482.742 59.1222 488.073 56.6401C493.403 54.158 499.547 52.917 506.505 52.917C510.859 52.917 514.867 53.6087 518.529 54.9922C522.191 56.3757 525.121 58.4508 527.318 61.2178C529.556 63.944 530.675 67.3823 530.675 71.5327L530.553 73.6689C530.228 76.5173 529.394 78.8569 528.051 80.688C526.749 82.4784 525.141 83.8008 523.229 84.6553C521.357 85.5098 519.424 85.937 517.431 85.937C514.094 85.937 511.266 84.818 508.947 82.5801C505.936 78.9993 503.128 77.209 500.524 77.209C497.391 77.4531 494.97 78.979 493.261 81.7866C491.592 84.5942 490.758 87.7477 490.758 91.2471C490.758 94.9906 491.735 98.2458 493.688 101.013C495.641 103.739 498.693 105.204 502.843 105.407C505.936 105.407 508.926 104.125 511.815 101.562C515.111 98.3475 518.265 96.7402 521.276 96.7402C524.45 96.7402 526.993 98.3678 528.905 101.623C530.858 104.878 531.835 108.805 531.835 113.403C531.794 117.39 530.37 120.788 527.562 123.596C524.836 126.281 521.317 128.377 517.003 129.882C512.69 131.388 507.991 132.181 502.904 132.263ZM554.856 130.493H553.758C548.631 130.493 544.704 129.353 541.978 127.075C539.292 124.755 537.828 120.951 537.583 115.661C537.38 111.633 537.075 106.872 536.668 101.379C535.854 91.3285 535.346 82.1325 535.142 73.791C535.142 69.5999 536.098 65.8971 538.011 62.6826C539.964 59.4681 542.833 57.3319 546.617 56.2739C552.313 54.8498 560.879 54.1377 572.312 54.1377L579.759 54.1987L582.2 54.2598C584.601 54.3818 586.31 55.3787 587.327 57.2505C588.344 59.1222 588.853 61.2788 588.853 63.7202C588.853 66.4058 588.385 68.9082 587.449 71.2275C586.513 73.5062 585.374 74.7472 584.031 74.9507C581.102 75.1541 577.989 75.2559 574.693 75.2559C573.391 75.2559 572.19 75.2355 571.092 75.1948L569.322 75.1338C568.142 75.1338 567.267 75.4797 566.697 76.1714C566.128 76.8224 565.843 77.5752 565.843 78.4297C565.843 79.3656 566.148 80.2404 566.758 81.0542C567.409 81.868 568.325 82.2749 569.505 82.2749C571.458 82.2749 573.106 82.2139 574.449 82.0918C575.303 82.0104 576.239 81.9494 577.256 81.9087C578.843 81.9087 580.084 82.8039 580.979 84.5942C581.915 86.3846 582.383 88.297 582.383 90.3315C582.383 92.0812 581.997 93.6478 581.224 95.0312C580.491 96.374 579.291 97.1268 577.623 97.2896C574.408 97.5337 571.234 97.6558 568.101 97.6558C567.084 97.6558 566.229 98.1034 565.538 98.9985C564.887 99.8937 564.561 100.83 564.561 101.806C564.561 102.579 564.805 103.291 565.293 103.942C565.782 104.553 566.575 104.939 567.674 105.102C568.528 105.183 569.362 105.224 570.176 105.224C571.438 105.224 572.679 105.163 573.899 105.041C575.12 104.919 576.382 104.858 577.684 104.858C579.067 104.858 580.186 105.346 581.041 106.323C581.895 107.259 582.505 108.52 582.872 110.107C583.278 111.653 583.482 113.321 583.482 115.112C583.482 118.326 582.994 121.378 582.017 124.267C581.041 127.156 579.84 128.763 578.416 129.089C572.801 129.781 564.948 130.249 554.856 130.493ZM617.307 134.033C612.342 134.033 607.968 133.605 604.184 132.751C600.359 131.652 597.572 129.414 595.822 126.037C594.073 122.619 593.035 119.038 592.709 115.295C591.326 102.762 590.634 91.5319 590.634 81.6035C590.634 73.8724 591.184 68.3589 592.282 65.063C593.828 60.9533 597.165 57.8812 602.292 55.8467C607.419 53.8122 613.421 52.7949 620.297 52.7949C625.465 52.7949 630.734 53.446 636.105 54.748C641.477 56.0501 645.973 58.2677 649.594 61.4009C653.216 64.534 655.189 68.8268 655.515 74.2793C655.515 77.9821 654.213 81.5628 651.608 85.0215C649.045 88.4395 645.586 91.4302 641.232 93.9937C640.256 94.5226 639.768 94.9499 639.768 95.2754C639.768 95.5602 640.297 95.8451 641.354 96.1299C644.691 96.9844 647.377 98.2661 649.411 99.9751C651.446 101.643 652.91 103.556 653.806 105.712C654.742 107.869 655.209 110.087 655.209 112.365C655.209 116.394 654.029 119.791 651.669 122.558C649.35 125.325 646.298 127.563 642.514 129.272C638.771 130.94 634.661 132.161 630.185 132.934C625.75 133.667 621.457 134.033 617.307 134.033ZM617.124 84.8994C620.704 84.818 623.593 84.4925 625.791 83.9229C628.028 83.3125 629.656 82.5597 630.673 81.6646C631.691 80.7694 632.199 79.8335 632.199 78.8569C632.199 77.4735 631.324 76.2324 629.575 75.1338C627.825 73.9945 625.526 73.4248 622.678 73.4248C620.928 73.4248 619.016 73.7096 616.94 74.2793C616.778 76.029 616.696 77.7786 616.696 79.5283C616.696 81.278 616.839 83.0684 617.124 84.8994ZM621.274 116.394C624.163 116.394 626.279 115.844 627.622 114.746C629.005 113.647 629.697 112.467 629.697 111.206C629.697 110.026 629.168 108.968 628.11 108.032C627.052 107.096 625.526 106.628 623.532 106.628C622.352 106.628 621.03 106.852 619.565 107.299C619.402 108.154 619.321 109.354 619.321 110.9C619.321 113.342 619.524 115.153 619.931 116.333L621.274 116.394ZM709.176 132.019C705.188 132.019 702.848 130.94 702.157 128.784C701.017 124.715 699.98 119.974 699.044 114.562C698.393 110.86 697.762 107.747 697.152 105.224C696.786 103.963 696.155 103.007 695.26 102.355C694.365 101.704 693.388 101.379 692.33 101.379C691.272 101.379 690.275 101.725 689.339 102.417C688.403 103.068 687.712 104.105 687.264 105.529C686.817 106.953 686.328 108.683 685.799 110.717C683.887 117.797 682.361 122.741 681.222 125.549C680.652 126.77 679.574 127.705 677.987 128.356C676.441 128.967 674.671 129.272 672.677 129.272C670.357 129.272 667.997 128.865 665.597 128.051C663.237 127.197 661.263 125.915 659.676 124.206C658.089 122.497 657.296 120.34 657.296 117.736L657.357 116.394C658.333 108.825 660.165 99.8937 662.85 89.5991C665.536 79.3045 668.038 71.4106 670.357 65.9175C671.822 63.0285 674.833 60.7702 679.391 59.1426C683.989 57.4743 688.871 56.6401 694.039 56.6401C698.637 56.6401 702.848 57.3929 706.673 58.8984C710.539 60.3633 713.123 62.703 714.425 65.9175C717.354 74.0555 720.182 83.7601 722.909 95.0312C725.635 106.262 727.405 115.58 728.219 122.985V123.229C728.219 124.654 727.161 126.037 725.045 127.38C722.97 128.723 720.447 129.842 717.477 130.737C714.506 131.591 711.739 132.019 709.176 132.019ZM691.659 88.5005C696.094 88.2563 698.312 87.2391 698.312 85.4487L698.189 84.8994C696.806 80.5049 695.077 78.3076 693.001 78.3076C691.821 78.3076 690.702 79.04 689.645 80.5049C688.627 81.9697 687.895 83.8415 687.447 86.1201V86.4253C687.447 87.0356 687.773 87.5443 688.424 87.9512C689.116 88.3174 690.194 88.5005 691.659 88.5005ZM779.561 137.634C778.218 137.634 777.099 137.247 776.204 136.474C772.664 132.934 769.286 128.743 766.072 123.901C764.81 122.111 763.61 120.463 762.471 118.957C761.779 118.103 761.25 117.675 760.884 117.675C760.233 117.675 759.907 118.489 759.907 120.117L759.968 124.45C759.968 127.827 759.439 130.452 758.381 132.324C757.323 133.911 755.37 135.172 752.522 136.108C749.714 137.003 746.866 137.451 743.977 137.451C742.146 137.451 740.478 137.247 738.972 136.84C737.467 136.433 736.327 135.782 735.554 134.887C733.601 132.283 732.197 127.929 731.343 121.826C730.529 115.681 730.122 109.029 730.122 101.867C730.122 94.2988 730.488 87.0763 731.221 80.1997C731.953 73.2824 732.909 68.1147 734.089 64.6968C735.432 61.3602 737.609 58.7967 740.62 57.0063C743.672 55.216 747.09 53.9953 750.874 53.3442C754.699 52.6932 758.3 52.3677 761.677 52.3677C768.961 52.3677 775.064 53.6291 779.988 56.1519C784.911 58.634 788.614 61.9095 791.096 65.9785C793.619 70.0475 794.88 74.381 794.88 78.979C794.88 83.2108 793.802 87.4222 791.646 91.6133C789.408 95.9671 786.01 99.8123 781.453 103.149C780.761 103.597 780.415 103.922 780.415 104.125C780.415 104.288 780.7 104.471 781.27 104.675C787.292 107.482 792.154 111.49 795.857 116.699C796.793 118.042 797.261 119.466 797.261 120.971C797.261 123.535 796.243 126.098 794.209 128.662C792.215 131.184 789.835 133.321 787.068 135.07C784.301 136.779 781.799 137.634 779.561 137.634ZM756.062 87.1577C760.009 86.8322 762.796 86.2625 764.424 85.4487C766.051 84.5942 766.865 83.6584 766.865 82.6411C766.865 81.2983 765.807 80.0369 763.691 78.8569C761.616 77.6362 759.541 77.0259 757.466 77.0259H756.794C756.55 77.9211 756.347 79.2028 756.184 80.8711C756.062 82.4987 756.001 84.0246 756.001 85.4487L756.062 87.1577Z" fill="white"/>
<path d="M267.641 135.559L266.002 140.282L266.031 140.292L266.06 140.302L267.641 135.559ZM257.204 113.647L252.452 112.092L252.439 112.131L252.427 112.17L257.204 113.647ZM260.744 108.032L257.394 104.32L257.371 104.34L257.349 104.361L260.744 108.032ZM270.388 106.079L271.418 101.186L271.393 101.181L271.368 101.176L270.388 106.079ZM281.13 108.947L279.549 113.691L281.13 108.947ZM286.928 110.717L285.613 115.541L285.626 115.545L285.64 115.548L286.928 110.717ZM295.534 110.412L292.296 106.602L292.248 106.644L292.2 106.686L295.534 110.412ZM295.839 105.468L291.679 108.242L291.724 108.309L291.771 108.374L295.839 105.468ZM293.215 103.21L295.63 98.8321L295.53 98.777L295.428 98.7265L293.215 103.21ZM281.435 99.4868L280.446 104.388L280.467 104.392L280.488 104.396L281.435 99.4868ZM263.063 95.0312L259.493 98.5316L259.528 98.567L259.563 98.6016L263.063 95.0312ZM258.73 86.9136L253.883 88.14L253.885 88.147L253.886 88.154L258.73 86.9136ZM260.317 64.3306L264.585 66.9356L264.592 66.9234L264.6 66.9111L260.317 64.3306ZM267.946 56.7012L270.527 60.9838L270.535 60.979L270.543 60.9743L267.946 56.7012ZM278.688 52.4897L279.746 57.3765L279.77 57.3713L279.794 57.3659L278.688 52.4897ZM307.619 52.978L306.55 57.8623L306.551 57.8625L307.619 52.978ZM325.258 75.2559L320.866 72.867L320.85 72.897L320.834 72.9271L325.258 75.2559ZM320.375 80.9932L317.401 76.974L317.382 76.9884L317.362 77.003L320.375 80.9932ZM304.323 81.7866L302.261 86.3414L302.277 86.3486L302.293 86.3557L304.323 81.7866ZM298.403 78.6128L295.711 82.8263L295.718 82.8311L298.403 78.6128ZM294.069 76.1714L296.254 71.6738L294.069 76.1714ZM284.548 76.2935L281.363 72.4386L281.321 72.4735L281.28 72.5093L284.548 76.2935ZM284.06 81.6646L279.841 84.3489L279.884 84.4158L279.928 84.4812L284.06 81.6646ZM286.928 84.167L284.376 88.4663L284.411 88.4875L284.448 88.5082L286.928 84.167ZM302.675 89.7212L301.463 94.5719L301.475 94.5751L302.675 89.7212ZM312.563 92.7119L314.498 88.1016L314.399 88.0598L314.297 88.0224L312.563 92.7119ZM319.826 99.4868L315.342 101.7L315.36 101.735L315.378 101.77L319.826 99.4868ZM310.305 132.141L312.6 136.582L312.62 136.572L312.64 136.562L310.305 132.141ZM297.915 136.291L298.828 141.207L298.845 141.204L298.862 141.2L297.915 136.291ZM283.632 137.573V132.573C277.271 132.573 272.538 131.92 269.222 130.815L267.641 135.559L266.06 140.302C270.801 141.882 276.729 142.573 283.632 142.573V137.573ZM267.641 135.559L269.28 130.835C265.943 129.677 264.036 128.209 262.982 126.732L258.913 129.638L254.844 132.544C257.452 136.195 261.364 138.673 266.002 140.282L267.641 135.559ZM258.913 129.638L262.982 126.732C261.851 125.148 261.167 123.095 261.167 120.3H256.167H251.167C251.167 124.829 252.313 129.001 254.844 132.544L258.913 129.638ZM256.167 120.3H261.167C261.167 118.635 261.427 116.915 261.981 115.124L257.204 113.647L252.427 112.17C251.597 114.855 251.167 117.57 251.167 120.3H256.167ZM257.204 113.647L261.956 115.202C262.441 113.721 263.176 112.594 264.139 111.702L260.744 108.032L257.349 104.361C255.057 106.481 253.432 109.097 252.452 112.092L257.204 113.647ZM260.744 108.032L264.094 111.744C264.617 111.271 265.566 110.773 267.519 110.773V105.773V100.773C263.776 100.773 260.207 101.781 257.394 104.32L260.744 108.032ZM267.519 105.773V110.773C268.038 110.773 268.663 110.833 269.407 110.982L270.388 106.079L271.368 101.176C270.078 100.918 268.79 100.773 267.519 100.773V105.773ZM270.388 106.079L269.358 110.971C273.062 111.751 276.456 112.66 279.549 113.691L281.13 108.947L282.711 104.204C279.212 103.037 275.445 102.034 271.418 101.186L270.388 106.079ZM281.13 108.947L279.549 113.691C281.697 114.407 283.719 115.025 285.613 115.541L286.928 110.717L288.244 105.893C286.557 105.433 284.713 104.871 282.711 104.204L281.13 108.947ZM286.928 110.717L285.64 115.548C287.801 116.125 289.928 116.45 291.994 116.45V111.45V106.45C290.968 106.45 289.718 106.286 288.217 105.886L286.928 110.717ZM291.994 111.45V116.45C294.183 116.45 296.798 115.99 298.868 114.138L295.534 110.412L292.2 106.686C292.462 106.452 292.67 106.39 292.663 106.392C292.657 106.394 292.602 106.409 292.488 106.423C292.374 106.438 292.211 106.45 291.994 106.45V111.45ZM295.534 110.412L298.772 114.222C300.528 112.73 301.755 110.59 301.755 107.971H296.755H291.755C291.755 107.685 291.824 107.355 291.978 107.047C292.123 106.756 292.278 106.618 292.296 106.602L295.534 110.412ZM296.755 107.971H301.755C301.755 105.849 300.948 104.019 299.908 102.562L295.839 105.468L291.771 108.374C291.861 108.5 291.857 108.527 291.83 108.453C291.8 108.37 291.755 108.201 291.755 107.971H296.755ZM295.839 105.468L300 102.695C298.868 100.998 297.301 99.7538 295.63 98.8321L293.215 103.21L290.799 107.588C291.489 107.968 291.671 108.23 291.679 108.242L295.839 105.468ZM293.215 103.21L295.428 98.7265C291.709 96.8904 287.33 95.5322 282.382 94.5774L281.435 99.4868L280.488 104.396C284.818 105.232 288.292 106.356 291.001 107.693L293.215 103.21ZM281.435 99.4868L282.424 94.5856C277.805 93.6537 274.1 93.083 271.669 93.083V98.083V103.083C272.982 103.083 275.788 103.448 280.446 104.388L281.435 99.4868ZM271.669 98.083V93.083C268.959 93.083 267.477 92.3559 266.564 91.4609L263.063 95.0312L259.563 98.6016C262.801 101.776 267.056 103.083 271.669 103.083V98.083ZM263.063 95.0312L266.634 91.5309C265.32 90.1913 264.251 88.3161 263.574 85.6731L258.73 86.9136L253.886 88.154C254.918 92.1842 256.737 95.7208 259.493 98.5316L263.063 95.0312ZM258.73 86.9136L263.577 85.6872C262.836 82.7558 262.448 79.5302 262.448 75.9883H257.448H252.448C252.448 80.2589 252.915 84.3167 253.883 88.14L258.73 86.9136ZM257.448 75.9883H262.448C262.448 72.0289 263.262 69.102 264.585 66.9356L260.317 64.3306L256.049 61.7256C253.547 65.8254 252.448 70.6703 252.448 75.9883H257.448ZM260.317 64.3306L264.6 66.9111C266.092 64.4348 268.051 62.4759 270.527 60.9838L267.946 56.7012L265.366 52.4186C261.494 54.7513 258.367 57.8787 256.034 61.75L260.317 64.3306ZM267.946 56.7012L270.543 60.9743C273.248 59.3304 276.303 58.1221 279.746 57.3765L278.688 52.4897L277.631 47.603C273.18 48.5664 269.073 50.1657 265.35 52.4281L267.946 56.7012ZM278.688 52.4897L279.794 57.3659C283.376 56.5535 287.013 56.147 290.712 56.147V51.147V46.147C286.273 46.147 281.894 46.6357 277.583 47.6136L278.688 52.4897ZM290.712 51.147V56.147C296.049 56.147 301.326 56.7184 306.55 57.8623L307.619 52.978L308.689 48.0938C302.763 46.7963 296.769 46.147 290.712 46.147V51.147ZM307.619 52.978L306.551 57.8625C312.73 59.2142 316.784 60.9825 319.197 62.8598C321.418 64.5882 322.15 66.2951 322.15 68.1758H327.15H332.15C332.15 62.773 329.627 58.3051 325.338 54.9676C321.24 51.7789 315.529 49.5901 308.688 48.0935L307.619 52.978ZM327.15 68.1758H322.15C322.15 69.6609 321.769 71.206 320.866 72.867L325.258 75.2559L329.651 77.6447C331.27 74.667 332.15 71.4921 332.15 68.1758H327.15ZM325.258 75.2559L320.834 72.9271C319.95 74.6054 318.81 75.9318 317.401 76.974L320.375 80.9932L323.35 85.0124C326.01 83.0435 328.125 80.5449 329.683 77.5846L325.258 75.2559ZM320.375 80.9932L317.362 77.003C316.148 77.92 315.052 78.2515 313.967 78.2515V83.2515V88.2515C317.439 88.2515 320.615 87.0774 323.388 84.9834L320.375 80.9932ZM313.967 83.2515V78.2515H312.258V83.2515V88.2515H313.967V83.2515ZM312.258 83.2515V78.2515C309.673 78.2515 307.757 77.8411 306.354 77.2176L304.323 81.7866L302.293 86.3557C305.284 87.6853 308.658 88.2515 312.258 88.2515V83.2515ZM304.323 81.7866L306.386 77.2318C304.42 76.3417 302.657 75.3936 301.087 74.3945L298.403 78.6128L295.718 82.8311C297.729 84.1106 299.913 85.2785 302.261 86.3414L304.323 81.7866ZM298.403 78.6128L301.095 74.3993C299.482 73.369 297.868 72.4581 296.254 71.6738L294.069 76.1714L291.885 80.6689C293.118 81.2682 294.394 81.9848 295.711 82.8263L298.403 78.6128ZM294.069 76.1714L296.254 71.6738C294.112 70.6337 291.814 70.1338 289.431 70.1338V75.1338V80.1338C290.384 80.1338 291.178 80.3256 291.885 80.6689L294.069 76.1714ZM289.431 75.1338V70.1338H288.332V75.1338V80.1338H289.431V75.1338ZM288.332 75.1338V70.1338C285.944 70.1338 283.439 70.7238 281.363 72.4386L284.548 76.2935L287.732 80.1483C287.651 80.2154 287.604 80.2218 287.661 80.2043C287.732 80.1825 287.938 80.1338 288.332 80.1338V75.1338ZM284.548 76.2935L281.28 72.5093C279.38 74.1498 278.205 76.4278 278.205 79.1011H283.205H288.205C288.205 79.2533 288.169 79.4873 288.051 79.7325C287.998 79.8447 287.94 79.9318 287.892 79.9929C287.845 80.0528 287.814 80.0793 287.816 80.0776L284.548 76.2935ZM283.205 79.1011H278.205C278.205 81.1147 278.914 82.8911 279.841 84.3489L284.06 81.6646L288.278 78.9802C288.175 78.8181 288.155 78.7491 288.162 78.7712C288.166 78.7836 288.177 78.8197 288.187 78.8776C288.197 78.936 288.205 79.0116 288.205 79.1011H283.205ZM284.06 81.6646L279.928 84.4812C281.08 86.1702 282.679 87.459 284.376 88.4663L286.928 84.167L289.481 79.8677C288.573 79.3288 288.26 78.9492 288.191 78.8479L284.06 81.6646ZM286.928 84.167L284.448 88.5082C287.064 90.0035 289.901 91.2204 292.94 92.173L294.436 87.4019L295.931 82.6307C293.518 81.8743 291.349 80.9346 289.409 79.8258L286.928 84.167ZM294.436 87.4019L292.94 92.173C295.76 93.0567 298.601 93.8564 301.463 94.5719L302.675 89.7212L303.888 84.8705C301.216 84.2025 298.564 83.456 295.931 82.6307L294.436 87.4019ZM302.675 89.7212L301.475 94.5751C304.947 95.4331 308.061 96.3777 310.829 97.4014L312.563 92.7119L314.297 88.0224C311.125 86.8489 307.647 85.7996 303.875 84.8673L302.675 89.7212ZM312.563 92.7119L310.628 97.3222C312.841 98.2513 314.343 99.6735 315.342 101.7L319.826 99.4868L324.31 97.2741C322.217 93.0339 318.877 89.9394 314.498 88.1016L312.563 92.7119ZM319.826 99.4868L315.378 101.77C316.571 104.094 317.207 106.74 317.207 109.802H322.207H327.207C327.207 105.296 326.255 101.064 324.275 97.204L319.826 99.4868ZM322.207 109.802H317.207V113.647H322.207H327.207V109.802H322.207ZM322.207 113.647H317.207C317.207 117.091 316.36 119.726 314.888 121.809L318.972 124.694L323.055 127.58C325.897 123.559 327.207 118.829 327.207 113.647H322.207ZM318.972 124.694L314.888 121.809C313.228 124.158 310.964 126.138 307.97 127.719L310.305 132.141L312.64 136.562C316.889 134.318 320.402 131.334 323.055 127.58L318.972 124.694ZM310.305 132.141L308.009 127.699C304.873 129.319 301.209 130.563 296.967 131.382L297.915 136.291L298.862 141.2C303.897 140.229 308.493 138.705 312.6 136.582L310.305 132.141ZM297.915 136.291L297.001 131.375C292.72 132.171 288.265 132.573 283.632 132.573V137.573V142.573C288.846 142.573 293.913 142.12 298.828 141.207L297.915 136.291ZM338.453 135.314L336.897 140.066L336.945 140.082L336.994 140.097L338.453 135.314ZM332.533 131.774L328.953 135.265L328.975 135.288L328.997 135.31L332.533 131.774ZM329.725 125.549L324.745 125.996L324.75 126.053L324.757 126.11L329.725 125.549ZM331.129 84.228L336.098 84.7802L336.099 84.7782L331.129 84.228ZM336.256 58.7764L331.677 56.7681L331.618 56.9033L331.566 57.0419L336.256 58.7764ZM340.833 54.1377L339.088 49.4523L339.073 49.458L339.057 49.4638L340.833 54.1377ZM352.247 53.2832L351.611 58.2426L351.634 58.2455L351.657 58.2483L352.247 53.2832ZM376.844 59.936L374.597 64.4025L374.614 64.411L374.631 64.4193L376.844 59.936ZM392.408 96.313L388.269 93.5077L388.262 93.518L392.408 96.313ZM381.544 105.529L383.855 109.963L383.863 109.959L383.87 109.956L381.544 105.529ZM363.844 110.351L364.107 115.344L364.234 115.337L364.361 115.324L363.844 110.351ZM362.684 110.412V115.412H362.816L362.947 115.405L362.684 110.412ZM361.28 110.656L363.25 115.252L363.513 115.139L363.761 114.997L361.28 110.656ZM360.853 111.877H355.853V112.063L355.867 112.249L360.853 111.877ZM361.158 115.966L356.172 116.338L356.183 116.483L356.202 116.627L361.158 115.966ZM361.219 128.173L366.159 128.945L366.181 128.809L366.194 128.671L361.219 128.173ZM356.031 134.277L358.169 138.797L358.182 138.791L358.195 138.784L356.031 134.277ZM369.398 87.4629L372.636 91.2726L372.664 91.2494L372.69 91.2258L369.398 87.4629ZM369.215 78.0635L366.014 81.9046L366.036 81.9231L366.058 81.9413L369.215 78.0635ZM360.853 75.3779L361.325 70.4002L357.063 69.9965L356.008 74.1445L360.853 75.3779ZM359.388 82.7632L364.33 83.5235L364.332 83.5122L359.388 82.7632ZM358.778 88.9888H353.778V92.8657L357.533 93.8312L358.778 88.9888ZM345.899 136.413V131.413C343.82 131.413 341.83 131.117 339.912 130.532L338.453 135.314L336.994 140.097C339.878 140.977 342.852 141.413 345.899 141.413V136.413ZM338.453 135.314L340.01 130.563C338.315 130.008 337.043 129.214 336.068 128.239L332.533 131.774L328.997 135.31C331.196 137.509 333.871 139.075 336.897 140.066L338.453 135.314ZM332.533 131.774L336.113 128.284C335.392 127.544 334.869 126.543 334.694 124.988L329.725 125.549L324.757 126.11C325.151 129.6 326.5 132.749 328.953 135.265L332.533 131.774ZM329.725 125.549L334.705 125.102C334.437 122.116 334.298 118.568 334.298 114.44H329.298H324.298C324.298 118.776 324.443 122.634 324.745 125.996L329.725 125.549ZM329.298 114.44H334.298C334.298 105.503 334.894 95.6193 336.098 84.7802L331.129 84.228L326.159 83.6759C324.922 94.8094 324.298 105.068 324.298 114.44H329.298ZM331.129 84.228L336.099 84.7782C337.303 73.9019 338.957 65.8876 340.945 60.5108L336.256 58.7764L331.566 57.0419C329.16 63.5466 327.397 72.5001 326.159 83.6779L331.129 84.228ZM336.256 58.7764L340.835 60.7847C341.409 59.476 342.035 59.0298 342.61 58.8116L340.833 54.1377L339.057 49.4638C335.563 50.7918 333.137 53.438 331.677 56.7681L336.256 58.7764ZM340.833 54.1377L342.579 58.8231C344.08 58.2641 345.664 57.978 347.364 57.978V52.978V47.978C344.507 47.978 341.738 48.4651 339.088 49.4523L340.833 54.1377ZM347.364 52.978V57.978C348.829 57.978 350.244 58.0673 351.611 58.2426L352.247 53.2832L352.883 48.3238C351.076 48.0922 349.236 47.978 347.364 47.978V52.978ZM352.247 53.2832L351.657 58.2483C361.212 59.3839 368.803 61.4872 374.597 64.4025L376.844 59.936L379.092 55.4695C371.946 51.8745 363.139 49.5425 352.837 48.3181L352.247 53.2832ZM376.844 59.936L374.631 64.4193C380.648 67.3904 384.755 70.7293 387.317 74.2771L391.371 71.3496L395.424 68.4222C391.639 63.1809 386.061 58.9107 379.058 55.4527L376.844 59.936ZM391.371 71.3496L387.317 74.2771C390.002 77.9942 391.131 81.4474 391.131 84.7163H396.131H401.131C401.131 78.952 399.087 73.4941 395.424 68.4222L391.371 71.3496ZM396.131 84.7163H391.131C391.131 87.6976 390.241 90.5979 388.269 93.5077L392.408 96.313L396.547 99.1182C399.539 94.7038 401.131 89.8731 401.131 84.7163H396.131ZM392.408 96.313L388.262 93.518C386.382 96.3069 383.462 98.8735 379.218 101.103L381.544 105.529L383.87 109.956C389.229 107.14 393.551 103.562 396.554 99.108L392.408 96.313ZM381.544 105.529L379.232 101.096C375.177 103.21 369.928 104.691 363.326 105.378L363.844 110.351L364.361 115.324C371.838 114.546 378.389 112.813 383.855 109.963L381.544 105.529ZM363.844 110.351L363.581 105.358L362.421 105.419L362.684 110.412L362.947 115.405L364.107 115.344L363.844 110.351ZM362.684 110.412V105.412C361.864 105.412 360.277 105.471 358.8 106.315L361.28 110.656L363.761 114.997C363.481 115.157 363.238 115.251 363.071 115.306C362.901 115.36 362.772 115.387 362.702 115.399C362.571 115.422 362.548 115.412 362.684 115.412V110.412ZM361.28 110.656L359.311 106.061C357.438 106.863 356.588 108.408 356.241 109.401C355.906 110.358 355.853 111.266 355.853 111.877H360.853H365.853C365.853 111.796 365.872 112.155 365.679 112.705C365.474 113.291 364.838 114.571 363.25 115.252L361.28 110.656ZM360.853 111.877L355.867 112.249L356.172 116.338L361.158 115.966L366.144 115.594L365.839 111.505L360.853 111.877ZM361.158 115.966L356.202 116.627C356.408 118.174 356.524 120.138 356.524 122.558H361.524H366.524C366.524 119.851 366.396 117.421 366.114 115.305L361.158 115.966ZM361.524 122.558H356.524C356.524 124.073 356.434 125.776 356.244 127.676L361.219 128.173L366.194 128.671C366.411 126.502 366.524 124.462 366.524 122.558H361.524ZM361.219 128.173L356.279 127.401C356.198 127.923 355.906 128.791 353.868 129.769L356.031 134.277L358.195 138.784C362.26 136.833 365.427 133.632 366.159 128.945L361.219 128.173ZM356.031 134.277L353.893 129.757C351.629 130.828 348.996 131.413 345.899 131.413V136.413V141.413C350.29 141.413 354.411 140.574 358.169 138.797L356.031 134.277ZM362.745 89.5381V94.5381C366.361 94.5381 369.853 93.6383 372.636 91.2726L369.398 87.4629L366.16 83.6532C365.688 84.0544 364.745 84.5381 362.745 84.5381V89.5381ZM369.398 87.4629L372.69 91.2258C375.126 89.095 376.839 86.2255 376.839 82.7021H371.839H366.839C366.839 82.7678 366.832 82.8215 366.78 82.923C366.716 83.0483 366.542 83.318 366.105 83.7L369.398 87.4629ZM371.839 82.7021H376.839C376.839 79.0447 374.85 76.2036 372.371 74.1857L369.215 78.0635L366.058 81.9413C366.575 82.3618 366.771 82.647 366.831 82.7534C366.872 82.8259 366.839 82.7871 366.839 82.7021H371.839ZM369.215 78.0635L372.416 74.2224C369.544 71.8295 365.533 70.7989 361.325 70.4002L360.853 75.3779L360.381 80.3556C363.904 80.6894 365.467 81.4492 366.014 81.9046L369.215 78.0635ZM360.853 75.3779L356.008 74.1445C355.391 76.5671 354.872 79.1931 354.445 82.0142L359.388 82.7632L364.332 83.5122C364.718 80.9621 365.176 78.6647 365.699 76.6113L360.853 75.3779ZM359.388 82.7632L354.446 82.0029C354.031 84.7039 353.778 87.0059 353.778 88.7446H358.778H363.778C363.778 87.7978 363.932 86.1121 364.33 83.5235L359.388 82.7632ZM358.778 88.7446H353.778V88.9888H358.778H363.778V88.7446H358.778ZM358.778 88.9888L357.533 93.8312C359.284 94.2815 361.029 94.5381 362.745 94.5381V89.5381V84.5381C362.02 84.5381 361.12 84.4285 360.023 84.1463L358.778 88.9888ZM437.83 128.784L433.015 130.132L433.04 130.222L433.069 130.311L437.83 128.784ZM434.717 114.562L439.644 113.71L439.641 113.697L434.717 114.562ZM432.825 105.224L437.685 104.048L437.658 103.939L437.626 103.83L432.825 105.224ZM425.012 102.417L427.868 106.521L427.926 106.48L427.984 106.437L425.012 102.417ZM422.937 105.529L418.167 104.03L422.937 105.529ZM421.472 110.717L426.299 112.021L426.305 111.998L426.311 111.975L421.472 110.717ZM416.895 125.549L421.425 127.663L421.48 127.547L421.528 127.429L416.895 125.549ZM413.66 128.356L415.496 133.007L415.527 132.995L415.557 132.982L413.66 128.356ZM401.27 128.051L399.567 132.753L399.616 132.77L399.664 132.787L401.27 128.051ZM392.969 117.736L387.974 117.509L387.969 117.623V117.736H392.969ZM393.03 116.394L388.071 115.754L388.044 115.959L388.035 116.167L393.03 116.394ZM406.03 65.9175L401.571 63.6563L401.492 63.8119L401.424 63.9726L406.03 65.9175ZM415.063 59.1426L416.745 63.8513L416.757 63.8471L416.769 63.8428L415.063 59.1426ZM442.346 58.8984L440.515 63.551L440.545 63.5627L440.574 63.574L442.346 58.8984ZM450.098 65.9175L454.802 64.2239L454.769 64.1314L454.732 64.0403L450.098 65.9175ZM458.582 95.0312L453.722 96.2067L453.723 96.2108L458.582 95.0312ZM463.892 122.985H468.892V122.711L468.862 122.439L463.892 122.985ZM460.718 127.38L458.039 123.158L458.02 123.17L458.002 123.182L460.718 127.38ZM453.149 130.737L454.532 135.542L454.562 135.533L454.592 135.524L453.149 130.737ZM427.332 88.5005V93.5005H427.469L427.606 93.4929L427.332 88.5005ZM433.984 85.4487H438.984V84.8999L438.865 84.3641L433.984 85.4487ZM433.862 84.8994L438.743 83.8148L438.696 83.604L438.632 83.398L433.862 84.8994ZM425.317 80.5049L421.264 77.5774L421.237 77.6149L421.211 77.6529L425.317 80.5049ZM423.12 86.1201L418.214 85.1564L418.12 85.6337V86.1201H423.12ZM424.097 87.9512L421.447 92.1912L421.599 92.2862L421.757 92.3701L424.097 87.9512ZM444.849 132.019V127.019C443.221 127.019 442.449 126.785 442.196 126.669C442.103 126.626 442.178 126.644 442.306 126.78C442.445 126.928 442.542 127.106 442.591 127.257L437.83 128.784L433.069 130.311C434.853 135.874 440.536 137.019 444.849 137.019V132.019ZM437.83 128.784L442.644 127.436C441.562 123.57 440.559 119.002 439.644 113.71L434.717 114.562L429.79 115.415C430.747 120.947 431.819 125.86 433.015 130.132L437.83 128.784ZM434.717 114.562L439.641 113.697C438.979 109.932 438.328 106.708 437.685 104.048L432.825 105.224L427.965 106.4C428.542 108.786 429.152 111.788 429.792 115.428L434.717 114.562ZM432.825 105.224L437.626 103.83C437.011 101.71 435.825 99.731 433.873 98.3118L430.933 102.355L427.992 106.399C427.969 106.383 427.947 106.363 427.928 106.344C427.91 106.324 427.902 106.312 427.903 106.314C427.905 106.317 427.96 106.4 428.023 106.618L432.825 105.224ZM430.933 102.355L433.873 98.3118C432.166 97.0699 430.169 96.3789 428.003 96.3789V101.379V106.379C428.007 106.379 428.007 106.379 428.005 106.379C428.002 106.379 427.998 106.378 427.991 106.377C427.985 106.376 427.977 106.375 427.969 106.373C427.962 106.371 427.954 106.369 427.948 106.366C427.941 106.364 427.936 106.362 427.933 106.361C427.931 106.36 427.93 106.36 427.933 106.361C427.938 106.364 427.958 106.374 427.992 106.399L430.933 102.355ZM428.003 101.379V96.3789C425.768 96.3789 423.746 97.135 422.04 98.3956L425.012 102.417L427.984 106.437C428.037 106.398 428.073 106.378 428.091 106.368C428.108 106.358 428.111 106.358 428.101 106.362C428.09 106.366 428.072 106.371 428.051 106.374C428.029 106.378 428.012 106.379 428.003 106.379V101.379ZM425.012 102.417L422.157 98.312C420.065 99.7671 418.844 101.877 418.167 104.03L422.937 105.529L427.707 107.028C427.816 106.682 427.914 106.513 427.952 106.456C427.983 106.41 427.96 106.456 427.868 106.521L425.012 102.417ZM422.937 105.529L418.167 104.03C417.687 105.559 417.175 107.373 416.633 109.459L421.472 110.717L426.311 111.975C426.827 109.992 427.292 108.348 427.707 107.028L422.937 105.529ZM421.472 110.717L416.645 109.413C414.732 116.495 413.274 121.173 412.261 123.669L416.895 125.549L421.528 127.429C422.794 124.309 424.387 119.1 426.299 112.021L421.472 110.717ZM416.895 125.549L412.364 123.434C412.393 123.371 412.423 123.354 412.381 123.39C412.326 123.438 412.15 123.571 411.762 123.731L413.66 128.356L415.557 132.982C417.977 131.99 420.191 130.308 421.425 127.663L416.895 125.549ZM413.66 128.356L411.824 123.706C410.966 124.044 409.837 124.272 408.35 124.272V129.272V134.272C410.85 134.272 413.261 133.889 415.496 133.007L413.66 128.356ZM408.35 129.272V124.272C406.625 124.272 404.806 123.971 402.875 123.316L401.27 128.051L399.664 132.787C402.534 133.759 405.436 134.272 408.35 134.272V129.272ZM401.27 128.051L402.972 123.35C401.301 122.745 400.018 121.886 399.013 120.804L395.349 124.206L391.685 127.608C393.854 129.944 396.518 131.648 399.567 132.753L401.27 128.051ZM395.349 124.206L399.013 120.804C398.387 120.13 397.969 119.238 397.969 117.736H392.969H387.969C387.969 121.443 389.137 124.864 391.685 127.608L395.349 124.206ZM392.969 117.736L397.964 117.963L398.025 116.621L393.03 116.394L388.035 116.167L387.974 117.509L392.969 117.736ZM393.03 116.394L397.989 117.033C398.93 109.738 400.71 101.024 403.361 90.8612L398.523 89.5991L393.685 88.337C390.965 98.7631 389.083 107.912 388.071 115.754L393.03 116.394ZM398.523 89.5991L403.361 90.8612C406.025 80.6493 408.456 73.0261 410.637 67.8623L406.03 65.9175L401.424 63.9726C398.966 69.7952 396.392 77.9598 393.685 88.337L398.523 89.5991ZM406.03 65.9175L410.49 68.1786C411.146 66.8848 412.808 65.2573 416.745 63.8513L415.063 59.1426L413.382 54.4339C408.204 56.2831 403.844 59.1722 401.571 63.6563L406.03 65.9175ZM415.063 59.1426L416.769 63.8428C420.79 62.3838 425.093 61.6401 429.712 61.6401V56.6401V51.6401C423.996 51.6401 418.533 52.5647 413.358 54.4424L415.063 59.1426ZM429.712 56.6401V61.6401C433.757 61.6401 437.338 62.3007 440.515 63.551L442.346 58.8984L444.178 54.2459C439.704 52.4851 434.863 51.6401 429.712 51.6401V56.6401ZM442.346 58.8984L440.574 63.574C443.409 64.6482 444.784 66.1173 445.463 67.7946L450.098 65.9175L454.732 64.0403C452.807 59.2887 449.014 56.0784 444.118 54.2229L442.346 58.8984ZM450.098 65.9175L445.393 67.6111C448.245 75.5334 451.025 85.0561 453.722 96.2067L458.582 95.0312L463.441 93.8558C460.686 82.4641 457.809 72.5776 454.802 64.2239L450.098 65.9175ZM458.582 95.0312L453.723 96.2108C456.423 107.333 458.14 116.422 458.922 123.532L463.892 122.985L468.862 122.439C468.015 114.738 466.193 105.191 463.44 93.8517L458.582 95.0312ZM463.892 122.985H458.892V123.229H463.892H468.892V122.985H463.892ZM463.892 123.229H458.892C458.892 122.952 458.946 122.709 459.014 122.527C459.079 122.354 459.141 122.279 459.126 122.298C459.11 122.319 459.032 122.414 458.848 122.572C458.665 122.729 458.403 122.927 458.039 123.158L460.718 127.38L463.397 131.602C465.865 130.035 468.892 127.348 468.892 123.229H463.892ZM460.718 127.38L458.002 123.182C456.406 124.214 454.336 125.157 451.707 125.949L453.149 130.737L454.592 135.524C457.903 134.526 460.879 133.231 463.434 131.578L460.718 127.38ZM453.149 130.737L451.767 125.932C449.157 126.683 446.86 127.019 444.849 127.019V132.019V137.019C447.964 137.019 451.201 136.5 454.532 135.542L453.149 130.737ZM427.332 88.5005L427.606 93.4929C430.022 93.3599 432.437 93.0024 434.406 92.0991C436.532 91.124 438.984 89.0152 438.984 85.4487H433.984H428.984C428.984 84.7726 429.224 84.0798 429.645 83.5474C430.003 83.0941 430.321 82.9712 430.236 83.0098C430.161 83.0443 429.886 83.1509 429.311 83.2599C428.751 83.3661 428.009 83.4556 427.057 83.508L427.332 88.5005ZM433.984 85.4487L438.865 84.3641L438.743 83.8148L433.862 84.8994L428.981 85.9841L429.103 86.5334L433.984 85.4487ZM433.862 84.8994L438.632 83.398C437.86 80.9482 436.86 78.6459 435.457 76.8632C433.997 75.0083 431.737 73.3076 428.674 73.3076V78.3076V83.3076C428.263 83.3076 427.904 83.1871 427.665 83.0494C427.463 82.9324 427.457 82.8675 427.599 83.0479C427.925 83.4625 428.481 84.4561 429.093 86.4008L433.862 84.8994ZM428.674 78.3076V73.3076C425.173 73.3076 422.745 75.5265 421.264 77.5774L425.317 80.5049L429.371 83.4323C429.66 83.0324 429.785 82.977 429.688 83.0404C429.63 83.0787 429.506 83.1492 429.319 83.209C429.126 83.2703 428.906 83.3076 428.674 83.3076V78.3076ZM425.317 80.5049L421.211 77.6529C419.699 79.8288 418.756 82.3956 418.214 85.1564L423.12 86.1201L428.026 87.0838C428.379 85.2873 428.901 84.1106 429.424 83.3569L425.317 80.5049ZM423.12 86.1201H418.12V86.4253H423.12H428.12V86.1201H423.12ZM423.12 86.4253H418.12C418.12 89.2136 419.765 91.1403 421.447 92.1912L424.097 87.9512L426.747 83.7112C426.885 83.7974 427.246 84.0538 427.576 84.5693C427.934 85.1287 428.12 85.786 428.12 86.4253H423.12ZM424.097 87.9512L421.757 92.3701C423.557 93.3229 425.646 93.5005 427.332 93.5005V88.5005V83.5005C426.792 83.5005 426.449 83.4656 426.261 83.4337C426.055 83.3987 426.166 83.3891 426.436 83.5322L424.097 87.9512ZM502.904 132.263V137.263H502.944L502.984 137.262L502.904 132.263ZM484.899 129.211L482.948 133.815L482.955 133.818L482.962 133.821L484.899 129.211ZM472.936 121.032L469.23 124.389L469.251 124.412L469.272 124.434L472.936 121.032ZM465.917 109.313L461.2 110.973L461.203 110.98L461.205 110.987L465.917 109.313ZM466.344 80.2607L461.652 78.534L461.646 78.5505L461.64 78.5671L466.344 80.2607ZM474.584 66.5278L470.851 63.2014L470.849 63.2037L474.584 66.5278ZM527.318 61.2178L523.403 64.3272L523.428 64.3589L523.454 64.3902L527.318 61.2178ZM530.675 71.5327L535.667 71.818L535.675 71.6755V71.5327H530.675ZM530.553 73.6689L535.521 74.2367L535.537 74.0958L535.545 73.9542L530.553 73.6689ZM528.051 80.688L524.019 77.7312L524.013 77.7391L524.007 77.7471L528.051 80.688ZM523.229 84.6553L521.189 80.0902L521.171 80.0985L521.153 80.1068L523.229 84.6553ZM508.947 82.5801L505.12 85.7981L505.288 85.9974L505.475 86.1782L508.947 82.5801ZM500.524 77.209V72.209H500.329L500.135 72.2241L500.524 77.209ZM493.261 81.7866L488.99 79.1869L488.976 79.2096L488.962 79.2325L493.261 81.7866ZM493.688 101.013L489.603 103.896L489.613 103.91L489.623 103.925L493.688 101.013ZM502.843 105.407L502.598 110.401L502.721 110.407H502.843V105.407ZM511.815 101.562L515.134 105.302L515.222 105.224L515.306 105.141L511.815 101.562ZM528.905 101.623L524.594 104.156L524.606 104.176L524.618 104.196L528.905 101.623ZM531.835 113.403L536.835 113.454L536.835 113.428V113.403H531.835ZM527.562 123.596L531.071 127.158L531.085 127.145L531.098 127.131L527.562 123.596ZM502.904 132.263V127.263H501.928V132.263V137.263H502.904V132.263ZM501.928 132.263V127.263C495.928 127.263 490.937 126.324 486.836 124.601L484.899 129.211L482.962 133.821C488.545 136.166 494.907 137.263 501.928 137.263V132.263ZM484.899 129.211L486.85 124.607C482.621 122.815 479.24 120.473 476.6 117.63L472.936 121.032L469.272 124.434C472.98 128.427 477.574 131.538 482.948 133.815L484.899 129.211ZM472.936 121.032L476.642 117.675C473.947 114.701 471.952 111.366 470.629 107.64L465.917 109.313L461.205 110.987C462.975 115.969 465.659 120.446 469.23 124.389L472.936 121.032ZM465.917 109.313L470.634 107.654C469.276 103.795 468.598 99.8193 468.598 95.7026H463.598H458.598C458.598 100.945 459.466 106.043 461.2 110.973L465.917 109.313ZM463.598 95.7026H468.598C468.598 91.0934 469.406 86.5182 471.049 81.9543L466.344 80.2607L461.64 78.5671C459.621 84.1758 458.598 89.8952 458.598 95.7026H463.598ZM466.344 80.2607L471.037 81.9875C472.691 77.492 475.112 73.4556 478.319 69.852L474.584 66.5278L470.849 63.2037C466.813 67.7381 463.741 72.8569 461.652 78.534L466.344 80.2607ZM474.584 66.5278L478.317 69.8542C481.496 66.2869 485.428 63.3874 490.183 61.1728L488.073 56.6401L485.962 52.1075C480.057 54.8571 474.996 58.5493 470.851 63.2014L474.584 66.5278ZM488.073 56.6401L490.183 61.1728C494.743 59.0499 500.144 57.917 506.505 57.917V52.917V47.917C498.95 47.917 492.064 49.2662 485.962 52.1075L488.073 56.6401ZM506.505 52.917V57.917C510.323 57.917 513.725 58.522 516.762 59.6695L518.529 54.9922L520.296 50.3148C516.01 48.6954 511.395 47.917 506.505 47.917V52.917ZM518.529 54.9922L516.762 59.6695C519.674 60.7694 521.826 62.3419 523.403 64.3272L527.318 61.2178L531.234 58.1084C528.416 54.5598 524.709 51.9819 520.296 50.3148L518.529 54.9922ZM527.318 61.2178L523.454 64.3902C524.832 66.0697 525.675 68.3254 525.675 71.5327H530.675H535.675C535.675 66.4393 534.28 61.8183 531.183 58.0453L527.318 61.2178ZM530.675 71.5327L525.683 71.2475L525.561 73.3837L530.553 73.6689L535.545 73.9542L535.667 71.818L530.675 71.5327ZM530.553 73.6689L525.586 73.1012C525.333 75.3086 524.729 76.7629 524.019 77.7312L528.051 80.688L532.083 83.6448C534.058 80.951 535.122 77.7259 535.521 74.2367L530.553 73.6689ZM528.051 80.688L524.007 77.7471C523.189 78.8719 522.257 79.613 521.189 80.0902L523.229 84.6553L525.269 89.2203C528.026 87.9885 530.308 86.0848 532.094 83.6288L528.051 80.688ZM523.229 84.6553L521.153 80.1068C519.911 80.6735 518.685 80.937 517.431 80.937V85.937V90.937C520.164 90.937 522.803 90.346 525.305 89.2037L523.229 84.6553ZM517.431 85.937V80.937C515.339 80.937 513.77 80.286 512.419 78.982L508.947 82.5801L505.475 86.1782C508.762 89.3501 512.85 90.937 517.431 90.937V85.937ZM508.947 82.5801L512.774 79.3621C509.523 75.4966 505.434 72.209 500.524 72.209V77.209V82.209C500.822 82.209 502.348 82.5021 505.12 85.7981L508.947 82.5801ZM500.524 77.209L500.135 72.2241C495.315 72.5997 491.489 75.0807 488.99 79.1869L493.261 81.7866L497.532 84.3864C498.45 82.8773 499.466 82.3066 500.912 82.1939L500.524 77.209ZM493.261 81.7866L488.962 79.2325C486.802 82.8683 485.758 86.9154 485.758 91.2471H490.758H495.758C495.758 88.58 496.383 86.3202 497.559 84.3408L493.261 81.7866ZM490.758 91.2471H485.758C485.758 95.9093 486.992 100.197 489.603 103.896L493.688 101.013L497.773 98.1293C496.478 96.2944 495.758 94.0718 495.758 91.2471H490.758ZM493.688 101.013L489.623 103.925C492.676 108.185 497.325 110.143 502.598 110.401L502.843 105.407L503.088 100.413C500.061 100.265 498.607 99.2929 497.753 98.1008L493.688 101.013ZM502.843 105.407V110.407C507.442 110.407 511.567 108.467 515.134 105.302L511.815 101.562L508.497 97.8221C506.286 99.7835 504.43 100.407 502.843 100.407V105.407ZM511.815 101.562L515.306 105.141C518.151 102.367 520.116 101.74 521.276 101.74V96.7402V91.7402C516.414 91.7402 512.072 94.328 508.324 97.9826L511.815 101.562ZM521.276 96.7402V101.74C522.313 101.74 523.379 102.087 524.594 104.156L528.905 101.623L533.216 99.0903C530.607 94.6485 526.586 91.7402 521.276 91.7402V96.7402ZM528.905 101.623L524.618 104.196C526.015 106.524 526.835 109.519 526.835 113.403H531.835H536.835C536.835 108.09 535.702 103.232 533.193 99.0506L528.905 101.623ZM531.835 113.403L526.835 113.352C526.808 116.037 525.905 118.182 524.027 120.06L527.562 123.596L531.098 127.131C534.835 123.394 536.781 118.743 536.835 113.454L531.835 113.403ZM527.562 123.596L524.054 120.034C521.947 122.109 519.104 123.853 515.356 125.162L517.003 129.882L518.651 134.603C523.529 132.9 527.726 130.453 531.071 127.158L527.562 123.596ZM517.003 129.882L515.356 125.162C511.601 126.472 507.436 127.19 502.824 127.263L502.904 132.263L502.984 137.262C508.545 137.173 513.78 136.303 518.651 134.603L517.003 129.882ZM554.856 130.493V135.493H554.917L554.977 135.491L554.856 130.493ZM541.978 127.075L538.71 130.859L538.74 130.885L538.771 130.911L541.978 127.075ZM537.583 115.661L542.578 115.431L542.578 115.42L542.577 115.409L537.583 115.661ZM536.668 101.379L541.654 101.01L541.653 100.992L541.652 100.975L536.668 101.379ZM535.142 73.791H530.142V73.852L530.144 73.9129L535.142 73.791ZM538.011 62.6826L533.738 60.0863L533.726 60.1062L533.714 60.1262L538.011 62.6826ZM546.617 56.2739L545.404 51.4232L545.337 51.44L545.27 51.4586L546.617 56.2739ZM572.312 54.1377L572.353 49.1379L572.333 49.1377H572.312V54.1377ZM579.759 54.1987L579.884 49.2003L579.842 49.1992L579.8 49.1989L579.759 54.1987ZM582.2 54.2598L582.454 49.2662L582.39 49.2629L582.325 49.2613L582.2 54.2598ZM587.449 71.2275L592.074 73.1271L592.08 73.1128L592.086 73.0985L587.449 71.2275ZM584.031 74.9507L584.378 79.9387L584.58 79.9246L584.78 79.8943L584.031 74.9507ZM571.092 75.1948L571.277 70.1982L571.264 70.1978L571.092 75.1948ZM569.322 75.1338L569.494 70.1368L569.408 70.1338H569.322V75.1338ZM566.697 76.1714L570.46 79.4639L570.509 79.4076L570.557 79.3499L566.697 76.1714ZM566.758 81.0542L562.758 84.0542L562.805 84.1167L562.854 84.1777L566.758 81.0542ZM574.449 82.0918L574.901 87.0713L574.912 87.0703L574.923 87.0693L574.449 82.0918ZM577.256 81.9087V76.9087H577.156L577.057 76.9127L577.256 81.9087ZM580.979 84.5942L576.507 86.8303L576.528 86.8706L576.548 86.9105L580.979 84.5942ZM581.224 95.0312L576.859 92.5921L576.846 92.6145L576.834 92.637L581.224 95.0312ZM577.623 97.2896L578.001 102.275L578.055 102.271L578.108 102.266L577.623 97.2896ZM565.538 98.9985L561.581 95.9413L561.537 95.9989L561.494 96.0577L565.538 98.9985ZM565.293 103.942L561.293 106.942L561.34 107.005L561.389 107.066L565.293 103.942ZM567.674 105.102L566.941 110.048L567.07 110.067L567.2 110.08L567.674 105.102ZM581.041 106.323L577.278 109.615L577.312 109.655L577.348 109.694L581.041 106.323ZM582.872 110.107L578 111.231L578.017 111.306L578.036 111.379L582.872 110.107ZM582.017 124.267L577.28 122.666L582.017 124.267ZM578.416 129.089L579.027 134.051L579.281 134.02L579.53 133.963L578.416 129.089ZM554.856 130.493V125.493H553.758V130.493V135.493H554.856V130.493ZM553.758 130.493V125.493C549.295 125.493 546.687 124.494 545.185 123.238L541.978 127.075L538.771 130.911C542.722 134.213 547.966 135.493 553.758 135.493V130.493ZM541.978 127.075L545.246 123.291C544.019 122.23 542.79 120.023 542.578 115.431L537.583 115.661L532.589 115.892C532.865 121.879 534.566 127.28 538.71 130.859L541.978 127.075ZM537.583 115.661L542.577 115.409C542.371 111.33 542.063 106.529 541.654 101.01L536.668 101.379L531.682 101.748C532.087 107.215 532.389 111.935 532.59 115.913L537.583 115.661ZM536.668 101.379L541.652 100.975C540.844 91.0001 540.341 81.8997 540.141 73.6691L535.142 73.791L530.144 73.9129C530.35 82.3653 530.864 91.6568 531.684 101.782L536.668 101.379ZM535.142 73.791H540.142C540.142 70.3887 540.909 67.59 542.308 65.2391L538.011 62.6826L533.714 60.1262C531.288 64.2042 530.142 68.8111 530.142 73.791H535.142ZM538.011 62.6826L542.284 65.2789C543.546 63.2009 545.34 61.8225 547.963 61.0893L546.617 56.2739L545.27 51.4586C540.325 52.8413 536.381 55.7353 533.738 60.0863L538.011 62.6826ZM546.617 56.2739L547.829 61.1246C552.913 59.8537 560.979 59.1377 572.312 59.1377V54.1377V49.1377C560.778 49.1377 551.714 49.8458 545.404 51.4232L546.617 56.2739ZM572.312 54.1377L572.272 59.1375L579.718 59.1986L579.759 54.1987L579.8 49.1989L572.353 49.1379L572.312 54.1377ZM579.759 54.1987L579.634 59.1972L582.075 59.2582L582.2 54.2598L582.325 49.2613L579.884 49.2003L579.759 54.1987ZM582.2 54.2598L581.946 59.2533C582.518 59.2824 582.732 59.3998 582.763 59.4179C582.783 59.4292 582.795 59.4387 582.81 59.4551C582.827 59.4733 582.873 59.5253 582.934 59.6381L587.327 57.2505L591.72 54.8629C589.752 51.2407 586.328 49.4632 582.454 49.2662L582.2 54.2598ZM587.327 57.2505L582.934 59.6381C583.498 60.6761 583.853 61.9898 583.853 63.7202H588.853H593.853C593.853 60.5678 593.191 57.5684 591.72 54.8629L587.327 57.2505ZM588.853 63.7202H583.853C583.853 65.8123 583.491 67.6746 582.812 69.3566L587.449 71.2275L592.086 73.0985C593.279 70.1419 593.853 66.9992 593.853 63.7202H588.853ZM587.449 71.2275L582.824 69.3279C582.663 69.7203 582.519 70.0047 582.402 70.2025C582.345 70.2999 582.298 70.3699 582.263 70.4173C582.246 70.4408 582.233 70.4578 582.224 70.4692C582.219 70.4749 582.216 70.4791 582.213 70.4818C582.212 70.4832 582.211 70.4843 582.21 70.4849C582.21 70.4856 582.21 70.486 582.21 70.486C582.21 70.486 582.21 70.4856 582.211 70.4849C582.211 70.4843 582.212 70.4833 582.213 70.482C582.216 70.4793 582.22 70.4754 582.225 70.4704C582.236 70.4602 582.252 70.4453 582.275 70.4268C582.32 70.3896 582.389 70.3379 582.485 70.2821C582.688 70.1643 582.96 70.0559 583.282 70.0071L584.031 74.9507L584.78 79.8943C588.909 79.2687 591.009 75.7206 592.074 73.1271L587.449 71.2275ZM584.031 74.9507L583.685 69.9627C580.883 70.1572 577.887 70.2559 574.693 70.2559V75.2559V80.2559C578.091 80.2559 581.32 80.151 584.378 79.9387L584.031 74.9507ZM574.693 75.2559V70.2559C573.442 70.2559 572.304 70.2363 571.277 70.1982L571.092 75.1948L570.907 80.1914C572.077 80.2347 573.34 80.2559 574.693 80.2559V75.2559ZM571.092 75.1948L571.264 70.1978L569.494 70.1368L569.322 75.1338L569.149 80.1308L570.919 80.1919L571.092 75.1948ZM569.322 75.1338V70.1338C567.155 70.1338 564.638 70.8064 562.838 72.9929L566.697 76.1714L570.557 79.3499C570.276 79.6907 569.928 79.9207 569.619 80.043C569.343 80.152 569.207 80.1338 569.322 80.1338V75.1338ZM566.697 76.1714L562.934 72.8789C561.578 74.4289 560.843 76.3476 560.843 78.4297H565.843H570.843C570.843 78.5693 570.817 78.7705 570.733 78.9937C570.649 79.216 570.539 79.3741 570.46 79.4639L566.697 76.1714ZM565.843 78.4297H560.843C560.843 80.543 561.559 82.4546 562.758 84.0542L566.758 81.0542L570.758 78.0542C570.732 78.0186 570.76 78.0478 570.793 78.1409C570.827 78.2383 570.843 78.3427 570.843 78.4297H565.843ZM566.758 81.0542L562.854 84.1777C564.587 86.3443 567.033 87.2749 569.505 87.2749V82.2749V77.2749C569.492 77.2749 569.679 77.274 569.964 77.4007C570.267 77.5355 570.509 77.7388 570.663 77.9307L566.758 81.0542ZM569.505 82.2749V87.2749C571.549 87.2749 573.358 87.2116 574.901 87.0713L574.449 82.0918L573.996 77.1123C572.854 77.2162 571.367 77.2749 569.505 77.2749V82.2749ZM574.449 82.0918L574.923 87.0693C575.671 86.998 576.514 86.9424 577.456 86.9047L577.256 81.9087L577.057 76.9127C575.964 76.9564 574.935 77.0228 573.975 77.1143L574.449 82.0918ZM577.256 81.9087V86.9087C577.177 86.9087 577.04 86.8965 576.873 86.8434C576.703 86.7898 576.559 86.7125 576.452 86.6352C576.247 86.4873 576.314 86.4426 576.507 86.8303L580.979 84.5942L585.452 82.3582C583.974 79.4022 581.263 76.9087 577.256 76.9087V81.9087ZM580.979 84.5942L576.548 86.9105C577.108 87.9807 577.383 89.0978 577.383 90.3315H582.383H587.383C587.383 87.4963 586.723 84.7885 585.411 82.278L580.979 84.5942ZM582.383 90.3315H577.383C577.383 91.3182 577.173 92.0296 576.859 92.5921L581.224 95.0312L585.588 97.4704C586.82 95.2659 587.383 92.8443 587.383 90.3315H582.383ZM581.224 95.0312L576.834 92.637C576.833 92.6389 576.855 92.5983 576.911 92.5378C576.968 92.4758 577.04 92.4158 577.118 92.367C577.284 92.2628 577.34 92.2934 577.137 92.3132L577.623 97.2896L578.108 102.266C581.239 101.96 584.002 100.379 585.613 97.4255L581.224 95.0312ZM577.623 97.2896L577.244 92.3039C574.152 92.5388 571.104 92.6558 568.101 92.6558V97.6558V102.656C571.364 102.656 574.664 102.529 578.001 102.275L577.623 97.2896ZM568.101 97.6558V92.6558C565.347 92.6558 563.098 93.978 561.581 95.9413L565.538 98.9985L569.494 102.056C569.475 102.08 569.329 102.257 569.017 102.421C568.69 102.592 568.355 102.656 568.101 102.656V97.6558ZM565.538 98.9985L561.494 96.0577C560.308 97.6886 559.561 99.6348 559.561 101.806H564.561H569.561C569.561 101.841 569.558 101.88 569.551 101.92C569.544 101.96 569.535 101.992 569.528 102.014C569.511 102.061 569.511 102.036 569.581 101.939L565.538 98.9985ZM564.561 101.806H559.561C559.561 103.72 560.193 105.475 561.293 106.942L565.293 103.942L569.293 100.942C569.338 101.001 569.413 101.121 569.474 101.298C569.536 101.478 569.561 101.656 569.561 101.806H564.561ZM565.293 103.942L561.389 107.066C562.945 109.011 565.118 109.778 566.941 110.048L567.674 105.102L568.407 100.156C568.239 100.131 568.281 100.115 568.445 100.195C568.628 100.284 568.923 100.475 569.198 100.819L565.293 103.942ZM567.674 105.102L567.2 110.08C568.203 110.175 569.196 110.224 570.176 110.224V105.224V100.224C569.529 100.224 568.853 100.192 568.148 100.125L567.674 105.102ZM570.176 105.224V110.224C571.599 110.224 573.006 110.155 574.397 110.016L573.899 105.041L573.402 100.066C572.351 100.171 571.276 100.224 570.176 100.224V105.224ZM573.899 105.041L574.397 110.016C575.443 109.912 576.538 109.858 577.684 109.858V104.858V99.8579C576.225 99.8579 574.798 99.9263 573.402 100.066L573.899 105.041ZM577.684 104.858V109.858C577.779 109.858 577.711 109.872 577.561 109.807C577.491 109.776 577.425 109.738 577.37 109.697C577.315 109.656 577.285 109.624 577.278 109.615L581.041 106.323L584.803 103.03C582.931 100.89 580.401 99.8579 577.684 99.8579V104.858ZM581.041 106.323L577.348 109.694C577.48 109.839 577.773 110.249 578 111.231L582.872 110.107L587.744 108.983C587.238 106.791 586.31 104.679 584.733 102.951L581.041 106.323ZM582.872 110.107L578.036 111.379C578.322 112.464 578.482 113.7 578.482 115.112H583.482H588.482C588.482 112.943 588.235 110.842 587.707 108.834L582.872 110.107ZM583.482 115.112H578.482C578.482 117.811 578.073 120.32 577.28 122.666L582.017 124.267L586.754 125.868C587.914 122.436 588.482 118.841 588.482 115.112H583.482ZM582.017 124.267L577.28 122.666C576.883 123.843 576.544 124.425 576.378 124.647C576.224 124.855 576.489 124.4 577.302 124.215L578.416 129.089L579.53 133.963C581.767 133.452 583.345 132.031 584.391 130.631C585.425 129.246 586.175 127.58 586.754 125.868L582.017 124.267ZM578.416 129.089L577.805 124.126C572.431 124.788 564.768 125.251 554.736 125.494L554.856 130.493L554.977 135.491C565.127 135.246 573.17 134.773 579.027 134.051L578.416 129.089ZM604.184 132.751L602.804 137.557L602.942 137.596L603.083 137.628L604.184 132.751ZM595.822 126.037L591.372 128.315L591.377 128.326L591.383 128.337L595.822 126.037ZM592.709 115.295L597.691 114.862L597.686 114.804L597.679 114.746L592.709 115.295ZM592.282 65.063L587.602 63.3023L587.569 63.3915L587.539 63.4818L592.282 65.063ZM649.594 61.4009L652.866 57.6196L649.594 61.4009ZM655.515 74.2793H660.515V74.1302L660.506 73.9813L655.515 74.2793ZM651.608 85.0215L647.614 82.014L647.608 82.0215L651.608 85.0215ZM641.232 93.9937L643.614 98.3901L643.692 98.3476L643.769 98.3023L641.232 93.9937ZM641.354 96.1299L640.055 100.958L640.084 100.966L640.114 100.974L641.354 96.1299ZM649.411 99.9751L646.195 103.804L646.218 103.823L646.241 103.841L649.411 99.9751ZM653.806 105.712L649.188 107.629L649.203 107.666L649.219 107.703L653.806 105.712ZM651.669 122.558L647.865 119.313L647.851 119.33L647.838 119.346L651.669 122.558ZM642.514 129.272L644.549 133.839L644.561 133.834L644.572 133.829L642.514 129.272ZM630.185 132.934L631 137.867L631.018 137.864L631.036 137.861L630.185 132.934ZM617.124 84.8994L612.183 85.6679L612.856 89.9977L617.237 89.8981L617.124 84.8994ZM625.791 83.9229L627.045 88.7628L627.076 88.7549L627.106 88.7467L625.791 83.9229ZM629.575 75.1338L626.846 79.3238L626.881 79.3463L626.916 79.3682L629.575 75.1338ZM616.94 74.2793L615.617 69.4577L612.282 70.3731L611.962 73.8162L616.94 74.2793ZM621.274 116.394L621.047 121.388L621.16 121.394H621.274V116.394ZM627.622 114.746L624.512 110.83L624.484 110.853L624.455 110.876L627.622 114.746ZM619.565 107.299L618.104 102.518L615.218 103.399L614.653 106.364L619.565 107.299ZM619.931 116.333L615.204 117.962L616.311 121.173L619.704 121.327L619.931 116.333ZM617.307 134.033V129.033C612.616 129.033 608.624 128.628 605.285 127.874L604.184 132.751L603.083 137.628C607.312 138.583 612.069 139.033 617.307 139.033V134.033ZM604.184 132.751L605.564 127.945C602.992 127.206 601.347 125.832 600.262 123.737L595.822 126.037L591.383 128.337C593.797 132.997 597.727 136.098 602.804 137.557L604.184 132.751ZM595.822 126.037L600.273 123.759C598.811 120.903 597.959 117.947 597.691 114.862L592.709 115.295L587.728 115.728C588.111 120.129 589.334 124.335 591.372 128.315L595.822 126.037ZM592.709 115.295L597.679 114.746C596.311 102.35 595.634 91.3075 595.634 81.6035H590.634H585.634C585.634 91.7563 586.341 103.175 587.74 115.844L592.709 115.295ZM590.634 81.6035H595.634C595.634 73.9154 596.203 69.1108 597.026 66.6441L592.282 65.063L587.539 63.4818C586.164 67.607 585.634 73.8294 585.634 81.6035H590.634ZM592.282 65.063L596.962 66.8237C597.891 64.3558 599.96 62.1515 604.136 60.4941L602.292 55.8467L600.448 51.1992C594.37 53.6109 589.766 57.5508 587.602 63.3023L592.282 65.063ZM602.292 55.8467L604.136 60.4941C608.551 58.7422 613.902 57.7949 620.297 57.7949V52.7949V47.7949C612.94 47.7949 606.287 48.8821 600.448 51.1992L602.292 55.8467ZM620.297 52.7949V57.7949C625.042 57.7949 629.915 58.3923 634.927 59.6073L636.105 54.748L637.283 49.8888C631.553 48.4997 625.888 47.7949 620.297 47.7949V52.7949ZM636.105 54.748L634.927 59.6073C639.645 60.7508 643.39 62.6449 646.323 65.1821L649.594 61.4009L652.866 57.6196C648.555 53.8906 643.309 51.3494 637.283 49.8888L636.105 54.748ZM649.594 61.4009L646.323 65.1821C648.778 67.3067 650.266 70.2637 650.524 74.5773L655.515 74.2793L660.506 73.9813C660.112 67.39 657.653 61.7614 652.866 57.6196L649.594 61.4009ZM655.515 74.2793H650.515C650.515 76.7209 649.68 79.27 647.614 82.014L651.608 85.0215L655.603 88.029C658.745 83.8557 660.515 79.2433 660.515 74.2793H655.515ZM651.608 85.0215L647.608 82.0215C645.507 84.8236 642.582 87.3966 638.696 89.685L641.232 93.9937L643.769 98.3023C648.59 95.4637 652.583 92.0553 655.608 88.0215L651.608 85.0215ZM641.232 93.9937L638.851 89.5972C638.232 89.9325 637.493 90.3775 636.841 90.9479C636.468 91.2748 634.768 92.7607 634.768 95.2754H639.768H644.768C644.768 96.4606 644.326 97.313 644.054 97.7331C643.779 98.1566 643.511 98.3993 643.426 98.4737C643.263 98.6169 643.256 98.5838 643.614 98.3901L641.232 93.9937ZM639.768 95.2754H634.768C634.768 97.0082 635.595 98.2369 636.203 98.8913C636.788 99.5215 637.412 99.8996 637.794 100.105C638.568 100.522 639.405 100.783 640.055 100.958L641.354 96.1299L642.654 91.3018C642.246 91.192 642.289 91.1681 642.535 91.3003C642.652 91.3633 643.078 91.5989 643.531 92.0868C644.006 92.5987 644.768 93.685 644.768 95.2754H639.768ZM641.354 96.1299L640.114 100.974C642.932 101.695 644.879 102.698 646.195 103.804L649.411 99.9751L652.627 96.1466C649.875 93.8345 646.451 92.2736 642.595 91.2862L641.354 96.1299ZM649.411 99.9751L646.241 103.841C647.721 105.056 648.646 106.323 649.188 107.629L653.806 105.712L658.424 103.796C657.175 100.788 655.17 98.2311 652.582 96.1088L649.411 99.9751ZM653.806 105.712L649.219 107.703C649.891 109.252 650.209 110.793 650.209 112.365H655.209H660.209C660.209 109.38 659.592 106.486 658.392 103.722L653.806 105.712ZM655.209 112.365H650.209C650.209 115.341 649.369 117.551 647.865 119.313L651.669 122.558L655.474 125.803C658.69 122.032 660.209 117.446 660.209 112.365H655.209ZM651.669 122.558L647.838 119.346C646.069 121.457 643.658 123.269 640.456 124.715L642.514 129.272L644.572 133.829C648.938 131.857 652.632 129.194 655.501 125.77L651.669 122.558ZM642.514 129.272L640.479 124.705C637.152 126.188 633.445 127.297 629.334 128.007L630.185 132.934L631.036 137.861C635.877 137.025 640.389 135.693 644.549 133.839L642.514 129.272ZM630.185 132.934L629.37 128.001C625.182 128.692 621.163 129.033 617.307 129.033V134.033V139.033C621.751 139.033 626.317 138.641 631 137.867L630.185 132.934ZM617.124 84.8994L617.237 89.8981C621.009 89.8124 624.325 89.4681 627.045 88.7628L625.791 83.9229L624.536 79.0829C622.861 79.5169 620.399 79.8237 617.01 79.9007L617.124 84.8994ZM625.791 83.9229L627.106 88.7467C629.626 88.0594 632.116 87.0554 633.977 85.4181L630.673 81.6646L627.37 77.911C627.196 78.0641 626.431 78.5656 624.475 79.099L625.791 83.9229ZM630.673 81.6646L633.977 85.4181C635.638 83.9561 637.199 81.7624 637.199 78.8569H632.199H627.199C627.199 78.437 627.318 78.1004 627.425 77.9037C627.515 77.737 627.553 77.7504 627.37 77.911L630.673 81.6646ZM632.199 78.8569H637.199C637.199 75.0065 634.669 72.4288 632.234 70.8993L629.575 75.1338L626.916 79.3682C627.157 79.5195 627.308 79.6389 627.396 79.7167C627.483 79.7941 627.489 79.8153 627.456 79.7693C627.421 79.7194 627.351 79.6049 627.292 79.4272C627.231 79.2453 627.199 79.0484 627.199 78.8569H632.199ZM629.575 75.1338L632.303 70.9438C629.496 69.1159 626.153 68.4248 622.678 68.4248V73.4248V78.4248C624.899 78.4248 626.154 78.8731 626.846 79.3238L629.575 75.1338ZM622.678 73.4248V68.4248C620.392 68.4248 618.029 68.7956 615.617 69.4577L616.94 74.2793L618.264 79.1009C620.003 78.6236 621.464 78.4248 622.678 78.4248V73.4248ZM616.94 74.2793L611.962 73.8162C611.785 75.7191 611.696 77.6234 611.696 79.5283H616.696H621.696C621.696 77.9339 621.77 76.3388 621.919 74.7424L616.94 74.2793ZM616.696 79.5283H611.696C611.696 81.5499 611.861 83.5975 612.183 85.6679L617.124 84.8994L622.064 84.1309C621.817 82.5392 621.696 81.006 621.696 79.5283H616.696ZM621.274 116.394V121.394C624.611 121.394 628.126 120.793 630.788 118.615L627.622 114.746L624.455 110.876C624.469 110.865 624.306 111.003 623.771 111.142C623.231 111.282 622.422 111.394 621.274 111.394V116.394ZM627.622 114.746L630.731 118.661C632.805 117.015 634.697 114.537 634.697 111.206H629.697H624.697C624.697 111.057 624.718 110.909 624.756 110.773C624.794 110.64 624.84 110.551 624.865 110.508C624.907 110.435 624.855 110.558 624.512 110.83L627.622 114.746ZM629.697 111.206H634.697C634.697 108.311 633.323 105.967 631.423 104.287L628.11 108.032L624.797 111.777C624.938 111.901 624.899 111.906 624.828 111.763C624.792 111.692 624.757 111.6 624.732 111.494C624.706 111.387 624.697 111.288 624.697 111.206H629.697ZM628.11 108.032L631.423 104.287C629.136 102.263 626.247 101.628 623.532 101.628V106.628V111.628C624.805 111.628 624.968 111.928 624.797 111.777L628.11 108.032ZM623.532 106.628V101.628C621.735 101.628 619.909 101.966 618.104 102.518L619.565 107.299L621.026 112.081C622.15 111.738 622.969 111.628 623.532 111.628V106.628ZM619.565 107.299L614.653 106.364C614.403 107.676 614.321 109.242 614.321 110.9H619.321H624.321C624.321 109.466 624.401 108.632 624.477 108.235L619.565 107.299ZM619.321 110.9H614.321C614.321 113.472 614.517 115.968 615.204 117.962L619.931 116.333L624.658 114.703C624.532 114.337 624.321 113.212 624.321 110.9H619.321ZM619.931 116.333L619.704 121.327L621.047 121.388L621.274 116.394L621.501 111.399L620.158 111.338L619.931 116.333ZM702.157 128.784L697.342 130.132L697.367 130.222L697.396 130.311L702.157 128.784ZM699.044 114.562L703.971 113.71L703.968 113.697L699.044 114.562ZM697.152 105.224L702.012 104.048L701.985 103.939L701.954 103.83L697.152 105.224ZM689.339 102.417L692.195 106.521L692.254 106.48L692.311 106.437L689.339 102.417ZM687.264 105.529L682.494 104.03L687.264 105.529ZM685.799 110.717L690.626 112.021L690.633 111.998L690.638 111.975L685.799 110.717ZM681.222 125.549L685.753 127.663L685.807 127.547L685.855 127.429L681.222 125.549ZM677.987 128.356L679.823 133.007L679.854 132.995L679.885 132.982L677.987 128.356ZM665.597 128.051L663.894 132.753L663.943 132.77L663.991 132.787L665.597 128.051ZM657.296 117.736L652.301 117.509L652.296 117.623V117.736H657.296ZM657.357 116.394L652.398 115.754L652.372 115.959L652.362 116.167L657.357 116.394ZM670.357 65.9175L665.898 63.6563L665.819 63.8119L665.751 63.9726L670.357 65.9175ZM679.391 59.1426L681.072 63.8513L681.084 63.8471L681.096 63.8428L679.391 59.1426ZM706.673 58.8984L704.842 63.551L704.872 63.5627L704.902 63.574L706.673 58.8984ZM714.425 65.9175L719.129 64.2239L719.096 64.1314L719.059 64.0403L714.425 65.9175ZM722.909 95.0312L718.049 96.2067L718.05 96.2108L722.909 95.0312ZM728.219 122.985H733.219V122.711L733.189 122.439L728.219 122.985ZM725.045 127.38L722.366 123.158L722.347 123.17L722.329 123.182L725.045 127.38ZM717.477 130.737L718.859 135.542L718.889 135.533L718.919 135.524L717.477 130.737ZM691.659 88.5005V93.5005H691.796L691.934 93.4929L691.659 88.5005ZM698.312 85.4487H703.312V84.8999L703.192 84.3641L698.312 85.4487ZM698.189 84.8994L703.07 83.8148L703.024 83.604L702.959 83.398L698.189 84.8994ZM689.645 80.5049L685.591 77.5774L685.564 77.6149L685.538 77.6529L689.645 80.5049ZM687.447 86.1201L682.541 85.1564L682.447 85.6337V86.1201H687.447ZM688.424 87.9512L685.774 92.1912L685.926 92.2862L686.084 92.3701L688.424 87.9512ZM709.176 132.019V127.019C707.548 127.019 706.776 126.785 706.523 126.669C706.43 126.626 706.505 126.644 706.633 126.78C706.772 126.928 706.87 127.106 706.918 127.257L702.157 128.784L697.396 130.311C699.18 135.874 704.863 137.019 709.176 137.019V132.019ZM702.157 128.784L706.972 127.436C705.889 123.57 704.886 119.002 703.971 113.71L699.044 114.562L694.117 115.415C695.074 120.947 696.146 125.86 697.342 130.132L702.157 128.784ZM699.044 114.562L703.968 113.697C703.306 109.932 702.655 106.708 702.012 104.048L697.152 105.224L692.292 106.4C692.869 108.786 693.479 111.788 694.12 115.428L699.044 114.562ZM697.152 105.224L701.954 103.83C701.338 101.71 700.152 99.731 698.201 98.3118L695.26 102.355L692.319 106.399C692.296 106.383 692.274 106.363 692.255 106.344C692.237 106.324 692.229 106.312 692.23 106.314C692.232 106.317 692.287 106.4 692.35 106.618L697.152 105.224ZM695.26 102.355L698.201 98.3118C696.493 97.0699 694.496 96.3789 692.33 96.3789V101.379V106.379C692.334 106.379 692.335 106.379 692.332 106.379C692.33 106.379 692.325 106.378 692.318 106.377C692.312 106.376 692.304 106.375 692.297 106.373C692.289 106.371 692.281 106.369 692.275 106.366C692.268 106.364 692.263 106.362 692.261 106.361C692.258 106.36 692.258 106.36 692.26 106.361C692.265 106.364 692.285 106.374 692.319 106.399L695.26 102.355ZM692.33 101.379V96.3789C690.095 96.3789 688.073 97.135 686.367 98.3956L689.339 102.417L692.311 106.437C692.364 106.398 692.4 106.378 692.418 106.368C692.435 106.358 692.438 106.358 692.428 106.362C692.417 106.366 692.4 106.371 692.378 106.374C692.356 106.378 692.339 106.379 692.33 106.379V101.379ZM689.339 102.417L686.484 98.312C684.392 99.7671 683.171 101.877 682.494 104.03L687.264 105.529L692.034 107.028C692.143 106.682 692.241 106.513 692.279 106.456C692.31 106.41 692.288 106.456 692.195 106.521L689.339 102.417ZM687.264 105.529L682.494 104.03C682.014 105.559 681.502 107.373 680.96 109.459L685.799 110.717L690.638 111.975C691.154 109.992 691.619 108.348 692.034 107.028L687.264 105.529ZM685.799 110.717L680.972 109.413C679.06 116.495 677.601 121.173 676.589 123.669L681.222 125.549L685.855 127.429C687.121 124.309 688.714 119.1 690.626 112.021L685.799 110.717ZM681.222 125.549L676.691 123.434C676.72 123.371 676.75 123.354 676.708 123.39C676.653 123.438 676.478 123.571 676.089 123.731L677.987 128.356L679.885 132.982C682.304 131.99 684.518 130.308 685.753 127.663L681.222 125.549ZM677.987 128.356L676.151 123.706C675.293 124.044 674.164 124.272 672.677 124.272V129.272V134.272C675.177 134.272 677.588 133.889 679.823 133.007L677.987 128.356ZM672.677 129.272V124.272C670.952 124.272 669.133 123.971 667.202 123.316L665.597 128.051L663.991 132.787C666.861 133.759 669.763 134.272 672.677 134.272V129.272ZM665.597 128.051L667.299 123.35C665.628 122.745 664.345 121.886 663.34 120.804L659.676 124.206L656.012 127.608C658.181 129.944 660.845 131.648 663.894 132.753L665.597 128.051ZM659.676 124.206L663.34 120.804C662.715 120.13 662.296 119.238 662.296 117.736H657.296H652.296C652.296 121.443 653.464 124.864 656.012 127.608L659.676 124.206ZM657.296 117.736L662.291 117.963L662.352 116.621L657.357 116.394L652.362 116.167L652.301 117.509L657.296 117.736ZM657.357 116.394L662.316 117.033C663.257 109.738 665.037 101.024 667.688 90.8612L662.85 89.5991L658.012 88.337C655.292 98.7631 653.41 107.912 652.398 115.754L657.357 116.394ZM662.85 89.5991L667.688 90.8612C670.352 80.6493 672.783 73.0261 674.964 67.8623L670.357 65.9175L665.751 63.9726C663.293 69.7952 660.719 77.9598 658.012 88.337L662.85 89.5991ZM670.357 65.9175L674.817 68.1786C675.473 66.8848 677.136 65.2573 681.072 63.8513L679.391 59.1426L677.709 54.4339C672.531 56.2831 668.172 59.1722 665.898 63.6563L670.357 65.9175ZM679.391 59.1426L681.096 63.8428C685.117 62.3838 689.42 61.6401 694.039 61.6401V56.6401V51.6401C688.323 51.6401 682.86 52.5647 677.685 54.4424L679.391 59.1426ZM694.039 56.6401V61.6401C698.084 61.6401 701.666 62.3007 704.842 63.551L706.673 58.8984L708.505 54.2459C704.031 52.4851 699.19 51.6401 694.039 51.6401V56.6401ZM706.673 58.8984L704.902 63.574C707.736 64.6482 709.111 66.1173 709.791 67.7946L714.425 65.9175L719.059 64.0403C717.134 59.2887 713.342 56.0784 708.445 54.2229L706.673 58.8984ZM714.425 65.9175L709.72 67.6111C712.572 75.5334 715.352 85.0561 718.049 96.2067L722.909 95.0312L727.769 93.8558C725.013 82.4641 722.137 72.5776 719.129 64.2239L714.425 65.9175ZM722.909 95.0312L718.05 96.2108C720.75 107.333 722.467 116.422 723.249 123.532L728.219 122.985L733.189 122.439C732.343 114.738 730.52 105.191 727.768 93.8517L722.909 95.0312ZM728.219 122.985H723.219V123.229H728.219H733.219V122.985H728.219ZM728.219 123.229H723.219C723.219 122.952 723.273 122.709 723.342 122.527C723.407 122.354 723.468 122.279 723.453 122.298C723.437 122.319 723.359 122.414 723.176 122.572C722.993 122.729 722.73 122.927 722.366 123.158L725.045 127.38L727.724 131.602C730.193 130.035 733.219 127.348 733.219 123.229H728.219ZM725.045 127.38L722.329 123.182C720.734 124.214 718.663 125.157 716.034 125.949L717.477 130.737L718.919 135.524C722.231 134.526 725.206 133.231 727.761 131.578L725.045 127.38ZM717.477 130.737L716.094 125.932C713.484 126.683 711.187 127.019 709.176 127.019V132.019V137.019C712.291 137.019 715.528 136.5 718.859 135.542L717.477 130.737ZM691.659 88.5005L691.934 93.4929C694.349 93.3599 696.764 93.0024 698.733 92.0991C700.859 91.124 703.312 89.0152 703.312 85.4487H698.312H693.312C693.312 84.7726 693.552 84.0798 693.972 83.5474C694.33 83.0941 694.648 82.9712 694.564 83.0098C694.488 83.0443 694.213 83.1509 693.638 83.2599C693.078 83.3661 692.336 83.4556 691.384 83.508L691.659 88.5005ZM698.312 85.4487L703.192 84.3641L703.07 83.8148L698.189 84.8994L693.309 85.9841L693.431 86.5334L698.312 85.4487ZM698.189 84.8994L702.959 83.398C702.188 80.9482 701.187 78.6459 699.784 76.8632C698.324 75.0083 696.064 73.3076 693.001 73.3076V78.3076V83.3076C692.59 83.3076 692.231 83.1871 691.992 83.0494C691.79 82.9324 691.784 82.8675 691.926 83.0479C692.252 83.4625 692.808 84.4561 693.42 86.4008L698.189 84.8994ZM693.001 78.3076V73.3076C689.501 73.3076 687.072 75.5265 685.591 77.5774L689.645 80.5049L693.698 83.4323C693.987 83.0324 694.112 82.977 694.016 83.0404C693.957 83.0787 693.833 83.1492 693.646 83.209C693.453 83.2703 693.233 83.3076 693.001 83.3076V78.3076ZM689.645 80.5049L685.538 77.6529C684.027 79.8288 683.083 82.3956 682.541 85.1564L687.447 86.1201L692.354 87.0838C692.706 85.2873 693.228 84.1106 693.751 83.3569L689.645 80.5049ZM687.447 86.1201H682.447V86.4253H687.447H692.447V86.1201H687.447ZM687.447 86.4253H682.447C682.447 89.2136 684.093 91.1403 685.774 92.1912L688.424 87.9512L691.074 83.7112C691.212 83.7974 691.573 84.0538 691.903 84.5693C692.261 85.1287 692.447 85.786 692.447 86.4253H687.447ZM688.424 87.9512L686.084 92.3701C687.884 93.3229 689.973 93.5005 691.659 93.5005V88.5005V83.5005C691.119 83.5005 690.776 83.4656 690.588 83.4337C690.382 83.3987 690.493 83.3891 690.763 83.5322L688.424 87.9512ZM776.204 136.474L772.668 140.01L772.797 140.139L772.935 140.258L776.204 136.474ZM766.072 123.901L770.237 121.135L770.199 121.078L770.159 121.021L766.072 123.901ZM762.471 118.957L766.458 115.94L766.408 115.875L766.357 115.811L762.471 118.957ZM759.907 120.117H754.907V120.152L754.908 120.187L759.907 120.117ZM759.968 124.45H764.968V124.415L764.968 124.38L759.968 124.45ZM758.381 132.324L762.542 135.097L762.644 134.944L762.734 134.784L758.381 132.324ZM752.522 136.108L754.041 140.872L754.062 140.865L754.083 140.858L752.522 136.108ZM735.554 134.887L731.554 137.887L731.658 138.025L731.77 138.155L735.554 134.887ZM731.343 121.826L726.386 122.482L726.388 122.501L726.391 122.519L731.343 121.826ZM731.221 80.1997L736.193 80.7293L736.193 80.7262L731.221 80.1997ZM734.089 64.6968L729.451 62.8301L729.404 62.9465L729.363 63.0651L734.089 64.6968ZM740.62 57.0063L738.09 52.6937L738.077 52.7012L738.065 52.7087L740.62 57.0063ZM750.874 53.3442L750.035 48.4151L750.026 48.4166L750.874 53.3442ZM779.988 56.1519L777.708 60.6017L777.722 60.6092L777.737 60.6166L779.988 56.1519ZM791.096 65.9785L786.828 68.5823L786.837 68.5978L786.847 68.6132L791.096 65.9785ZM791.646 91.6133L787.2 89.3256L787.199 89.3275L791.646 91.6133ZM781.453 103.149L784.169 107.347L784.29 107.268L784.406 107.183L781.453 103.149ZM781.27 104.675L783.382 100.143L783.171 100.045L782.951 99.9661L781.27 104.675ZM795.857 116.699L799.959 113.84L799.946 113.821L799.932 113.802L795.857 116.699ZM794.209 128.662L790.293 125.553L790.286 125.561L794.209 128.662ZM787.068 135.07L789.695 139.324L789.718 139.31L789.74 139.296L787.068 135.07ZM756.062 87.1577L751.065 87.3362L751.252 92.5714L756.473 92.1408L756.062 87.1577ZM764.424 85.4487L766.66 89.9209L766.704 89.8987L766.748 89.8757L764.424 85.4487ZM763.691 78.8569L761.156 83.1666L761.206 83.1958L761.256 83.2238L763.691 78.8569ZM756.794 77.0259V72.0259H752.975L751.971 75.7103L756.794 77.0259ZM756.184 80.8711L751.208 80.3856L751.202 80.4413L751.198 80.4971L756.184 80.8711ZM756.001 85.4487H751.001V85.538L751.004 85.6272L756.001 85.4487ZM779.561 137.634V132.634C779.465 132.634 779.403 132.627 779.371 132.622C779.34 132.617 779.334 132.613 779.347 132.618C779.361 132.623 779.384 132.632 779.412 132.648C779.439 132.664 779.46 132.68 779.472 132.69L776.204 136.474L772.935 140.258C774.862 141.922 777.191 142.634 779.561 142.634V137.634ZM776.204 136.474L779.739 132.939C776.468 129.668 773.297 125.744 770.237 121.135L766.072 123.901L761.906 126.666C765.276 131.742 768.859 136.201 772.668 140.01L776.204 136.474ZM766.072 123.901L770.159 121.021C768.87 119.191 767.636 117.497 766.458 115.94L762.471 118.957L758.484 121.974C759.584 123.428 760.751 125.03 761.984 126.781L766.072 123.901ZM762.471 118.957L766.357 115.811C765.907 115.256 765.35 114.633 764.697 114.106C764.209 113.712 762.844 112.675 760.884 112.675V117.675V122.675C760.015 122.675 759.37 122.428 759.035 122.268C758.692 122.104 758.482 121.94 758.414 121.885C758.29 121.785 758.342 121.804 758.584 122.103L762.471 118.957ZM760.884 117.675V112.675C759.582 112.675 758.3 113.117 757.256 113.987C756.3 114.783 755.788 115.732 755.509 116.429C754.986 117.735 754.907 119.117 754.907 120.117H759.907H764.907C764.907 119.489 764.991 119.65 764.794 120.143C764.678 120.432 764.369 121.076 763.657 121.669C762.857 122.336 761.86 122.675 760.884 122.675V117.675ZM759.907 120.117L754.908 120.187L754.969 124.521L759.968 124.45L764.968 124.38L764.907 120.046L759.907 120.117ZM759.968 124.45H754.968C754.968 127.412 754.486 129.053 754.029 129.863L758.381 132.324L762.734 134.784C764.392 131.851 764.968 128.243 764.968 124.45H759.968ZM758.381 132.324L754.221 129.55C754.05 129.806 753.317 130.584 750.961 131.358L752.522 136.108L754.083 140.858C757.424 139.76 760.596 138.015 762.542 135.097L758.381 132.324ZM752.522 136.108L751.003 131.344C748.677 132.086 746.34 132.451 743.977 132.451V137.451V142.451C747.392 142.451 750.752 141.92 754.041 140.872L752.522 136.108ZM743.977 137.451V132.451C742.512 132.451 741.291 132.288 740.277 132.014L738.972 136.84L737.668 141.667C739.665 142.207 741.78 142.451 743.977 142.451V137.451ZM738.972 136.84L740.277 132.014C739.432 131.785 739.281 131.552 739.338 131.619L735.554 134.887L731.77 138.155C733.374 140.013 735.501 141.082 737.668 141.667L738.972 136.84ZM735.554 134.887L739.554 131.887C738.385 130.329 737.119 127.023 736.294 121.132L731.343 121.826L726.391 122.519C727.275 128.835 728.817 134.237 731.554 137.887L735.554 134.887ZM731.343 121.826L736.299 121.169C735.519 115.273 735.122 108.842 735.122 101.867H730.122H725.122C725.122 109.215 725.539 116.09 726.386 122.482L731.343 121.826ZM730.122 101.867H735.122C735.122 94.4594 735.481 87.4145 736.193 80.7293L731.221 80.1997L726.249 79.6702C725.496 86.7382 725.122 94.1383 725.122 101.867H730.122ZM731.221 80.1997L736.193 80.7262C736.915 73.9074 737.826 69.1964 738.816 66.3285L734.089 64.6968L729.363 63.0651C727.993 67.0331 726.991 72.6574 726.248 79.6732L731.221 80.1997ZM734.089 64.6968L738.728 66.5635C739.673 64.2144 741.133 62.5184 743.175 61.304L740.62 57.0063L738.065 52.7087C734.085 55.0751 731.191 58.506 729.451 62.8301L734.089 64.6968ZM740.62 57.0063L743.15 61.319C745.64 59.8582 748.48 58.8296 751.722 58.2718L750.874 53.3442L750.026 48.4166C745.7 49.161 741.704 50.5738 738.09 52.6937L740.62 57.0063ZM750.874 53.3442L751.713 58.2733C755.301 57.6627 758.619 57.3677 761.677 57.3677V52.3677V47.3677C757.981 47.3677 754.097 47.7237 750.035 48.4151L750.874 53.3442ZM761.677 52.3677V57.3677C768.409 57.3677 773.677 58.5365 777.708 60.6017L779.988 56.1519L782.268 51.702C776.451 48.7216 769.512 47.3677 761.677 47.3677V52.3677ZM779.988 56.1519L777.737 60.6166C781.961 62.7459 784.904 65.428 786.828 68.5823L791.096 65.9785L795.365 63.3747C792.325 58.391 787.862 54.522 782.239 51.6871L779.988 56.1519ZM791.096 65.9785L786.847 68.6132C788.9 71.9252 789.88 75.3515 789.88 78.979H794.88H799.88C799.88 73.4106 798.338 68.1698 795.346 63.3438L791.096 65.9785ZM794.88 78.979H789.88C789.88 82.3279 789.034 85.7604 787.2 89.3256L791.646 91.6133L796.091 93.901C798.57 89.084 799.88 84.0936 799.88 78.979H794.88ZM791.646 91.6133L787.199 89.3275C785.367 92.8913 782.526 96.1663 778.499 99.1146L781.453 103.149L784.406 107.183C789.494 103.458 793.448 99.0429 796.092 93.8991L791.646 91.6133ZM781.453 103.149L778.736 98.9511C778.293 99.2383 777.743 99.6216 777.248 100.088C777.002 100.319 776.633 100.696 776.295 101.214C775.992 101.678 775.415 102.703 775.415 104.125H780.415H785.415C785.415 105.446 784.882 106.355 784.665 106.686C784.413 107.071 784.174 107.301 784.101 107.37C783.952 107.51 783.921 107.507 784.169 107.347L781.453 103.149ZM780.415 104.125H775.415C775.415 105.696 776.112 106.826 776.609 107.43C777.097 108.023 777.617 108.393 777.925 108.591C778.545 108.989 779.177 109.237 779.588 109.384L781.27 104.675L782.951 99.9661C782.792 99.9092 782.998 99.9637 783.332 100.179C783.498 100.286 783.911 100.567 784.328 101.073C784.754 101.59 785.415 102.636 785.415 104.125H780.415ZM781.27 104.675L779.157 109.207C784.427 111.663 788.601 115.122 791.782 119.596L795.857 116.699L799.932 113.802C795.707 107.859 790.156 103.301 783.382 100.143L781.27 104.675ZM795.857 116.699L791.755 119.558C792.16 120.138 792.261 120.578 792.261 120.971H797.261H802.261C802.261 118.354 801.426 115.945 799.959 113.84L795.857 116.699ZM797.261 120.971H792.261C792.261 122.125 791.822 123.626 790.293 125.553L794.209 128.662L798.125 131.77C800.665 128.571 802.261 124.944 802.261 120.971H797.261ZM794.209 128.662L790.286 125.561C788.649 127.633 786.694 129.391 784.396 130.844L787.068 135.07L789.74 139.296C792.976 137.25 795.781 134.736 798.132 131.762L794.209 128.662ZM787.068 135.07L784.44 130.816C782.126 132.246 780.541 132.634 779.561 132.634V137.634V142.634C783.056 142.634 786.476 141.313 789.695 139.324L787.068 135.07ZM756.062 87.1577L756.473 92.1408C760.484 91.81 764.109 91.1963 766.66 89.9209L764.424 85.4487L762.188 80.9766C761.483 81.3288 759.534 81.8544 755.651 82.1746L756.062 87.1577ZM764.424 85.4487L766.748 89.8757C768.671 88.8659 771.865 86.6601 771.865 82.6411H766.865H761.865C761.865 82.2089 761.955 81.8061 762.097 81.4657C762.234 81.1382 762.393 80.9276 762.482 80.8251C762.629 80.6556 762.604 80.757 762.1 81.0217L764.424 85.4487ZM766.865 82.6411H771.865C771.865 78.3841 768.545 75.8386 766.127 74.4901L763.691 78.8569L761.256 83.2238C761.614 83.4233 761.864 83.5917 762.031 83.7203C762.2 83.8502 762.253 83.9153 762.241 83.9011C762.226 83.8839 762.129 83.763 762.035 83.5312C761.935 83.2873 761.865 82.9805 761.865 82.6411H766.865ZM763.691 78.8569L766.227 74.5473C763.508 72.9479 760.567 72.0259 757.466 72.0259V77.0259V82.0259C758.515 82.0259 759.725 82.3245 761.156 83.1666L763.691 78.8569ZM757.466 77.0259V72.0259H756.794V77.0259V82.0259H757.466V77.0259ZM756.794 77.0259L751.971 75.7103C751.616 77.0119 751.38 78.6221 751.208 80.3856L756.184 80.8711L761.16 81.3566C761.314 79.7835 761.485 78.8302 761.618 78.3415L756.794 77.0259ZM756.184 80.8711L751.198 80.4971C751.068 82.2316 751.001 83.8834 751.001 85.4487H756.001H761.001C761.001 84.1658 761.056 82.7658 761.17 81.245L756.184 80.8711ZM756.001 85.4487L751.004 85.6272L751.065 87.3362L756.062 87.1577L761.059 86.9793L760.998 85.2703L756.001 85.4487Z" fill="black" mask="url(#path-2-outside-1_3318_13)"/>
</svg>
