<svg width="690" height="394" viewBox="0 0 690 394" fill="none" xmlns="http://www.w3.org/2000/svg">
<rect x="239.25" y="4.25" width="211.5" height="175.5" rx="43.75" fill="black" stroke="black" stroke-width="7.5"/>
<mask id="path-2-outside-1_3357_81" maskUnits="userSpaceOnUse" x="291" y="50" width="105" height="88" fill="black">
<rect fill="white" x="291" y="50" width="105" height="88"/>
<path d="M360.064 132.08C358.192 132.08 356.666 131.591 355.486 130.615C354.306 129.638 353.33 128.417 352.557 126.953C351.824 125.488 351.173 123.962 350.604 122.375C349.586 119.73 348.671 117.228 347.857 114.868C347.043 112.467 346.25 109.72 345.477 106.628C344.948 104.797 344.439 103.881 343.951 103.881C343.503 103.881 343.056 104.349 342.608 105.285C342.079 106.506 341.387 108.622 340.533 111.633C339.027 116.923 337.705 120.544 336.565 122.497C334.856 125.101 331.886 127.197 327.654 128.784C323.463 130.371 319.231 131.164 314.959 131.164C312.477 131.164 310.198 130.839 308.123 130.188C306.089 129.536 304.502 128.519 303.362 127.136C301.328 124.003 299.66 117.35 298.357 107.177C297.096 97.0047 296.465 87.3612 296.465 78.2466C296.465 71.4106 296.913 66.1006 297.808 62.3164C298.418 60.4447 300.372 58.8171 303.667 57.4336C306.434 56.1315 309.303 55.4805 312.273 55.4805C318.011 55.4805 321.246 57.9422 321.978 62.8657C322.466 67.3416 322.771 71.7972 322.894 76.2324C323.016 81.1559 323.382 86.1608 323.992 91.2471C324.033 91.654 324.155 91.9795 324.358 92.2236C324.562 92.4678 324.765 92.5898 324.969 92.5898C325.376 92.5898 325.722 92.2033 326.006 91.4302C326.332 90.6164 326.678 89.6398 327.044 88.5005C329.607 80.5252 331.561 75.2355 332.903 72.6313C333.88 71.0037 335.507 69.7017 337.786 68.7251C340.105 67.7485 342.506 67.2603 344.988 67.2603C346.616 67.2603 348.121 67.5247 349.505 68.0537C350.929 68.5827 352.048 69.4168 352.862 70.5562C354.286 72.672 355.486 74.9507 356.463 77.3921C357.439 79.7928 358.355 82.2342 359.209 84.7163C359.698 86.1812 360.206 87.6257 360.735 89.0498C361.102 89.945 361.407 90.3926 361.651 90.3926C362.017 90.3926 362.241 89.8026 362.322 88.6226C362.851 79.8335 363.97 70.841 365.679 61.645C365.923 60.5871 366.981 59.7733 368.853 59.2036C370.765 58.5933 372.942 58.2881 375.384 58.2881C378.476 58.2881 381.426 58.8577 384.234 59.9971C387.042 61.0957 388.649 62.9064 389.056 65.4292C389.3 68.0741 389.544 73.4451 389.788 81.5425C390.073 89.5991 390.215 97.2285 390.215 104.431C390.215 111.185 390.012 115.926 389.605 118.652C389.198 120.524 388.466 122.334 387.408 124.084C386.35 125.793 384.885 126.953 383.013 127.563C379.961 128.417 376.381 129.272 372.271 130.126C366.981 131.266 362.912 131.917 360.064 132.08Z"/>
</mask>
<path d="M360.064 132.08C358.192 132.08 356.666 131.591 355.486 130.615C354.306 129.638 353.33 128.417 352.557 126.953C351.824 125.488 351.173 123.962 350.604 122.375C349.586 119.73 348.671 117.228 347.857 114.868C347.043 112.467 346.25 109.72 345.477 106.628C344.948 104.797 344.439 103.881 343.951 103.881C343.503 103.881 343.056 104.349 342.608 105.285C342.079 106.506 341.387 108.622 340.533 111.633C339.027 116.923 337.705 120.544 336.565 122.497C334.856 125.101 331.886 127.197 327.654 128.784C323.463 130.371 319.231 131.164 314.959 131.164C312.477 131.164 310.198 130.839 308.123 130.188C306.089 129.536 304.502 128.519 303.362 127.136C301.328 124.003 299.66 117.35 298.357 107.177C297.096 97.0047 296.465 87.3612 296.465 78.2466C296.465 71.4106 296.913 66.1006 297.808 62.3164C298.418 60.4447 300.372 58.8171 303.667 57.4336C306.434 56.1315 309.303 55.4805 312.273 55.4805C318.011 55.4805 321.246 57.9422 321.978 62.8657C322.466 67.3416 322.771 71.7972 322.894 76.2324C323.016 81.1559 323.382 86.1608 323.992 91.2471C324.033 91.654 324.155 91.9795 324.358 92.2236C324.562 92.4678 324.765 92.5898 324.969 92.5898C325.376 92.5898 325.722 92.2033 326.006 91.4302C326.332 90.6164 326.678 89.6398 327.044 88.5005C329.607 80.5252 331.561 75.2355 332.903 72.6313C333.88 71.0037 335.507 69.7017 337.786 68.7251C340.105 67.7485 342.506 67.2603 344.988 67.2603C346.616 67.2603 348.121 67.5247 349.505 68.0537C350.929 68.5827 352.048 69.4168 352.862 70.5562C354.286 72.672 355.486 74.9507 356.463 77.3921C357.439 79.7928 358.355 82.2342 359.209 84.7163C359.698 86.1812 360.206 87.6257 360.735 89.0498C361.102 89.945 361.407 90.3926 361.651 90.3926C362.017 90.3926 362.241 89.8026 362.322 88.6226C362.851 79.8335 363.97 70.841 365.679 61.645C365.923 60.5871 366.981 59.7733 368.853 59.2036C370.765 58.5933 372.942 58.2881 375.384 58.2881C378.476 58.2881 381.426 58.8577 384.234 59.9971C387.042 61.0957 388.649 62.9064 389.056 65.4292C389.3 68.0741 389.544 73.4451 389.788 81.5425C390.073 89.5991 390.215 97.2285 390.215 104.431C390.215 111.185 390.012 115.926 389.605 118.652C389.198 120.524 388.466 122.334 387.408 124.084C386.35 125.793 384.885 126.953 383.013 127.563C379.961 128.417 376.381 129.272 372.271 130.126C366.981 131.266 362.912 131.917 360.064 132.08Z" fill="white"/>
<path d="M360.064 132.08V137.08H360.207L360.349 137.071L360.064 132.08ZM355.486 130.615L358.674 126.763L355.486 130.615ZM352.557 126.953L348.085 129.189L348.109 129.238L348.135 129.286L352.557 126.953ZM350.604 122.375L355.309 120.686L355.29 120.633L355.27 120.58L350.604 122.375ZM347.857 114.868L343.122 116.473L343.126 116.485L343.13 116.498L347.857 114.868ZM345.477 106.628L350.327 105.415L350.305 105.327L350.28 105.24L345.477 106.628ZM342.608 105.285L338.097 103.128L338.057 103.212L338.02 103.297L342.608 105.285ZM340.533 111.633L345.342 113.002L345.343 112.998L340.533 111.633ZM336.565 122.497L340.746 125.24L340.818 125.13L340.884 125.016L336.565 122.497ZM327.654 128.784L325.899 124.102L325.891 124.105L325.884 124.108L327.654 128.784ZM308.123 130.188L306.599 134.95L306.613 134.954L306.626 134.958L308.123 130.188ZM303.362 127.136L299.169 129.859L299.323 130.096L299.503 130.314L303.362 127.136ZM298.357 107.177L293.395 107.793L293.397 107.802L293.398 107.812L298.357 107.177ZM297.808 62.3164L293.054 60.7663L292.99 60.9635L292.942 61.1654L297.808 62.3164ZM303.667 57.4336L305.603 62.0439L305.7 62.0029L305.796 61.9577L303.667 57.4336ZM321.978 62.8657L326.949 62.3235L326.938 62.2265L326.924 62.13L321.978 62.8657ZM322.894 76.2324L327.892 76.1085L327.892 76.0949L322.894 76.2324ZM323.992 91.2471L328.967 90.7496L328.962 90.7004L328.957 90.6513L323.992 91.2471ZM326.006 91.4302L321.364 89.5732L321.338 89.6371L321.315 89.7016L326.006 91.4302ZM332.903 72.6313L328.616 70.0589L328.533 70.1969L328.459 70.3399L332.903 72.6313ZM337.786 68.7251L335.846 64.1169L335.831 64.1231L335.817 64.1294L337.786 68.7251ZM349.505 68.0537L347.719 72.724L347.742 72.7325L347.764 72.7408L349.505 68.0537ZM352.862 70.5562L357.01 67.7643L356.971 67.7066L356.93 67.65L352.862 70.5562ZM356.463 77.3921L351.821 79.249L351.826 79.2626L351.831 79.2761L356.463 77.3921ZM359.209 84.7163L363.953 83.1352L363.945 83.1119L363.937 83.0887L359.209 84.7163ZM360.735 89.0498L356.048 90.7907L356.077 90.8673L356.108 90.943L360.735 89.0498ZM362.322 88.6226L367.31 88.9666L367.312 88.9448L367.313 88.9229L362.322 88.6226ZM365.679 61.645L360.807 60.5207L360.783 60.6256L360.763 60.7315L365.679 61.645ZM368.853 59.2036L370.309 63.987L370.341 63.9772L370.373 63.9669L368.853 59.2036ZM384.234 59.9971L382.354 64.6301L382.383 64.6419L382.412 64.6533L384.234 59.9971ZM389.056 65.4292L394.034 64.9696L394.019 64.8006L393.992 64.633L389.056 65.4292ZM389.788 81.5425L384.79 81.6932L384.791 81.7062L384.791 81.7191L389.788 81.5425ZM389.605 118.652L394.491 119.714L394.526 119.553L394.55 119.39L389.605 118.652ZM387.408 124.084L391.659 126.716L391.673 126.693L391.686 126.671L387.408 124.084ZM383.013 127.563L384.361 132.378L384.463 132.349L384.563 132.317L383.013 127.563ZM372.271 130.126L371.253 125.231L371.236 125.235L371.218 125.239L372.271 130.126ZM360.064 132.08V127.08C359.089 127.08 358.771 126.843 358.674 126.763L355.486 130.615L352.298 134.467C354.562 136.34 357.296 137.08 360.064 137.08V132.08ZM355.486 130.615L358.674 126.763C358.042 126.239 357.47 125.549 356.979 124.619L352.557 126.953L348.135 129.286C349.19 131.286 350.571 133.037 352.298 134.467L355.486 130.615ZM352.557 126.953L357.029 124.717C356.388 123.434 355.814 122.091 355.309 120.686L350.604 122.375L345.898 124.064C346.532 125.832 347.261 127.541 348.085 129.189L352.557 126.953ZM350.604 122.375L355.27 120.58C354.271 117.983 353.376 115.536 352.584 113.238L347.857 114.868L343.13 116.498C343.965 118.92 344.901 121.478 345.937 124.17L350.604 122.375ZM347.857 114.868L352.592 113.262C351.832 111.019 351.075 108.407 350.327 105.415L345.477 106.628L340.626 107.841C341.424 111.033 342.255 113.915 343.122 116.473L347.857 114.868ZM345.477 106.628L350.28 105.24C349.981 104.206 349.598 103.092 349.069 102.14C348.808 101.67 348.376 100.989 347.703 100.37C347.014 99.7376 345.739 98.8813 343.951 98.8813V103.881V108.881C342.407 108.881 341.378 108.14 340.939 107.736C340.514 107.346 340.334 107.009 340.328 106.996C340.307 106.959 340.443 107.219 340.673 108.016L345.477 106.628ZM343.951 103.881V98.8813C341.85 98.8813 340.408 100.001 339.666 100.776C338.924 101.552 338.429 102.433 338.097 103.128L342.608 105.285L347.119 107.442C347.234 107.201 347.187 107.38 346.893 107.688C346.598 107.996 345.604 108.881 343.951 108.881V103.881ZM342.608 105.285L338.02 103.297C337.347 104.851 336.579 107.251 335.723 110.268L340.533 111.633L345.343 112.998C346.196 109.993 346.811 108.161 347.196 107.273L342.608 105.285ZM340.533 111.633L335.724 110.264C334.216 115.562 333.034 118.627 332.247 119.978L336.565 122.497L340.884 125.016C342.375 122.46 343.838 118.284 345.342 113.002L340.533 111.633ZM336.565 122.497L332.385 119.754C331.468 121.152 329.567 122.726 325.899 124.102L327.654 128.784L329.41 133.465C334.205 131.667 338.245 129.051 340.746 125.24L336.565 122.497ZM327.654 128.784L325.884 124.108C322.23 125.491 318.597 126.164 314.959 126.164V131.164V136.164C319.866 136.164 324.696 135.25 329.425 133.46L327.654 128.784ZM314.959 131.164V126.164C312.914 126.164 311.148 125.896 309.62 125.417L308.123 130.188L306.626 134.958C309.249 135.781 312.04 136.164 314.959 136.164V131.164ZM308.123 130.188L309.647 125.425C308.349 125.01 307.642 124.467 307.222 123.957L303.362 127.136L299.503 130.314C301.361 132.571 303.828 134.063 306.599 134.95L308.123 130.188ZM303.362 127.136L307.556 124.413C306.993 123.546 306.228 121.74 305.435 118.58C304.666 115.514 303.954 111.519 303.317 106.542L298.357 107.177L293.398 107.812C294.063 113.008 294.836 117.426 295.735 121.012C296.611 124.505 297.697 127.592 299.169 129.859L303.362 127.136ZM298.357 107.177L303.319 106.562C302.08 96.5688 301.465 87.132 301.465 78.2466H296.465H291.465C291.465 87.5903 292.112 97.4406 293.395 107.793L298.357 107.177ZM296.465 78.2466H301.465C301.465 71.5536 301.911 66.6939 302.674 63.4674L297.808 62.3164L292.942 61.1654C291.915 65.5073 291.465 71.2677 291.465 78.2466H296.465ZM297.808 62.3164L302.562 63.8665C302.502 64.0513 302.47 63.9173 302.932 63.533C303.407 63.1368 304.242 62.615 305.603 62.0439L303.667 57.4336L301.732 52.8233C298.113 54.3424 294.371 56.7298 293.054 60.7663L297.808 62.3164ZM303.667 57.4336L305.796 61.9577C307.918 60.9595 310.061 60.4805 312.273 60.4805V55.4805V50.4805C308.545 50.4805 304.951 51.3035 301.538 52.9095L303.667 57.4336ZM312.273 55.4805V60.4805C314.487 60.4805 315.522 60.9611 315.975 61.3057C316.331 61.5771 316.812 62.1227 317.032 63.6014L321.978 62.8657L326.924 62.13C326.411 58.6852 324.909 55.5382 322.031 53.3479C319.248 51.2307 315.797 50.4805 312.273 50.4805V55.4805ZM321.978 62.8657L317.008 63.408C317.481 67.7514 317.777 72.072 317.895 76.37L322.894 76.2324L327.892 76.0949C327.766 71.5224 327.451 66.9319 326.949 62.3235L321.978 62.8657ZM322.894 76.2324L317.895 76.3564C318.021 81.4437 318.399 86.6061 319.028 91.8428L323.992 91.2471L328.957 90.6513C328.364 85.7155 328.01 80.8681 327.892 76.1085L322.894 76.2324ZM323.992 91.2471L319.017 91.7446C319.129 92.8624 319.513 94.2199 320.517 95.4246L324.358 92.2236L328.2 89.0227C328.796 89.7391 328.937 90.4456 328.967 90.7496L323.992 91.2471ZM324.358 92.2236L320.517 95.4246C321.136 96.1674 322.611 97.5898 324.969 97.5898V92.5898V87.5898C326.919 87.5898 327.987 88.7682 328.2 89.0227L324.358 92.2236ZM324.969 92.5898V97.5898C326.965 97.5898 328.417 96.5761 329.26 95.6339C330.026 94.7769 330.451 93.8293 330.698 93.1587L326.006 91.4302L321.315 89.7016C321.277 89.8042 321.386 89.4364 321.807 88.966C322.304 88.4103 323.38 87.5898 324.969 87.5898V92.5898ZM326.006 91.4302L330.649 93.2871C331.03 92.3351 331.414 91.2434 331.804 90.0305L327.044 88.5005L322.284 86.9704C321.941 88.0362 321.634 88.8977 321.364 89.5732L326.006 91.4302ZM327.044 88.5005L331.804 90.0305C334.384 82.0027 336.223 77.1025 337.347 74.9228L332.903 72.6313L328.459 70.3399C326.898 73.3685 324.83 79.0478 322.284 86.9704L327.044 88.5005ZM332.903 72.6313L337.191 75.2038C337.482 74.718 338.149 74.0096 339.756 73.3208L337.786 68.7251L335.817 64.1294C332.866 65.3938 330.278 67.2895 328.616 70.0589L332.903 72.6313ZM337.786 68.7251L339.726 73.3333C341.44 72.6116 343.182 72.2603 344.988 72.2603V67.2603V62.2603C341.83 62.2603 338.771 62.8854 335.846 64.1169L337.786 68.7251ZM344.988 67.2603V72.2603C346.066 72.2603 346.96 72.4335 347.719 72.724L349.505 68.0537L351.291 63.3835C349.283 62.6159 347.166 62.2603 344.988 62.2603V67.2603ZM349.505 68.0537L347.764 72.7408C348.335 72.953 348.61 73.2054 348.793 73.4623L352.862 70.5562L356.93 67.65C355.486 65.6283 353.523 64.2124 351.246 63.3666L349.505 68.0537ZM352.862 70.5562L348.714 73.348C349.935 75.1617 350.971 77.1257 351.821 79.249L356.463 77.3921L361.105 75.5351C360.001 72.7757 358.637 70.1824 357.01 67.7643L352.862 70.5562ZM356.463 77.3921L351.831 79.2761C352.773 81.5911 353.657 83.947 354.482 86.3439L359.209 84.7163L363.937 83.0887C363.053 80.5214 362.106 77.9945 361.094 75.5081L356.463 77.3921ZM359.209 84.7163L354.466 86.2974C354.972 87.815 355.499 89.3128 356.048 90.7907L360.735 89.0498L365.422 87.3089C364.913 85.9385 364.424 84.5473 363.953 83.1352L359.209 84.7163ZM360.735 89.0498L356.108 90.943C356.337 91.5046 356.661 92.2188 357.108 92.8736C357.328 93.1968 357.714 93.7086 358.298 94.1848C358.867 94.6487 360.019 95.3926 361.651 95.3926V90.3926V85.3926C363.161 85.3926 364.183 86.0805 364.615 86.4325C365.062 86.7968 365.302 87.1407 365.37 87.2402C365.511 87.4474 365.5 87.4902 365.363 87.1566L360.735 89.0498ZM361.651 90.3926V95.3926C365.179 95.3926 366.506 92.4154 366.768 91.7233C367.145 90.7297 367.26 89.6976 367.31 88.9666L362.322 88.6226L357.334 88.2785C357.303 88.7275 357.265 88.5805 357.418 88.1768C357.497 87.9702 357.747 87.3623 358.363 86.7464C359.085 86.0245 360.228 85.3926 361.651 85.3926V90.3926ZM362.322 88.6226L367.313 88.9229C367.829 80.3519 368.921 71.5644 370.595 62.5586L365.679 61.645L360.763 60.7315C359.019 70.1176 357.873 79.3151 357.331 88.3222L362.322 88.6226ZM365.679 61.645L370.551 62.7693C370.462 63.1562 370.302 63.4903 370.119 63.7527C369.944 64.0048 369.779 64.147 369.704 64.2043C369.633 64.2595 369.628 64.2492 369.737 64.1979C369.844 64.1474 370.027 64.0726 370.309 63.987L368.853 59.2036L367.397 54.4202C365.188 55.0925 361.696 56.6687 360.807 60.5207L365.679 61.645ZM368.853 59.2036L370.373 63.9669C371.701 63.543 373.351 63.2881 375.384 63.2881V58.2881V53.2881C372.534 53.2881 369.83 53.6435 367.333 54.4403L368.853 59.2036ZM375.384 58.2881V63.2881C377.845 63.2881 380.156 63.7382 382.354 64.6301L384.234 59.9971L386.114 55.364C382.697 53.9773 379.107 53.2881 375.384 53.2881V58.2881ZM384.234 59.9971L382.412 64.6533C383.922 65.2441 384.05 65.7917 384.119 66.2254L389.056 65.4292L393.992 64.633C393.248 60.0211 390.161 56.9473 386.056 55.3409L384.234 59.9971ZM389.056 65.4292L384.077 65.8888C384.304 68.3532 384.545 73.5681 384.79 81.6932L389.788 81.5425L394.786 81.3918C394.543 73.3222 394.295 67.795 394.034 64.9696L389.056 65.4292ZM389.788 81.5425L384.791 81.7191C385.074 89.7237 385.215 97.2939 385.215 104.431H390.215H395.215C395.215 97.1632 395.072 89.4745 394.785 81.3658L389.788 81.5425ZM390.215 104.431H385.215C385.215 111.19 385.006 115.595 384.66 117.914L389.605 118.652L394.55 119.39C395.018 116.257 395.215 111.18 395.215 104.431H390.215ZM389.605 118.652L384.719 117.59C384.437 118.888 383.921 120.187 383.129 121.497L387.408 124.084L391.686 126.671C393.01 124.482 393.959 122.159 394.491 119.714L389.605 118.652ZM387.408 124.084L383.156 121.452C382.706 122.18 382.187 122.573 381.463 122.809L383.013 127.563L384.563 132.317C387.583 131.332 389.994 129.406 391.659 126.716L387.408 124.084ZM383.013 127.563L381.665 122.748C378.751 123.564 375.285 124.393 371.253 125.231L372.271 130.126L373.289 135.022C377.476 134.151 381.172 133.271 384.361 132.378L383.013 127.563ZM372.271 130.126L371.218 125.239C366 126.363 362.233 126.947 359.779 127.088L360.064 132.08L360.349 137.071C363.591 136.886 367.963 136.169 373.324 135.014L372.271 130.126Z" fill="black" mask="url(#path-2-outside-1_3357_81)"/>
<rect x="4.25" y="214.25" width="211.5" height="175.5" rx="43.75" fill="black" stroke="black" stroke-width="7.5"/>
<mask id="path-5-outside-2_3357_81" maskUnits="userSpaceOnUse" x="69" y="261" width="82" height="87" fill="black">
<rect fill="white" x="69" y="261" width="82" height="87"/>
<path d="M125.979 342.019C121.992 342.019 119.652 340.94 118.96 338.784C117.821 334.715 116.784 329.974 115.848 324.562C115.197 320.86 114.566 317.747 113.956 315.224C113.589 313.963 112.959 313.007 112.063 312.355C111.168 311.704 110.192 311.379 109.134 311.379C108.076 311.379 107.079 311.725 106.143 312.417C105.207 313.068 104.515 314.105 104.068 315.529C103.62 316.953 103.132 318.683 102.603 320.717C100.691 327.797 99.1647 332.741 98.0254 335.549C97.4557 336.77 96.3774 337.705 94.7905 338.356C93.2443 338.967 91.4743 339.272 89.4805 339.272C87.1611 339.272 84.8011 338.865 82.4004 338.051C80.0404 337.197 78.0669 335.915 76.48 334.206C74.8931 332.497 74.0996 330.34 74.0996 327.736L74.1606 326.394C75.1372 318.825 76.9683 309.894 79.6538 299.599C82.3394 289.305 84.8418 281.411 87.1611 275.917C88.626 273.028 91.637 270.77 96.1943 269.143C100.792 267.474 105.675 266.64 110.843 266.64C115.441 266.64 119.652 267.393 123.477 268.898C127.343 270.363 129.926 272.703 131.229 275.917C134.158 284.056 136.986 293.76 139.712 305.031C142.439 316.262 144.209 325.58 145.022 332.985V333.229C145.022 334.654 143.965 336.037 141.849 337.38C139.773 338.723 137.251 339.842 134.28 340.737C131.31 341.591 128.543 342.019 125.979 342.019ZM108.462 298.5C112.898 298.256 115.115 297.239 115.115 295.449L114.993 294.899C113.61 290.505 111.88 288.308 109.805 288.308C108.625 288.308 107.506 289.04 106.448 290.505C105.431 291.97 104.699 293.841 104.251 296.12V296.425C104.251 297.036 104.576 297.544 105.228 297.951C105.919 298.317 106.998 298.5 108.462 298.5Z"/>
</mask>
<path d="M125.979 342.019C121.992 342.019 119.652 340.94 118.96 338.784C117.821 334.715 116.784 329.974 115.848 324.562C115.197 320.86 114.566 317.747 113.956 315.224C113.589 313.963 112.959 313.007 112.063 312.355C111.168 311.704 110.192 311.379 109.134 311.379C108.076 311.379 107.079 311.725 106.143 312.417C105.207 313.068 104.515 314.105 104.068 315.529C103.62 316.953 103.132 318.683 102.603 320.717C100.691 327.797 99.1647 332.741 98.0254 335.549C97.4557 336.77 96.3774 337.705 94.7905 338.356C93.2443 338.967 91.4743 339.272 89.4805 339.272C87.1611 339.272 84.8011 338.865 82.4004 338.051C80.0404 337.197 78.0669 335.915 76.48 334.206C74.8931 332.497 74.0996 330.34 74.0996 327.736L74.1606 326.394C75.1372 318.825 76.9683 309.894 79.6538 299.599C82.3394 289.305 84.8418 281.411 87.1611 275.917C88.626 273.028 91.637 270.77 96.1943 269.143C100.792 267.474 105.675 266.64 110.843 266.64C115.441 266.64 119.652 267.393 123.477 268.898C127.343 270.363 129.926 272.703 131.229 275.917C134.158 284.056 136.986 293.76 139.712 305.031C142.439 316.262 144.209 325.58 145.022 332.985V333.229C145.022 334.654 143.965 336.037 141.849 337.38C139.773 338.723 137.251 339.842 134.28 340.737C131.31 341.591 128.543 342.019 125.979 342.019ZM108.462 298.5C112.898 298.256 115.115 297.239 115.115 295.449L114.993 294.899C113.61 290.505 111.88 288.308 109.805 288.308C108.625 288.308 107.506 289.04 106.448 290.505C105.431 291.97 104.699 293.841 104.251 296.12V296.425C104.251 297.036 104.576 297.544 105.228 297.951C105.919 298.317 106.998 298.5 108.462 298.5Z" fill="white"/>
<path d="M118.96 338.784L114.146 340.132L114.171 340.222L114.199 340.311L118.96 338.784ZM115.848 324.562L120.775 323.71L120.772 323.697L115.848 324.562ZM113.956 315.224L118.815 314.048L118.789 313.939L118.757 313.83L113.956 315.224ZM106.143 312.417L108.998 316.521L109.057 316.48L109.115 316.437L106.143 312.417ZM104.068 315.529L99.2979 314.03L104.068 315.529ZM102.603 320.717L107.43 322.021L107.436 321.998L107.442 321.975L102.603 320.717ZM98.0254 335.549L102.556 337.663L102.61 337.547L102.658 337.429L98.0254 335.549ZM94.7905 338.356L96.6264 343.007L96.6574 342.995L96.6883 342.982L94.7905 338.356ZM82.4004 338.051L80.6982 342.753L80.7465 342.77L80.7952 342.787L82.4004 338.051ZM74.0996 327.736L69.1048 327.509L69.0996 327.623V327.736H74.0996ZM74.1606 326.394L69.2018 325.754L69.1752 325.959L69.1658 326.167L74.1606 326.394ZM87.1611 275.917L82.7016 273.656L82.6227 273.812L82.5549 273.973L87.1611 275.917ZM96.1943 269.143L97.876 273.851L97.8879 273.847L97.8997 273.843L96.1943 269.143ZM123.477 268.898L121.646 273.551L121.675 273.563L121.705 273.574L123.477 268.898ZM131.229 275.917L135.933 274.224L135.9 274.131L135.863 274.04L131.229 275.917ZM139.712 305.031L134.853 306.207L134.854 306.211L139.712 305.031ZM145.022 332.985H150.022V332.711L149.993 332.439L145.022 332.985ZM141.849 337.38L139.17 333.158L139.151 333.17L139.132 333.182L141.849 337.38ZM134.28 340.737L135.663 345.542L135.693 345.533L135.723 345.524L134.28 340.737ZM108.462 298.5V303.5H108.6L108.737 303.493L108.462 298.5ZM115.115 295.449H120.115V294.9L119.996 294.364L115.115 295.449ZM114.993 294.899L119.874 293.815L119.827 293.604L119.762 293.398L114.993 294.899ZM106.448 290.505L102.395 287.577L102.368 287.615L102.341 287.653L106.448 290.505ZM104.251 296.12L99.3447 295.156L99.251 295.634V296.12H104.251ZM105.228 297.951L102.578 302.191L102.73 302.286L102.888 302.37L105.228 297.951ZM125.979 342.019V337.019C124.352 337.019 123.58 336.785 123.327 336.669C123.234 336.626 123.309 336.644 123.437 336.78C123.575 336.928 123.673 337.106 123.722 337.257L118.96 338.784L114.199 340.311C115.984 345.874 121.667 347.019 125.979 347.019V342.019ZM118.96 338.784L123.775 337.436C122.693 333.57 121.69 329.002 120.775 323.71L115.848 324.562L110.921 325.415C111.878 330.947 112.949 335.86 114.146 340.132L118.96 338.784ZM115.848 324.562L120.772 323.697C120.11 319.932 119.459 316.708 118.815 314.048L113.956 315.224L109.096 316.4C109.673 318.786 110.283 321.788 110.923 325.428L115.848 324.562ZM113.956 315.224L118.757 313.83C118.142 311.71 116.956 309.731 115.004 308.312L112.063 312.355L109.123 316.399C109.1 316.383 109.078 316.363 109.059 316.344C109.041 316.324 109.033 316.312 109.034 316.314C109.036 316.317 109.091 316.4 109.154 316.618L113.956 315.224ZM112.063 312.355L115.004 308.312C113.297 307.07 111.299 306.379 109.134 306.379V311.379V316.379C109.138 316.379 109.138 316.379 109.136 316.379C109.133 316.379 109.129 316.378 109.122 316.377C109.116 316.376 109.108 316.375 109.1 316.373C109.092 316.371 109.085 316.369 109.079 316.366C109.072 316.364 109.067 316.362 109.064 316.361C109.061 316.36 109.061 316.36 109.064 316.361C109.069 316.364 109.089 316.374 109.123 316.399L112.063 312.355ZM109.134 311.379V306.379C106.898 306.379 104.877 307.135 103.171 308.396L106.143 312.417L109.115 316.437C109.168 316.398 109.203 316.378 109.221 316.368C109.239 316.358 109.242 316.358 109.232 316.362C109.221 316.366 109.203 316.371 109.182 316.374C109.16 316.378 109.143 316.379 109.134 316.379V311.379ZM106.143 312.417L103.288 308.312C101.196 309.767 99.9745 311.877 99.2979 314.03L104.068 315.529L108.838 317.028C108.947 316.682 109.045 316.513 109.083 316.456C109.114 316.41 109.091 316.456 108.998 316.521L106.143 312.417ZM104.068 315.529L99.2979 314.03C98.8175 315.559 98.3062 317.373 97.7639 319.459L102.603 320.717L107.442 321.975C107.958 319.992 108.423 318.348 108.838 317.028L104.068 315.529ZM102.603 320.717L97.776 319.413C95.8633 326.495 94.405 331.173 93.3923 333.669L98.0254 335.549L102.658 337.429C103.924 334.309 105.518 329.1 107.43 322.021L102.603 320.717ZM98.0254 335.549L93.4945 333.434C93.5239 333.371 93.5537 333.354 93.5121 333.39C93.4566 333.438 93.2814 333.571 92.8927 333.731L94.7905 338.356L96.6883 342.982C99.1079 341.99 101.322 340.308 102.556 337.663L98.0254 335.549ZM94.7905 338.356L92.9547 333.706C92.0969 334.044 90.9682 334.272 89.4805 334.272V339.272V344.272C91.9804 344.272 94.3917 343.889 96.6264 343.007L94.7905 338.356ZM89.4805 339.272V334.272C87.7554 334.272 85.9372 333.971 84.0056 333.316L82.4004 338.051L80.7952 342.787C83.665 343.759 86.5668 344.272 89.4805 344.272V339.272ZM82.4004 338.051L84.1026 333.35C82.4321 332.745 81.1489 331.886 80.1439 330.804L76.48 334.206L72.816 337.608C74.9849 339.944 77.6486 341.648 80.6982 342.753L82.4004 338.051ZM76.48 334.206L80.1439 330.804C79.5183 330.13 79.0996 329.238 79.0996 327.736H74.0996H69.0996C69.0996 331.443 70.2678 334.864 72.816 337.608L76.48 334.206ZM74.0996 327.736L79.0945 327.963L79.1555 326.621L74.1606 326.394L69.1658 326.167L69.1048 327.509L74.0996 327.736ZM74.1606 326.394L79.1195 327.033C80.0608 319.738 81.8407 311.024 84.4919 300.861L79.6538 299.599L74.8157 298.337C72.0959 308.763 70.2136 317.912 69.2018 325.754L74.1606 326.394ZM79.6538 299.599L84.4919 300.861C87.1559 290.649 89.5871 283.026 91.7674 277.862L87.1611 275.917L82.5549 273.973C80.0965 279.795 77.5228 287.96 74.8157 298.337L79.6538 299.599ZM87.1611 275.917L91.6206 278.179C92.2767 276.885 93.9393 275.257 97.876 273.851L96.1943 269.143L94.5127 264.434C89.3348 266.283 84.9753 269.172 82.7016 273.656L87.1611 275.917ZM96.1943 269.143L97.8997 273.843C101.921 272.384 106.224 271.64 110.843 271.64V266.64V261.64C105.127 261.64 99.664 262.565 94.489 264.442L96.1943 269.143ZM110.843 266.64V271.64C114.888 271.64 118.469 272.301 121.646 273.551L123.477 268.898L125.308 264.246C120.835 262.485 115.994 261.64 110.843 261.64V266.64ZM123.477 268.898L121.705 273.574C124.54 274.648 125.915 276.117 126.594 277.795L131.229 275.917L135.863 274.04C133.938 269.289 130.145 266.078 125.249 264.223L123.477 268.898ZM131.229 275.917L126.524 277.611C129.376 285.533 132.155 295.056 134.853 306.207L139.712 305.031L144.572 303.856C141.817 292.464 138.94 282.578 135.933 274.224L131.229 275.917ZM139.712 305.031L134.854 306.211C137.553 317.333 139.271 326.422 140.052 333.532L145.022 332.985L149.993 332.439C149.146 324.738 147.324 315.191 144.571 303.852L139.712 305.031ZM145.022 332.985H140.022V333.229H145.022H150.022V332.985H145.022ZM145.022 333.229H140.022C140.022 332.952 140.077 332.709 140.145 332.527C140.21 332.354 140.272 332.279 140.257 332.298C140.241 332.319 140.163 332.414 139.979 332.572C139.796 332.729 139.534 332.927 139.17 333.158L141.849 337.38L144.528 341.602C146.996 340.035 150.022 337.348 150.022 333.229H145.022ZM141.849 337.38L139.132 333.182C137.537 334.214 135.467 335.157 132.838 335.949L134.28 340.737L135.723 345.524C139.034 344.526 142.01 343.231 144.565 341.578L141.849 337.38ZM134.28 340.737L132.898 335.932C130.288 336.683 127.991 337.019 125.979 337.019V342.019V347.019C129.095 347.019 132.332 346.5 135.663 345.542L134.28 340.737ZM108.462 298.5L108.737 303.493C111.153 303.36 113.567 303.002 115.537 302.099C117.662 301.124 120.115 299.015 120.115 295.449H115.115H110.115C110.115 294.773 110.355 294.08 110.776 293.547C111.134 293.094 111.451 292.971 111.367 293.01C111.292 293.044 111.017 293.151 110.442 293.26C109.882 293.366 109.14 293.456 108.188 293.508L108.462 298.5ZM115.115 295.449L119.996 294.364L119.874 293.815L114.993 294.899L110.112 295.984L110.234 296.533L115.115 295.449ZM114.993 294.899L119.762 293.398C118.991 290.948 117.991 288.646 116.588 286.863C115.128 285.008 112.868 283.308 109.805 283.308V288.308V293.308C109.394 293.308 109.035 293.187 108.796 293.049C108.594 292.932 108.588 292.867 108.73 293.048C109.056 293.462 109.612 294.456 110.224 296.401L114.993 294.899ZM109.805 288.308V283.308C106.304 283.308 103.876 285.527 102.395 287.577L106.448 290.505L110.502 293.432C110.79 293.032 110.916 292.977 110.819 293.04C110.761 293.079 110.637 293.149 110.449 293.209C110.257 293.27 110.037 293.308 109.805 293.308V288.308ZM106.448 290.505L102.341 287.653C100.83 289.829 99.887 292.396 99.3447 295.156L104.251 296.12L109.157 297.084C109.51 295.287 110.032 294.111 110.555 293.357L106.448 290.505ZM104.251 296.12H99.251V296.425H104.251H109.251V296.12H104.251ZM104.251 296.425H99.251C99.251 299.214 100.896 301.14 102.578 302.191L105.228 297.951L107.878 293.711C108.015 293.797 108.377 294.054 108.706 294.569C109.065 295.129 109.251 295.786 109.251 296.425H104.251ZM105.228 297.951L102.888 302.37C104.688 303.323 106.777 303.5 108.462 303.5V298.5V293.5C107.923 293.5 107.58 293.466 107.392 293.434C107.186 293.399 107.297 293.389 107.567 293.532L105.228 297.951Z" fill="black" mask="url(#path-5-outside-2_3357_81)"/>
<rect x="239.25" y="214.25" width="211.5" height="175.5" rx="43.75" fill="black" stroke="black" stroke-width="7.5"/>
<mask id="path-8-outside-3_3357_81" maskUnits="userSpaceOnUse" x="304" y="256" width="82" height="97" fill="black">
<rect fill="white" x="304" y="256" width="82" height="97"/>
<path d="M336.871 347.573C330.238 347.573 324.908 346.901 320.879 345.559C316.892 344.175 313.982 342.202 312.151 339.638C310.32 337.075 309.405 333.962 309.405 330.3C309.405 328.103 309.751 325.885 310.442 323.647C311.175 321.409 312.355 319.537 313.982 318.032C315.651 316.526 317.909 315.773 320.757 315.773C321.653 315.773 322.609 315.875 323.626 316.079C327.492 316.892 331.072 317.849 334.368 318.947C336.443 319.639 338.376 320.229 340.167 320.717C341.998 321.206 343.686 321.45 345.232 321.45C346.819 321.45 347.999 321.104 348.772 320.412C349.586 319.72 349.993 318.907 349.993 317.971C349.993 317.157 349.688 316.323 349.078 315.468C348.508 314.614 347.633 313.861 346.453 313.21C343.239 311.623 339.312 310.382 334.673 309.487C330.035 308.551 326.779 308.083 324.908 308.083C321.246 308.083 318.377 307.066 316.302 305.031C314.267 302.956 312.823 300.25 311.968 296.914C311.114 293.536 310.687 289.895 310.687 285.988C310.687 281.35 311.643 277.464 313.555 274.331C315.468 271.157 318.011 268.614 321.185 266.701C324.399 264.748 327.98 263.344 331.927 262.49C335.874 261.595 339.882 261.147 343.951 261.147C349.647 261.147 355.283 261.757 360.857 262.978C373.878 265.826 380.389 270.892 380.389 278.176C380.389 280.576 379.758 282.937 378.497 285.256C377.276 287.575 375.648 289.488 373.614 290.993C371.62 292.499 369.484 293.251 367.205 293.251H365.496C362.404 293.251 359.759 292.763 357.562 291.787C355.405 290.81 353.431 289.752 351.641 288.613C350.176 287.677 348.732 286.863 347.308 286.171C345.883 285.48 344.337 285.134 342.669 285.134H341.57C339.983 285.134 338.722 285.52 337.786 286.293C336.891 287.067 336.443 288.002 336.443 289.101C336.443 289.915 336.728 290.769 337.298 291.665C337.908 292.56 338.864 293.394 340.167 294.167C342.445 295.469 344.948 296.547 347.674 297.402C350.4 298.256 353.147 299.029 355.914 299.721C359.535 300.616 362.831 301.613 365.801 302.712C369.097 304.095 371.518 306.354 373.064 309.487C374.651 312.579 375.445 316.018 375.445 319.802V323.647C375.445 327.96 374.367 331.643 372.21 334.694C370.053 337.746 367.164 340.228 363.543 342.141C359.922 344.012 355.792 345.396 351.153 346.291C346.555 347.146 341.794 347.573 336.871 347.573Z"/>
</mask>
<path d="M336.871 347.573C330.238 347.573 324.908 346.901 320.879 345.559C316.892 344.175 313.982 342.202 312.151 339.638C310.32 337.075 309.405 333.962 309.405 330.3C309.405 328.103 309.751 325.885 310.442 323.647C311.175 321.409 312.355 319.537 313.982 318.032C315.651 316.526 317.909 315.773 320.757 315.773C321.653 315.773 322.609 315.875 323.626 316.079C327.492 316.892 331.072 317.849 334.368 318.947C336.443 319.639 338.376 320.229 340.167 320.717C341.998 321.206 343.686 321.45 345.232 321.45C346.819 321.45 347.999 321.104 348.772 320.412C349.586 319.72 349.993 318.907 349.993 317.971C349.993 317.157 349.688 316.323 349.078 315.468C348.508 314.614 347.633 313.861 346.453 313.21C343.239 311.623 339.312 310.382 334.673 309.487C330.035 308.551 326.779 308.083 324.908 308.083C321.246 308.083 318.377 307.066 316.302 305.031C314.267 302.956 312.823 300.25 311.968 296.914C311.114 293.536 310.687 289.895 310.687 285.988C310.687 281.35 311.643 277.464 313.555 274.331C315.468 271.157 318.011 268.614 321.185 266.701C324.399 264.748 327.98 263.344 331.927 262.49C335.874 261.595 339.882 261.147 343.951 261.147C349.647 261.147 355.283 261.757 360.857 262.978C373.878 265.826 380.389 270.892 380.389 278.176C380.389 280.576 379.758 282.937 378.497 285.256C377.276 287.575 375.648 289.488 373.614 290.993C371.62 292.499 369.484 293.251 367.205 293.251H365.496C362.404 293.251 359.759 292.763 357.562 291.787C355.405 290.81 353.431 289.752 351.641 288.613C350.176 287.677 348.732 286.863 347.308 286.171C345.883 285.48 344.337 285.134 342.669 285.134H341.57C339.983 285.134 338.722 285.52 337.786 286.293C336.891 287.067 336.443 288.002 336.443 289.101C336.443 289.915 336.728 290.769 337.298 291.665C337.908 292.56 338.864 293.394 340.167 294.167C342.445 295.469 344.948 296.547 347.674 297.402C350.4 298.256 353.147 299.029 355.914 299.721C359.535 300.616 362.831 301.613 365.801 302.712C369.097 304.095 371.518 306.354 373.064 309.487C374.651 312.579 375.445 316.018 375.445 319.802V323.647C375.445 327.96 374.367 331.643 372.21 334.694C370.053 337.746 367.164 340.228 363.543 342.141C359.922 344.012 355.792 345.396 351.153 346.291C346.555 347.146 341.794 347.573 336.871 347.573Z" fill="white"/>
<path d="M320.879 345.559L319.241 350.282L319.269 350.292L319.298 350.302L320.879 345.559ZM310.442 323.647L305.69 322.092L305.678 322.131L305.665 322.17L310.442 323.647ZM313.982 318.032L310.633 314.32L310.61 314.34L310.587 314.361L313.982 318.032ZM323.626 316.079L324.656 311.186L324.631 311.181L324.607 311.176L323.626 316.079ZM334.368 318.947L332.787 323.691L334.368 318.947ZM340.167 320.717L338.851 325.541L338.865 325.545L338.878 325.548L340.167 320.717ZM348.772 320.412L345.534 316.602L345.486 316.644L345.438 316.686L348.772 320.412ZM349.078 315.468L344.917 318.242L344.962 318.309L345.009 318.374L349.078 315.468ZM346.453 313.21L348.869 308.832L348.769 308.777L348.666 308.727L346.453 313.21ZM334.673 309.487L333.684 314.388L333.705 314.392L333.726 314.396L334.673 309.487ZM316.302 305.031L312.731 308.532L312.766 308.567L312.801 308.602L316.302 305.031ZM311.968 296.914L307.121 298.14L307.123 298.147L307.125 298.154L311.968 296.914ZM313.555 274.331L317.823 276.936L317.83 276.923L317.838 276.911L313.555 274.331ZM321.185 266.701L323.765 270.984L323.773 270.979L323.781 270.974L321.185 266.701ZM331.927 262.49L332.985 267.377L333.009 267.371L333.033 267.366L331.927 262.49ZM360.857 262.978L359.788 267.862L359.789 267.863L360.857 262.978ZM378.497 285.256L374.104 282.867L374.088 282.897L374.072 282.927L378.497 285.256ZM373.614 290.993L370.64 286.974L370.62 286.988L370.601 287.003L373.614 290.993ZM357.562 291.787L355.499 296.341L355.515 296.349L355.531 296.356L357.562 291.787ZM351.641 288.613L348.949 292.826L348.957 292.831L351.641 288.613ZM347.308 286.171L349.492 281.674L347.308 286.171ZM337.786 286.293L334.602 282.439L334.559 282.474L334.518 282.509L337.786 286.293ZM337.298 291.665L333.08 294.349L333.122 294.416L333.167 294.481L337.298 291.665ZM340.167 294.167L337.614 298.466L337.65 298.488L337.686 298.508L340.167 294.167ZM355.914 299.721L354.701 304.572L354.714 304.575L355.914 299.721ZM365.801 302.712L367.736 298.102L367.637 298.06L367.536 298.022L365.801 302.712ZM373.064 309.487L368.581 311.7L368.598 311.735L368.616 311.77L373.064 309.487ZM363.543 342.141L365.839 346.582L365.858 346.572L365.878 346.562L363.543 342.141ZM351.153 346.291L352.066 351.207L352.083 351.204L352.1 351.2L351.153 346.291ZM336.871 347.573V342.573C330.509 342.573 325.776 341.92 322.461 340.815L320.879 345.559L319.298 350.302C324.039 351.882 329.967 352.573 336.871 352.573V347.573ZM320.879 345.559L322.518 340.835C319.182 339.677 317.275 338.209 316.22 336.732L312.151 339.638L308.083 342.544C310.69 346.195 314.602 348.673 319.241 350.282L320.879 345.559ZM312.151 339.638L316.22 336.732C315.089 335.148 314.405 333.095 314.405 330.3H309.405H304.405C304.405 334.829 305.552 339.001 308.083 342.544L312.151 339.638ZM309.405 330.3H314.405C314.405 328.635 314.666 326.915 315.219 325.124L310.442 323.647L305.665 322.17C304.836 324.855 304.405 327.57 304.405 330.3H309.405ZM310.442 323.647L315.194 325.202C315.679 323.721 316.414 322.594 317.378 321.702L313.982 318.032L310.587 314.361C308.296 316.481 306.671 319.097 305.69 322.092L310.442 323.647ZM313.982 318.032L317.332 321.744C317.856 321.271 318.804 320.773 320.757 320.773V315.773V310.773C317.014 310.773 313.446 311.781 310.633 314.32L313.982 318.032ZM320.757 315.773V320.773C321.276 320.773 321.901 320.833 322.645 320.982L323.626 316.079L324.607 311.176C323.316 310.918 322.029 310.773 320.757 310.773V315.773ZM323.626 316.079L322.596 320.971C326.3 321.751 329.694 322.66 332.787 323.691L334.368 318.947L335.949 314.204C332.45 313.037 328.683 312.034 324.656 311.186L323.626 316.079ZM334.368 318.947L332.787 323.691C334.935 324.407 336.957 325.025 338.851 325.541L340.167 320.717L341.482 315.893C339.795 315.433 337.952 314.871 335.949 314.204L334.368 318.947ZM340.167 320.717L338.878 325.548C341.039 326.125 343.166 326.45 345.232 326.45V321.45V316.45C344.206 316.45 342.956 316.286 341.455 315.886L340.167 320.717ZM345.232 321.45V326.45C347.421 326.45 350.037 325.99 352.106 324.138L348.772 320.412L345.438 316.686C345.7 316.452 345.908 316.39 345.901 316.392C345.895 316.394 345.841 316.409 345.726 316.423C345.612 316.438 345.45 316.45 345.232 316.45V321.45ZM348.772 320.412L352.011 324.222C353.766 322.73 354.993 320.59 354.993 317.971H349.993H344.993C344.993 317.685 345.062 317.355 345.216 317.047C345.361 316.756 345.516 316.618 345.534 316.602L348.772 320.412ZM349.993 317.971H354.993C354.993 315.849 354.187 314.019 353.146 312.562L349.078 315.468L345.009 318.374C345.099 318.5 345.096 318.527 345.069 318.453C345.038 318.37 344.993 318.201 344.993 317.971H349.993ZM349.078 315.468L353.238 312.695C352.107 310.998 350.539 309.754 348.869 308.832L346.453 313.21L344.038 317.588C344.727 317.968 344.909 318.23 344.917 318.242L349.078 315.468ZM346.453 313.21L348.666 308.727C344.947 306.89 340.568 305.532 335.621 304.577L334.673 309.487L333.726 314.396C338.056 315.232 341.53 316.356 344.24 317.693L346.453 313.21ZM334.673 309.487L335.662 304.586C331.043 303.654 327.338 303.083 324.908 303.083V308.083V313.083C326.221 313.083 329.026 313.448 333.684 314.388L334.673 309.487ZM324.908 308.083V303.083C322.197 303.083 320.715 302.356 319.802 301.461L316.302 305.031L312.801 308.602C316.039 311.776 320.294 313.083 324.908 313.083V308.083ZM316.302 305.031L319.872 301.531C318.559 300.191 317.489 298.316 316.812 295.673L311.968 296.914L307.125 298.154C308.157 302.184 309.976 305.721 312.731 308.532L316.302 305.031ZM311.968 296.914L316.816 295.687C316.074 292.756 315.687 289.53 315.687 285.988H310.687H305.687C305.687 290.259 306.154 294.317 307.121 298.14L311.968 296.914ZM310.687 285.988H315.687C315.687 282.029 316.501 279.102 317.823 276.936L313.555 274.331L309.287 271.726C306.785 275.825 305.687 280.67 305.687 285.988H310.687ZM313.555 274.331L317.838 276.911C319.33 274.435 321.289 272.476 323.765 270.984L321.185 266.701L318.604 262.419C314.733 264.751 311.605 267.879 309.273 271.75L313.555 274.331ZM321.185 266.701L323.781 270.974C326.486 269.33 329.541 268.122 332.985 267.377L331.927 262.49L330.869 257.603C326.419 258.566 322.312 260.166 318.588 262.428L321.185 266.701ZM331.927 262.49L333.033 267.366C336.615 266.553 340.252 266.147 343.951 266.147V261.147V256.147C339.512 256.147 335.133 256.636 330.821 257.614L331.927 262.49ZM343.951 261.147V266.147C349.287 266.147 354.564 266.718 359.788 267.862L360.857 262.978L361.927 258.094C356.002 256.796 350.008 256.147 343.951 256.147V261.147ZM360.857 262.978L359.789 267.863C365.968 269.214 370.023 270.983 372.435 272.86C374.657 274.588 375.389 276.295 375.389 278.176H380.389H385.389C385.389 272.773 382.866 268.305 378.576 264.968C374.479 261.779 368.768 259.59 361.926 258.094L360.857 262.978ZM380.389 278.176H375.389C375.389 279.661 375.007 281.206 374.104 282.867L378.497 285.256L382.889 287.645C384.508 284.667 385.389 281.492 385.389 278.176H380.389ZM378.497 285.256L374.072 282.927C373.189 284.605 372.048 285.932 370.64 286.974L373.614 290.993L376.588 295.012C379.249 293.043 381.363 290.545 382.921 287.585L378.497 285.256ZM373.614 290.993L370.601 287.003C369.386 287.92 368.29 288.251 367.205 288.251V293.251V298.251C370.677 298.251 373.854 297.077 376.627 294.983L373.614 290.993ZM367.205 293.251V288.251H365.496V293.251V298.251H367.205V293.251ZM365.496 293.251V288.251C362.911 288.251 360.995 287.841 359.592 287.218L357.562 291.787L355.531 296.356C358.522 297.685 361.896 298.251 365.496 298.251V293.251ZM357.562 291.787L359.624 287.232C357.658 286.342 355.896 285.394 354.325 284.394L351.641 288.613L348.957 292.831C350.967 294.111 353.152 295.278 355.499 296.341L357.562 291.787ZM351.641 288.613L354.333 284.399C352.72 283.369 351.107 282.458 349.492 281.674L347.308 286.171L345.123 290.669C346.357 291.268 347.632 291.985 348.949 292.826L351.641 288.613ZM347.308 286.171L349.492 281.674C347.351 280.634 345.052 280.134 342.669 280.134V285.134V290.134C343.622 290.134 344.416 290.326 345.123 290.669L347.308 286.171ZM342.669 285.134V280.134H341.57V285.134V290.134H342.669V285.134ZM341.57 285.134V280.134C339.183 280.134 336.678 280.724 334.602 282.439L337.786 286.293L340.971 290.148C340.889 290.215 340.842 290.222 340.899 290.204C340.97 290.182 341.176 290.134 341.57 290.134V285.134ZM337.786 286.293L334.518 282.509C332.619 284.15 331.443 286.428 331.443 289.101H336.443H341.443C341.443 289.253 341.407 289.487 341.29 289.732C341.236 289.845 341.178 289.932 341.13 289.993C341.083 290.053 341.052 290.079 341.054 290.078L337.786 286.293ZM336.443 289.101H331.443C331.443 291.115 332.152 292.891 333.08 294.349L337.298 291.665L341.516 288.98C341.413 288.818 341.393 288.749 341.4 288.771C341.405 288.784 341.416 288.82 341.425 288.878C341.435 288.936 341.443 289.012 341.443 289.101H336.443ZM337.298 291.665L333.167 294.481C334.318 296.17 335.917 297.459 337.614 298.466L340.167 294.167L342.719 289.868C341.811 289.329 341.498 288.949 341.429 288.848L337.298 291.665ZM340.167 294.167L337.686 298.508C340.303 300.004 343.139 301.22 346.178 302.173L347.674 297.402L349.169 292.631C346.756 291.874 344.588 290.935 342.647 289.826L340.167 294.167ZM347.674 297.402L346.178 302.173C348.998 303.057 351.839 303.856 354.701 304.572L355.914 299.721L357.126 294.87C354.454 294.203 351.802 293.456 349.169 292.631L347.674 297.402ZM355.914 299.721L354.714 304.575C358.185 305.433 361.299 306.378 364.067 307.401L365.801 302.712L367.536 298.022C364.363 296.849 360.885 295.8 357.113 294.867L355.914 299.721ZM365.801 302.712L363.866 307.322C366.08 308.251 367.581 309.673 368.581 311.7L373.064 309.487L377.548 307.274C375.456 303.034 372.115 299.939 367.736 298.102L365.801 302.712ZM373.064 309.487L368.616 311.77C369.809 314.094 370.445 316.74 370.445 319.802H375.445H380.445C380.445 315.296 379.494 311.064 377.513 307.204L373.064 309.487ZM375.445 319.802H370.445V323.647H375.445H380.445V319.802H375.445ZM375.445 323.647H370.445C370.445 327.091 369.598 329.726 368.127 331.809L372.21 334.694L376.293 337.58C379.135 333.559 380.445 328.829 380.445 323.647H375.445ZM372.21 334.694L368.127 331.809C366.466 334.158 364.202 336.138 361.208 337.719L363.543 342.141L365.878 346.562C370.127 344.318 373.64 341.334 376.293 337.58L372.21 334.694ZM363.543 342.141L361.247 337.699C358.112 339.319 354.447 340.563 350.205 341.382L351.153 346.291L352.1 351.2C357.136 350.229 361.731 348.705 365.839 346.582L363.543 342.141ZM351.153 346.291L350.239 341.375C345.958 342.171 341.504 342.573 336.871 342.573V347.573V352.573C342.085 352.573 347.152 352.12 352.066 351.207L351.153 346.291Z" fill="black" mask="url(#path-8-outside-3_3357_81)"/>
<rect x="474.25" y="214.25" width="211.5" height="175.5" rx="43.75" fill="black" stroke="black" stroke-width="7.5"/>
<mask id="path-11-outside-4_3357_81" maskUnits="userSpaceOnUse" x="542" y="257" width="76" height="95" fill="black">
<rect fill="white" x="542" y="257" width="76" height="95"/>
<path d="M569.124 346.108C562.858 346.108 558.138 345.253 554.964 343.544C551.831 341.795 549.715 338.946 548.616 335C547.558 331.053 547.029 325.743 547.029 319.069C547.029 310.524 547.68 301.451 548.982 291.848C550.285 282.245 551.729 274.737 553.316 269.326C554.252 266.437 555.615 264.504 557.405 263.527C559.196 262.51 561.189 262.001 563.387 262.001C574.373 262.164 583.488 264.361 590.73 268.593C597.973 272.784 603.385 278.196 606.966 284.829C610.547 291.42 612.337 298.297 612.337 305.458C612.296 310.708 611.36 315.753 609.529 320.595C607.698 325.437 604.972 329.771 601.351 333.596C597.729 337.421 593.233 340.472 587.862 342.751C582.491 344.989 576.245 346.108 569.124 346.108ZM573.274 317.849C576.733 317.849 579.5 317.259 581.575 316.079C583.691 314.858 585.217 313.291 586.153 311.379C587.129 309.466 587.618 307.432 587.618 305.275C587.618 301.613 586.499 298.216 584.261 295.083C582.063 291.909 579.256 290.139 575.838 289.772C573.478 298.846 572.176 308.185 571.932 317.788L573.274 317.849Z"/>
</mask>
<path d="M569.124 346.108C562.858 346.108 558.138 345.253 554.964 343.544C551.831 341.795 549.715 338.946 548.616 335C547.558 331.053 547.029 325.743 547.029 319.069C547.029 310.524 547.68 301.451 548.982 291.848C550.285 282.245 551.729 274.737 553.316 269.326C554.252 266.437 555.615 264.504 557.405 263.527C559.196 262.51 561.189 262.001 563.387 262.001C574.373 262.164 583.488 264.361 590.73 268.593C597.973 272.784 603.385 278.196 606.966 284.829C610.547 291.42 612.337 298.297 612.337 305.458C612.296 310.708 611.36 315.753 609.529 320.595C607.698 325.437 604.972 329.771 601.351 333.596C597.729 337.421 593.233 340.472 587.862 342.751C582.491 344.989 576.245 346.108 569.124 346.108ZM573.274 317.849C576.733 317.849 579.5 317.259 581.575 316.079C583.691 314.858 585.217 313.291 586.153 311.379C587.129 309.466 587.618 307.432 587.618 305.275C587.618 301.613 586.499 298.216 584.261 295.083C582.063 291.909 579.256 290.139 575.838 289.772C573.478 298.846 572.176 308.185 571.932 317.788L573.274 317.849Z" fill="white"/>
<path d="M554.964 343.544L552.526 347.91L552.56 347.929L552.593 347.947L554.964 343.544ZM548.616 335L543.787 336.294L543.793 336.317L543.799 336.34L548.616 335ZM548.982 291.848L544.028 291.176L548.982 291.848ZM553.316 269.326L548.559 267.785L548.538 267.851L548.518 267.919L553.316 269.326ZM557.405 263.527L559.8 267.917L559.838 267.896L559.875 267.875L557.405 263.527ZM563.387 262.001L563.461 257.002L563.424 257.001H563.387V262.001ZM590.73 268.593L588.208 272.91L588.217 272.916L588.226 272.921L590.73 268.593ZM606.966 284.829L602.566 287.204L602.572 287.215L606.966 284.829ZM612.337 305.458L617.337 305.497L617.337 305.478V305.458H612.337ZM587.862 342.751L589.785 347.366L589.8 347.36L589.815 347.354L587.862 342.751ZM573.274 317.849L573.047 322.843L573.161 322.849H573.274V317.849ZM581.575 316.079L584.047 320.425L584.06 320.417L584.074 320.41L581.575 316.079ZM586.153 311.379L581.7 309.105L581.68 309.143L581.662 309.181L586.153 311.379ZM584.261 295.083L580.15 297.929L580.171 297.959L580.192 297.989L584.261 295.083ZM575.838 289.772L576.371 284.801L572.084 284.342L570.999 288.514L575.838 289.772ZM571.932 317.788L566.933 317.661L566.809 322.56L571.705 322.782L571.932 317.788ZM569.124 346.108V341.108C563.156 341.108 559.424 340.267 557.334 339.142L554.964 343.544L552.593 347.947C556.851 350.239 562.559 351.108 569.124 351.108V346.108ZM554.964 343.544L557.402 339.179C555.601 338.174 554.229 336.519 553.433 333.659L548.616 335L543.799 336.34C545.201 341.374 548.06 345.416 552.526 347.91L554.964 343.544ZM548.616 335L553.446 333.705C552.549 330.361 552.029 325.544 552.029 319.069H547.029H542.029C542.029 325.941 542.567 331.744 543.787 336.294L548.616 335ZM547.029 319.069H552.029C552.029 310.777 552.661 301.929 553.937 292.519L548.982 291.848L544.028 291.176C542.699 300.972 542.029 310.272 542.029 319.069H547.029ZM548.982 291.848L553.937 292.519C555.226 283.016 556.63 275.793 558.114 270.733L553.316 269.326L548.518 267.919C546.828 273.682 545.343 281.474 544.028 291.176L548.982 291.848ZM553.316 269.326L558.073 270.867C558.804 268.609 559.575 268.039 559.8 267.917L557.405 263.527L555.011 259.138C551.654 260.969 549.7 264.264 548.559 267.785L553.316 269.326ZM557.405 263.527L559.875 267.875C560.862 267.314 561.995 267.001 563.387 267.001V262.001V257.001C560.384 257.001 557.529 257.706 554.935 259.18L557.405 263.527ZM563.387 262.001L563.313 267.001C573.697 267.155 581.905 269.227 588.208 272.91L590.73 268.593L593.253 264.276C585.071 259.496 575.049 257.174 563.461 257.002L563.387 262.001ZM590.73 268.593L588.226 272.921C594.76 276.702 599.472 281.473 602.566 287.204L606.966 284.829L611.366 282.453C607.298 274.92 601.187 268.867 593.235 264.266L590.73 268.593ZM606.966 284.829L602.572 287.215C605.775 293.111 607.337 299.171 607.337 305.458H612.337H617.337C617.337 297.423 615.319 289.73 611.359 282.442L606.966 284.829ZM612.337 305.458L607.337 305.42C607.301 310.086 606.472 314.545 604.853 318.827L609.529 320.595L614.206 322.364C616.249 316.961 617.292 311.329 617.337 305.497L612.337 305.458ZM609.529 320.595L604.853 318.827C603.26 323.038 600.894 326.806 597.72 330.158L601.351 333.596L604.981 337.033C609.051 332.736 612.136 327.837 614.206 322.364L609.529 320.595ZM601.351 333.596L597.72 330.158C594.62 333.432 590.715 336.109 585.909 338.148L587.862 342.751L589.815 347.354C595.751 344.836 600.838 341.409 604.981 337.033L601.351 333.596ZM587.862 342.751L585.939 338.136C581.297 340.07 575.728 341.108 569.124 341.108V346.108V351.108C576.761 351.108 583.685 349.908 589.785 347.366L587.862 342.751ZM573.274 317.849V322.849C577.235 322.849 580.955 322.183 584.047 320.425L581.575 316.079L579.104 311.732C578.045 312.334 576.231 312.849 573.274 312.849V317.849ZM581.575 316.079L584.074 320.41C586.921 318.767 589.209 316.509 590.644 313.577L586.153 311.379L581.662 309.181C581.225 310.074 580.462 310.949 579.077 311.748L581.575 316.079ZM586.153 311.379L590.606 313.653C591.944 311.033 592.618 308.219 592.618 305.275H587.618H582.618C582.618 306.645 582.315 307.9 581.7 309.105L586.153 311.379ZM587.618 305.275H592.618C592.618 300.516 591.14 296.111 588.329 292.176L584.261 295.083L580.192 297.989C581.857 300.32 582.618 302.711 582.618 305.275H587.618ZM584.261 295.083L588.372 292.236C585.461 288.032 581.421 285.342 576.371 284.801L575.838 289.772L575.305 294.744C577.091 294.935 578.666 295.785 580.15 297.929L584.261 295.083ZM575.838 289.772L570.999 288.514C568.54 297.967 567.187 307.685 566.933 317.661L571.932 317.788L576.93 317.915C577.165 308.684 578.415 299.726 580.677 291.031L575.838 289.772ZM571.932 317.788L571.705 322.782L573.047 322.843L573.274 317.849L573.501 312.854L572.159 312.793L571.932 317.788Z" fill="black" mask="url(#path-11-outside-4_3357_81)"/>
</svg>
