<svg width="512" height="512" viewBox="0 0 512 512" fill="none" xmlns="http://www.w3.org/2000/svg">
<g filter="url(#filter0_i_3321_16)">
<rect width="512" height="512" rx="65" fill="white"/>
</g>
<rect x="10" y="10" width="492" height="492" rx="55" stroke="black" stroke-width="20"/>
<path d="M239.535 88.5272C241.249 87.3882 244.677 85.7235 247.203 84.7597C249.639 83.8836 253.338 83.0074 255.323 83.0074C257.308 82.9198 260.917 83.6207 263.443 84.4969C265.879 85.373 269.037 86.6873 270.39 87.3882C271.744 88.0891 306.569 118.404 347.801 154.764L349.09 155.902C421.349 219.703 422.901 221.073 429 233.18L428.549 407.534L425.752 413.229C423.857 416.997 421.512 419.976 418.985 421.991C416.82 423.655 413.121 425.933 406.445 429L308.554 428.912L305.577 426.81C304.043 425.583 301.968 423.568 301.066 422.254C299.712 420.063 299.532 415.683 299.081 372.839L299.075 372.212C298.63 326.57 298.621 325.691 296.735 323.248C295.652 321.934 293.668 320.007 292.404 319.043C290.059 317.378 288.525 317.291 255.774 317.291C223.024 317.291 221.49 317.378 219.144 319.043C217.881 320.007 215.896 321.934 214.814 323.248C212.928 325.691 212.919 326.57 212.474 372.212L212.468 372.839C212.017 415.683 211.837 420.063 210.483 422.254C209.581 423.568 207.506 425.583 202.995 428.912L105.104 429L100.323 426.81C97.7964 425.583 94.0973 423.48 92.2928 421.991C90.2177 420.414 87.6915 417.084 83 407.534V231.428L86.1578 225.995C88.9546 221.089 97.255 213.467 162.846 155.553C203.265 119.806 237.82 89.6662 239.535 88.5272Z" fill="black"/>
<defs>
<filter id="filter0_i_3321_16" x="0" y="-31" width="512" height="543" filterUnits="userSpaceOnUse" color-interpolation-filters="sRGB">
<feFlood flood-opacity="0" result="BackgroundImageFix"/>
<feBlend mode="normal" in="SourceGraphic" in2="BackgroundImageFix" result="shape"/>
<feColorMatrix in="SourceAlpha" type="matrix" values="0 0 0 0 0 0 0 0 0 0 0 0 0 0 0 0 0 0 127 0" result="hardAlpha"/>
<feOffset dy="-31"/>
<feGaussianBlur stdDeviation="20"/>
<feComposite in2="hardAlpha" operator="arithmetic" k2="-1" k3="1"/>
<feColorMatrix type="matrix" values="0 0 0 0 0 0 0 0 0 0 0 0 0 0 0 0 0 0 0.5 0"/>
<feBlend mode="normal" in2="shape" result="effect1_innerShadow_3321_16"/>
</filter>
</defs>
</svg>
