<svg width="512" height="512" viewBox="0 0 512 512" fill="none" xmlns="http://www.w3.org/2000/svg">
<g filter="url(#filter0_i_3321_6)">
<rect width="512" height="512" rx="65" fill="white"/>
</g>
<rect x="10" y="10" width="492" height="492" rx="55" stroke="black" stroke-width="20"/>
<path d="M215.453 87.9427C219.373 86.9964 227.279 85.5095 233.023 84.6308C240.727 83.4818 246.674 83.0762 255.459 83.0087C262.082 82.9411 269.718 83.279 272.354 83.6846C275.057 84.0901 280.936 85.0363 285.396 85.7122C289.857 86.4557 297.02 88.0103 301.277 89.1593C305.535 90.2407 312.563 92.5388 316.82 94.0934C321.078 95.7155 327.498 98.4191 331.012 100.041C334.526 101.731 340 104.57 343.176 106.395C346.352 108.22 351.353 111.329 354.326 113.356C357.3 115.317 362.503 119.102 365.814 121.805C369.126 124.441 375.005 129.713 378.789 133.498C382.641 137.283 388.25 143.501 391.224 147.286C394.265 151.139 398.184 156.411 399.941 158.979C401.698 161.548 404.807 166.752 406.902 170.47C408.997 174.187 412.038 180.27 413.66 183.988C415.349 187.705 417.647 193.518 418.796 196.83C420.012 200.141 421.972 206.833 423.256 211.699C424.472 216.566 425.959 223.528 426.567 227.245C427.108 230.962 427.851 236.234 428.257 238.87C428.662 241.574 429 248.13 429 253.402C429 258.742 428.662 266.379 428.324 270.502C427.986 274.625 427.175 280.979 426.567 284.696C425.959 288.414 424.607 294.97 423.526 299.228C422.512 303.486 420.755 309.569 419.674 312.746C418.593 315.923 416.701 320.924 415.484 323.898C414.336 326.872 411.497 332.82 409.267 337.078C407.037 341.336 403.32 347.757 401.09 351.272C398.793 354.787 394.468 360.734 391.562 364.452C388.588 368.169 382.777 374.523 378.654 378.646C374.532 382.769 368.585 388.108 365.477 390.542C362.3 392.975 357.3 396.625 354.326 398.72C351.353 400.748 345.879 404.127 342.162 406.222C338.445 408.318 331.89 411.562 327.633 413.522C323.375 415.414 315.874 418.321 311.076 419.943C306.278 421.565 298.98 423.593 294.857 424.539C290.735 425.485 283.166 426.837 277.963 427.581C271.205 428.594 265.191 429 256.676 429C247.553 429 242.214 428.594 233.361 427.31C227.077 426.364 218.359 424.742 214.102 423.593C209.844 422.511 203.289 420.551 199.572 419.267C195.855 417.983 190.246 415.82 187.07 414.468C183.894 413.116 178.285 410.413 174.568 408.385C170.852 406.425 164.905 402.91 161.391 400.545C157.877 398.247 153.011 394.867 150.578 393.042C148.145 391.217 143.347 387.23 139.901 384.188C136.387 381.147 130.98 375.739 127.804 372.225C124.628 368.71 119.898 362.897 117.195 359.383C114.559 355.868 110.437 349.785 108.071 345.865C105.706 341.945 102.125 335.456 100.232 331.333C98.2727 327.21 96.1777 322.208 95.502 320.181C94.6234 317.41 94.4207 314.976 94.6234 310.38C94.8262 306.392 95.4344 303.013 96.3129 300.58C97.1238 298.552 99.1512 295.173 100.773 293.145C102.395 291.117 105.368 288.278 107.396 286.927C109.423 285.507 112.87 283.75 115.1 283.006C117.87 282.06 120.844 281.587 124.561 281.587C127.534 281.655 131.318 282.06 133.008 282.601C134.697 283.074 137.4 284.223 139.09 285.034C140.779 285.913 143.82 288.278 145.915 290.374C148.754 293.28 150.713 296.322 154.295 303.283C156.795 308.285 160.242 314.503 161.931 317.139C163.621 319.775 166.189 323.357 167.608 325.25C169.095 327.075 172.946 331.333 176.123 334.577C179.366 337.889 184.773 342.62 188.084 345.121C191.395 347.622 195.991 350.799 198.221 352.151C200.451 353.435 205.181 355.936 208.695 357.558C212.209 359.247 218.021 361.478 221.535 362.627C225.049 363.776 230.253 365.128 233.023 365.736C235.794 366.277 240.863 367.088 244.174 367.493C247.485 367.831 253.162 368.169 256.676 368.169C260.19 368.169 266.272 367.696 270.191 367.223C274.111 366.682 279.855 365.601 283.031 364.79C286.207 364.046 291.343 362.492 294.52 361.343C297.696 360.194 303.44 357.693 307.359 355.733C311.279 353.84 316.415 350.866 318.848 349.244C321.28 347.622 325.335 344.581 327.971 342.418C330.606 340.322 334.729 336.47 337.161 333.901C339.594 331.401 342.838 327.751 344.325 325.926C345.811 324.033 348.447 320.451 350.069 317.815C351.758 315.179 354.461 310.515 356.016 307.339C357.57 304.162 359.462 300.039 360.205 298.214C360.949 296.322 362.3 292.401 363.179 289.427C364.125 286.453 365.477 280.844 366.288 276.923C367.572 270.975 367.774 267.596 367.774 256.308C367.774 246.44 367.504 241.168 366.625 236.707C366.017 233.396 364.598 227.583 363.517 223.865C362.436 220.148 360.949 215.552 360.205 213.727C359.462 211.835 357.57 207.779 356.016 204.602C354.461 201.426 351.758 196.694 350.069 194.126C348.447 191.49 345.271 187.232 343.176 184.663C341.013 182.027 337.026 177.769 334.323 175.133C331.552 172.497 327.025 168.712 324.254 166.617C321.483 164.589 317.834 162.021 316.145 161.007C314.455 159.926 310.062 157.56 306.346 155.735C302.629 153.91 296.547 151.409 292.83 150.125C289.113 148.909 283.775 147.489 281.004 146.881C278.233 146.34 273.368 145.529 270.191 145.191C267.015 144.786 260.866 144.448 256.473 144.448C252.148 144.448 245.12 144.921 240.93 145.529C236.808 146.137 230.455 147.354 226.941 148.3C223.427 149.179 217.954 150.936 214.777 152.153C211.601 153.369 207.141 155.33 204.776 156.546C202.478 157.695 198.356 160.061 195.653 161.818C193.017 163.508 188.692 166.617 186.057 168.712C183.489 170.808 179.096 174.795 176.325 177.567C173.555 180.338 169.568 185.069 167.338 188.043C165.175 191.017 163.35 193.585 163.35 193.788C163.35 193.991 167.473 197.235 172.541 201.02C177.542 204.873 182.205 208.793 182.813 209.807C183.556 210.956 184.029 212.984 184.029 215.146C184.029 217.647 183.624 219.269 182.678 220.621C181.664 222.041 170.581 227.921 138.752 243.94C103.341 261.716 95.7047 265.365 93.3395 265.365C91.7176 265.433 89.5551 264.96 88.4062 264.419C87.325 263.879 85.6355 262.392 83.0676 259.012L83 205.616C83 156.073 83.0676 152.085 84.2164 149.922C84.8246 148.638 86.1086 147.016 87.0547 146.34C88.0008 145.664 89.8254 144.853 91.1094 144.515C92.7312 144.11 94.3531 144.245 96.1777 144.853C97.6645 145.394 102.327 148.368 114.086 157.29L119.087 150.733C121.857 147.084 126.182 141.812 128.683 139.04C131.251 136.269 135.508 131.944 138.076 129.51C140.644 127.077 145.713 122.751 149.227 119.98C152.741 117.209 158.823 112.883 162.742 110.382C166.662 107.882 174.366 103.556 179.975 100.852C185.516 98.0811 194.234 94.4313 199.234 92.7416C204.235 91.0518 211.534 88.889 215.453 87.9427Z" fill="black"/>
<defs>
<filter id="filter0_i_3321_6" x="0" y="-31" width="512" height="543" filterUnits="userSpaceOnUse" color-interpolation-filters="sRGB">
<feFlood flood-opacity="0" result="BackgroundImageFix"/>
<feBlend mode="normal" in="SourceGraphic" in2="BackgroundImageFix" result="shape"/>
<feColorMatrix in="SourceAlpha" type="matrix" values="0 0 0 0 0 0 0 0 0 0 0 0 0 0 0 0 0 0 127 0" result="hardAlpha"/>
<feOffset dy="-31"/>
<feGaussianBlur stdDeviation="20"/>
<feComposite in2="hardAlpha" operator="arithmetic" k2="-1" k3="1"/>
<feColorMatrix type="matrix" values="0 0 0 0 0 0 0 0 0 0 0 0 0 0 0 0 0 0 0.5 0"/>
<feBlend mode="normal" in2="shape" result="effect1_innerShadow_3321_6"/>
</filter>
</defs>
</svg>
