<svg width="512" height="512" viewBox="0 0 512 512" fill="none" xmlns="http://www.w3.org/2000/svg">
<g filter="url(#filter0_i_3321_10)">
<rect width="512" height="512" rx="65" fill="white"/>
</g>
<rect x="10" y="10" width="492" height="492" rx="55" stroke="black" stroke-width="20"/>
<path d="M242.799 84.8243C240.577 85.7934 237.277 87.3956 235.465 88.3881C233.654 89.3806 229.855 91.8424 227.032 93.8666C224.208 95.8829 218.76 100.283 214.932 103.636C211.104 106.996 202.516 115.577 195.85 122.713C189.191 129.848 178.961 141.485 173.116 148.573C167.279 155.662 159.755 164.633 156.403 168.502C153.044 172.378 148.754 177.896 146.87 180.764L143.43 185.992C122.83 186.618 118.533 187.118 114.096 188.392C110.87 189.314 106.169 191.111 103.646 192.378C101.123 193.651 97.882 196.012 96.4373 197.622C94.9926 199.231 92.7339 202.311 91.4065 204.46C90.0865 206.609 88.1652 210.657 87.1311 213.447C86.0971 216.237 84.8871 220.637 84.4397 223.216C83.9997 225.795 83.4204 234.939 83.1637 243.536C82.8484 254.165 82.9877 261.292 83.5891 265.809C84.0804 269.467 84.9898 276.149 85.6131 280.658C86.2291 285.168 87.5198 291.498 88.4805 294.726C89.4338 297.946 91.2965 302.494 92.6239 304.823C94.1786 307.566 96.452 310.106 99.0627 312.013C101.277 313.631 105.575 315.835 108.596 316.905C111.625 317.976 117.235 319.195 121.063 319.609C124.891 320.032 131.491 320.172 135.73 319.938L143.43 319.5C149.554 329.074 154.027 335.717 157.32 340.445C160.613 345.173 167.447 354.317 172.507 360.764C177.568 367.212 186.492 378.114 192.337 384.992C198.182 391.869 207.055 401.693 212.064 406.827C217.073 411.962 223.644 418.12 226.665 420.512C229.694 422.911 233.977 425.701 236.199 426.725C238.421 427.757 241.552 428.749 243.165 428.945C245.121 429.174 247.566 428.692 250.499 427.499C252.919 426.514 255.889 424.779 257.099 423.646C258.309 422.505 260.362 419.848 261.653 417.738C262.951 415.635 265.012 411.009 266.237 407.46C267.461 403.912 269.111 397.582 269.903 393.393C270.695 389.204 271.839 381.373 272.448 376.004C273.049 370.627 273.885 360.78 274.311 354.122C274.729 347.463 275.396 326.002 275.785 306.449C276.181 286.895 276.709 255.064 276.965 235.721C277.251 214.604 277.112 190.174 276.621 174.567C276.166 160.273 275.469 144.275 275.059 139.007C274.648 133.74 273.812 125.565 273.189 120.837C272.573 116.109 271.407 109.247 270.6 105.597C269.801 101.94 268.312 97.0161 267.293 94.6559C266.281 92.2879 264.557 89.3572 263.472 88.138C262.387 86.9188 260.26 85.2464 258.749 84.4258C256.85 83.3942 254.584 82.9565 251.416 83.0034C248.482 83.0425 245.38 83.6989 242.799 84.8243ZM348.768 140.633C346.347 141.915 343.238 144.322 341.852 145.971C340.473 147.62 338.684 150.558 337.885 152.489C336.887 154.904 336.433 157.717 336.433 161.476C336.433 165.259 336.88 168.033 337.899 170.464C338.706 172.394 340.327 175.184 341.5 176.645C342.673 178.115 345.944 180.928 348.768 182.898C351.591 184.867 356.211 188.806 359.034 191.651C361.858 194.495 365.862 199.419 367.923 202.592C369.991 205.773 372.836 210.829 374.244 213.838C375.659 216.847 377.654 221.943 378.688 225.17C379.729 228.39 381.299 234.72 382.179 239.238C383.374 245.341 383.8 250.351 383.851 258.776C383.895 267.021 383.55 271.913 382.575 276.751C381.834 280.408 380.411 285.856 379.407 288.864C378.395 291.873 376.209 297.149 374.545 300.587C372.873 304.026 369.653 309.473 367.395 312.701C365.129 315.921 360.816 321.024 357.81 324.033C354.796 327.042 350.953 330.824 349.266 332.434C347.58 334.044 345.541 336.772 344.734 338.491C343.927 340.21 342.915 343.29 342.475 345.329C341.845 348.299 341.933 350.058 342.893 354.122C343.568 356.998 345.13 360.725 346.479 362.718C347.792 364.656 350.33 367.204 352.119 368.384C353.908 369.572 357.348 370.948 359.768 371.456C363.09 372.143 365.158 372.143 368.201 371.471C370.651 370.932 374.112 369.275 377.001 367.259C379.619 365.43 385.582 359.881 390.238 354.927C394.895 349.972 400.535 343.274 402.779 340.054C405.015 336.826 408.638 331.028 410.831 327.159C413.023 323.29 416.353 316.257 418.23 311.529C420.108 306.8 422.506 299.767 423.562 295.898C424.61 292.03 426.136 284.816 426.942 279.877C427.837 274.414 428.578 265.372 428.834 256.822C429.194 244.622 429.04 241.41 427.654 232.595C426.774 227.007 425.432 219.793 424.669 216.573C423.906 213.346 422.396 208.071 421.318 204.851C420.232 201.623 417.871 195.824 416.067 191.956C414.255 188.087 410.919 181.936 408.645 178.279C406.284 174.488 400.887 167.752 396.068 162.594C390.656 156.787 385.142 151.793 380.668 148.628C376.833 145.924 371.721 142.634 369.301 141.321C365.767 139.406 363.742 138.874 359.034 138.617C353.666 138.32 352.794 138.492 348.768 140.633ZM313.934 196.316C312.115 196.707 309.167 198.005 307.377 199.185C305.581 200.365 302.999 202.92 301.635 204.851C300.264 206.781 298.636 210.298 298.005 212.666C297.111 216.042 297.023 217.886 297.602 221.263C298.005 223.631 298.959 226.96 299.721 228.671C300.477 230.391 303.263 234.08 305.918 236.877C309.467 240.637 311.154 243.153 312.335 246.467C313.215 248.936 313.941 252.453 313.941 254.282C313.948 256.111 313.45 259.362 312.834 261.511C312.217 263.66 310.333 267.357 308.646 269.717C306.967 272.077 304.928 275.594 304.121 277.532C303.109 279.947 302.647 282.761 302.64 286.52C302.633 290.756 303.051 292.96 304.503 296.289C305.529 298.649 307.495 301.76 308.866 303.198C310.245 304.636 312.848 306.605 314.667 307.59C316.486 308.567 319.448 309.598 321.267 309.887C323.086 310.177 326.217 310.044 328.234 309.598C330.258 309.153 333.345 307.652 335.135 306.253C336.909 304.854 340.327 301.072 342.732 297.852C345.13 294.624 348.548 288.825 350.322 284.957C352.097 281.088 354.253 275.11 355.111 271.671C356.328 266.763 356.666 263.144 356.666 254.868C356.666 246.545 356.336 242.997 355.096 238.065C354.231 234.627 352.185 228.828 350.55 225.17C348.914 221.513 345.695 215.917 343.407 212.721C341.111 209.532 337.254 205.163 334.834 203.022C332.414 200.873 329.114 198.512 327.5 197.762C325.887 197.02 322.917 196.223 320.9 196.004C318.884 195.777 315.752 195.918 313.934 196.316Z" fill="black"/>
<defs>
<filter id="filter0_i_3321_10" x="0" y="-31" width="512" height="543" filterUnits="userSpaceOnUse" color-interpolation-filters="sRGB">
<feFlood flood-opacity="0" result="BackgroundImageFix"/>
<feBlend mode="normal" in="SourceGraphic" in2="BackgroundImageFix" result="shape"/>
<feColorMatrix in="SourceAlpha" type="matrix" values="0 0 0 0 0 0 0 0 0 0 0 0 0 0 0 0 0 0 127 0" result="hardAlpha"/>
<feOffset dy="-31"/>
<feGaussianBlur stdDeviation="20"/>
<feComposite in2="hardAlpha" operator="arithmetic" k2="-1" k3="1"/>
<feColorMatrix type="matrix" values="0 0 0 0 0 0 0 0 0 0 0 0 0 0 0 0 0 0 0.5 0"/>
<feBlend mode="normal" in2="shape" result="effect1_innerShadow_3321_10"/>
</filter>
</defs>
</svg>
