<svg width="512" height="512" viewBox="0 0 512 512" fill="none" xmlns="http://www.w3.org/2000/svg">
<g filter="url(#filter0_i_3321_7)">
<rect width="512" height="512" rx="65" fill="white"/>
</g>
<rect x="10" y="10" width="492" height="492" rx="55" stroke="black" stroke-width="20"/>
<path d="M295.713 99.5699C354.755 91.1888 404.183 84.0919 405.479 83.754C406.774 83.416 410.115 83.0781 412.774 83.0105C417.342 82.9429 418.023 83.1457 421.501 85.3085C424.023 86.8631 425.864 88.7556 429 94.0951V218.797C429 338.566 428.932 343.702 427.705 348.907C427.023 351.881 425.591 356.274 424.637 358.707C423.682 361.14 421.296 365.534 419.455 368.508C417.478 371.684 413.728 376.28 410.251 379.66C406.433 383.445 402.275 386.622 398.32 388.987C394.911 390.947 389.389 393.448 386.048 394.529C382.708 395.543 377.117 396.828 373.776 397.233C370.163 397.774 365.391 397.909 362.186 397.639C359.186 397.368 354.755 396.692 352.301 396.152C349.846 395.611 346.165 394.529 344.119 393.786C342.074 393.043 338.392 391.353 335.938 390.001C333.484 388.717 329.802 386.284 327.757 384.729C325.711 383.107 322.439 380.201 320.53 378.173C318.553 376.213 315.757 372.766 314.258 370.535C312.758 368.305 310.371 364.182 309.076 361.411C307.713 358.64 305.94 353.908 305.122 350.934C303.895 346.541 303.622 343.635 303.622 335.389C303.554 326.873 303.826 324.439 305.122 319.979C305.94 317.14 307.44 312.882 308.394 310.516C309.349 308.218 311.803 303.892 313.78 300.918C315.757 297.944 319.644 293.348 322.439 290.712C325.166 288.076 329.393 284.629 331.847 283.007C334.302 281.385 338.256 279.222 340.71 278.208C343.165 277.194 347.596 275.64 350.596 274.761C355.232 273.477 357.55 273.207 366.277 273.274C374.594 273.274 377.526 273.545 381.958 274.761C384.957 275.572 389.662 277.33 392.321 278.614C395.048 279.898 397.434 280.979 397.638 280.979C397.843 280.979 397.979 257.932 397.979 178.582L395.798 178.987C394.57 179.258 352.028 185.341 209.128 205.617L208.787 376.618L207.219 382.025C206.401 384.999 204.424 390.001 202.924 393.178C201.424 396.354 198.833 400.748 197.197 402.978C195.629 405.209 192.152 409.061 189.629 411.494C187.039 413.928 183.084 417.104 180.834 418.524C178.585 419.943 174.426 422.173 171.631 423.458C168.835 424.742 163.586 426.499 160.04 427.378C155.268 428.594 151.655 429 146.269 429C140.61 429 137.269 428.594 131.951 427.243C128.065 426.296 122.816 424.539 120.157 423.323C117.566 422.106 113.543 419.943 111.294 418.456C109.044 417.037 105.226 413.995 102.771 411.697C100.317 409.399 96.7718 405.344 94.8629 402.573C92.9539 399.801 90.5677 396.016 89.6814 394.192C88.7269 392.299 87.2952 388.92 86.477 386.554C85.7271 384.256 84.5681 379.727 84.0227 376.416C83.4772 373.171 83 368.71 83 366.48C83 364.249 83.4772 359.789 84.0227 356.477C84.5681 353.232 85.7953 348.366 86.7498 345.662C87.7042 343.026 89.6132 338.836 90.9767 336.403C92.2721 333.969 94.7265 330.32 96.2946 328.292C97.8627 326.264 100.999 322.885 103.18 320.857C105.43 318.829 109.044 315.923 111.294 314.504C113.543 313.017 117.702 310.786 120.498 309.502C123.293 308.218 127.929 306.528 130.724 305.785C134.815 304.703 137.883 304.433 146.064 304.433C154.382 304.433 157.313 304.703 161.745 305.92C164.745 306.731 169.449 308.421 172.176 309.705C174.835 310.989 177.221 312.071 177.426 312.071C177.63 312.071 177.835 270.03 178.107 125.051L180.221 121.739C181.38 119.779 183.493 117.684 185.334 116.602C188.198 114.777 192.834 114.102 295.713 99.5699Z" fill="black"/>
<defs>
<filter id="filter0_i_3321_7" x="0" y="-31" width="512" height="543" filterUnits="userSpaceOnUse" color-interpolation-filters="sRGB">
<feFlood flood-opacity="0" result="BackgroundImageFix"/>
<feBlend mode="normal" in="SourceGraphic" in2="BackgroundImageFix" result="shape"/>
<feColorMatrix in="SourceAlpha" type="matrix" values="0 0 0 0 0 0 0 0 0 0 0 0 0 0 0 0 0 0 127 0" result="hardAlpha"/>
<feOffset dy="-31"/>
<feGaussianBlur stdDeviation="20"/>
<feComposite in2="hardAlpha" operator="arithmetic" k2="-1" k3="1"/>
<feColorMatrix type="matrix" values="0 0 0 0 0 0 0 0 0 0 0 0 0 0 0 0 0 0 0.5 0"/>
<feBlend mode="normal" in2="shape" result="effect1_innerShadow_3321_7"/>
</filter>
</defs>
</svg>
