<svg width="512" height="512" viewBox="0 0 512 512" fill="none" xmlns="http://www.w3.org/2000/svg">
<rect x="20" y="20" width="472" height="472" rx="48" stroke="black" stroke-width="40"/>
<path d="M360.612 176.61C319.755 126.704 293.103 94.794 291.682 93.9609C290.194 93.1277 288.435 92.7944 286.947 93.1277C285.662 93.3777 283.7 94.2108 282.618 94.9607C281.536 95.7105 279.98 97.7101 279.236 99.2931C277.883 102.126 277.815 103.709 277.477 140.534C277.206 172.694 277.004 179.193 276.124 180.776C275.583 181.776 274.095 183.192 272.877 183.858C270.983 184.942 259.145 185.108 181.084 185.108C97.1376 185.108 91.3202 185.191 88.9527 186.525C87.5998 187.358 85.7057 189.274 83 193.69V266.008C83 336.993 83 338.326 84.3529 340.575C85.097 341.742 86.5851 343.574 89.4938 346.324L180.949 346.74C260.701 347.074 272.607 347.324 273.96 348.407C274.771 349.073 275.921 350.906 276.462 352.323C277.342 354.655 277.477 360.987 277.477 391.481C277.477 426.057 277.545 428.14 278.83 431.472C279.574 433.472 281.13 435.805 282.347 436.721C283.565 437.638 285.459 438.638 286.609 438.888C287.691 439.137 289.856 438.971 291.344 438.388C293.644 437.555 304.602 424.391 359.868 356.405C396.125 311.915 426.497 274.089 427.377 272.34C428.391 270.423 429 268.007 429 265.924C429 264.091 428.594 261.592 428.053 260.259C427.512 259.009 397.207 221.434 360.612 176.61Z" fill="black"/>
</svg>
