<svg width="512" height="512" viewBox="0 0 512 512" fill="none" xmlns="http://www.w3.org/2000/svg">
<rect x="20" y="20" width="472" height="472" rx="48" stroke="black" stroke-width="40"/>
<path d="M156.726 119.273C157.609 117.222 159.57 113.389 161.097 110.757C163.215 107.089 165.151 104.653 169.364 100.361C172.977 96.6857 176.185 93.9313 178.693 92.3595C180.791 91.0364 184.638 88.9013 187.239 87.6011C189.836 86.3054 194.176 84.6382 196.881 83.8944C199.585 83.1506 204.274 82.267 207.308 81.933C210.343 81.5901 215.064 81.4853 217.796 81.6938C220.528 81.9022 224.44 82.4015 226.488 82.8048C228.535 83.2081 232.564 84.3928 235.431 85.4469C238.302 86.4965 242.675 88.5405 245.147 89.99C247.618 91.4396 251.061 93.8071 255.961 97.8898L259.237 95.2645C261.042 93.8253 264.536 91.4628 267.004 90.02C269.471 88.5772 273.838 86.5453 276.707 85.5035C279.575 84.4618 283.948 83.2352 286.417 82.7713C288.89 82.312 293.161 81.8283 295.916 81.6942C298.665 81.5645 303.712 81.8651 307.13 82.3681C310.548 82.8712 315.725 84.1109 318.627 85.1294C321.534 86.1435 326.454 88.4419 329.563 90.2349C334.55 93.1163 336.021 94.3019 342.121 100.402C347.682 105.972 349.496 108.141 351.458 111.561C352.792 113.899 354.617 117.493 355.505 119.545C356.389 121.602 357.827 125.778 358.695 128.832C360.072 133.666 360.291 137.849 360.417 161.206C360.553 186.111 360.454 188.136 359.018 189.589C358.143 190.482 356.556 191.294 355.346 191.471C354.18 191.647 352.64 191.467 351.932 191.07C351.224 190.673 340.766 183.183 328.695 174.427C307.346 158.935 306.722 158.436 305.932 156.205C305.49 154.946 305.362 153.068 305.65 152.031C306.137 150.323 306.786 149.737 319.634 140.873L319.338 139.083C319.176 138.095 318.359 135.972 317.525 134.355C316.686 132.743 314.742 130.178 313.205 128.649C311.44 126.894 309.111 125.284 306.88 124.28C304.797 123.334 301.632 122.622 299.135 122.534C296.648 122.446 293.316 122.962 290.999 123.791C288.837 124.562 285.942 126.067 284.569 127.137C282.929 128.412 281.325 130.328 279.918 132.706C278.728 134.698 277.45 137.811 277.061 139.626C276.677 141.446 276.385 159.346 276.454 215.894L281.994 215.968C285.376 216.008 289.048 216.596 291.43 217.485C294.359 218.575 296.051 219.645 298.253 221.802C299.861 223.384 301.845 226.007 302.661 227.641C303.54 229.391 304.248 232.463 304.394 235.124C304.535 237.7 304.144 241.051 303.479 242.919C302.841 244.724 301.62 247.21 300.768 248.446C299.484 250.309 299.396 250.86 300.229 251.685C300.786 252.233 301.901 254.121 302.713 255.884C303.526 257.647 304.309 260.928 304.454 263.18C304.604 265.427 304.217 268.764 303.606 270.596C302.99 272.424 301.645 275.079 300.615 276.492C299.549 277.959 297.5 279.928 295.851 281.06C294.259 282.161 291.898 283.4 290.604 283.812C289.305 284.228 286.476 284.696 284.309 284.849C282.147 285.006 280.269 285.235 280.149 285.355C280.025 285.479 280.786 286.019 281.837 286.563C282.888 287.107 285.873 289.434 288.47 291.738C291.985 294.862 293.964 297.09 296.22 300.475C297.888 302.978 299.962 306.714 300.837 308.78C301.712 310.846 302.878 314.278 303.419 316.41C303.97 318.543 304.448 323.518 304.485 327.465C304.526 331.585 304.012 336.751 303.282 339.593C302.578 342.311 301.013 346.55 299.807 349.004C298.591 351.459 296.22 355.282 294.527 357.5C292.791 359.79 289.871 362.851 287.809 364.557C285.8 366.219 282.488 368.506 276.748 371.715L276.779 410.406C276.812 447.632 276.752 449.163 275.148 450.767C273.89 452.025 272.832 452.432 270.812 452.43C268.676 452.427 267.763 452.047 264.363 448.63L264.171 324.949L261.841 322.601C259.764 320.515 259.168 320.256 256.391 320.253C253.659 320.249 253.978 320.462 249.81 324.63L249.81 445.771L246.887 450.501C245.563 451.834 244.367 452.433 242.863 452.529C241.372 452.621 241.007 451.918 237.203 448.923L237.203 371.708L232.461 369.581C230.426 368.434 227.104 366.134 225.094 364.471C222.916 362.666 220.122 359.703 218.178 357.129C216.382 354.754 213.942 350.777 212.751 348.288C211.559 345.799 210.081 341.868 209.473 339.545C208.86 337.226 208.359 331.916 208.353 327.751C208.347 323.586 208.79 318.43 209.339 316.295C209.883 314.155 211.106 310.579 212.046 308.347C212.991 306.119 215.064 302.388 216.654 300.068C218.652 297.133 220.976 294.56 224.242 291.659C226.829 289.358 229.803 287.034 230.852 286.493C231.902 285.952 232.657 285.41 232.537 285.29C232.417 285.169 230.539 284.935 228.376 284.772C226.209 284.613 223.378 284.138 222.078 283.718C220.778 283.298 218.414 282.053 216.823 280.952C214.993 279.69 213.17 277.894 211.878 276.095C210.75 274.522 209.393 271.904 208.853 270.27C208.316 268.632 207.996 265.414 208.144 263.119C208.297 260.827 209.075 257.509 209.887 255.752C210.695 253.991 211.809 252.111 212.365 251.564C213.195 250.742 213.106 250.19 211.817 248.324C210.961 247.086 209.734 244.597 209.091 242.789C208.421 240.919 208.02 237.568 208.155 234.992C208.293 232.331 208.992 229.262 209.866 227.514C210.678 225.882 212.655 223.264 214.259 221.687C216.454 219.536 218.144 218.47 221.07 217.389C223.45 216.506 227.12 215.928 236.041 215.838L235.987 179.355C235.955 159.291 235.61 141.385 235.225 139.569C234.835 137.757 233.545 134.636 232.35 132.641C230.936 130.258 229.327 128.338 227.683 127.059C226.307 125.985 223.408 124.472 221.244 123.695C218.925 122.86 215.591 122.335 213.104 122.416C210.608 122.497 207.445 123.2 205.364 124.141C203.136 125.139 200.811 126.742 199.051 128.493C197.518 130.017 195.581 132.577 194.747 134.187C193.917 135.801 193.106 137.922 192.656 140.698L199.395 145.358C205.528 149.598 206.178 150.186 206.67 151.895C206.961 152.933 206.839 154.81 206.4 156.069C205.615 158.297 204.993 158.795 183.687 174.228C171.64 182.951 161.202 190.412 160.495 190.807C159.788 191.202 158.249 191.378 157.083 191.199C155.868 191.015 154.282 190.202 153.405 189.307C151.97 187.845 151.865 185.803 151.924 160.907C151.981 137.501 152.189 133.381 153.557 128.546C154.421 125.499 155.848 121.327 156.726 119.273Z" fill="black"/>
<path d="M249.28 447.342L249.464 385.94L249.649 324.538L252.002 322.185C254.088 320.099 254.705 319.832 257.502 319.825C260.307 319.818 260.909 320.077 265.349 324.535L265.088 447.303L249.28 447.342Z" fill="black"/>
<path d="M171.223 118.162C172.28 116.244 173.905 113.614 174.839 112.313C175.763 111.011 177.932 108.51 179.645 106.753C181.362 105 184.557 102.317 186.755 100.791C188.948 99.2708 192.541 97.1847 194.737 96.1542C196.925 95.1236 200.611 93.8061 202.918 93.2204C205.222 92.6392 209.103 91.9866 211.536 91.7692C213.974 91.5563 218.335 91.6354 221.225 91.9474C224.119 92.2639 228.46 93.1703 230.868 93.9646C233.28 94.7633 237.116 96.3723 239.392 97.5491C242.351 99.0748 245.201 101.212 249.382 105.05C255.159 110.35 255.267 110.413 258.019 110.406C260.779 110.399 260.883 110.332 266.691 105.007C270.887 101.153 273.747 99.0011 276.718 97.4561C279.001 96.268 282.844 94.6399 285.261 93.8291C287.672 93.0228 291.878 92.0996 294.599 91.7827C297.32 91.4656 301.268 91.3119 303.363 91.4326C305.462 91.5578 309.336 92.1236 311.969 92.6925C314.603 93.2704 318.955 94.7657 321.641 96.0269C324.326 97.2881 328.497 99.7819 330.898 101.57C333.465 103.479 336.636 106.425 338.573 108.695C340.388 110.826 342.928 114.439 344.222 116.724C345.511 119.014 347.197 122.773 347.964 125.091C348.736 127.404 349.702 131.381 350.114 133.929C350.526 136.477 350.831 145.76 350.719 170.556L338.136 161.389C331.211 156.339 325.57 151.996 325.584 151.731C325.608 151.466 327.031 150.347 328.76 149.237C330.485 148.131 332.553 146.566 333.359 145.759C334.364 144.745 334.881 143.323 335.016 141.178C335.124 139.465 334.831 136.332 334.359 134.211C333.888 132.09 332.499 128.339 331.269 125.865C329.555 122.43 328.108 120.46 325.099 117.46C322.937 115.307 319.639 112.649 317.776 111.552C315.909 110.46 312.342 108.985 309.844 108.272C307.351 107.563 302.964 106.999 300.1 107.028C296.539 107.055 293.166 107.684 289.408 109.02C285.525 110.401 282.635 111.927 279.536 114.246C275.815 117.025 274.706 118.179 272.238 121.822C270.64 124.191 268.585 128.22 267.67 130.776C266.135 135.073 265.992 138.41 265.619 214.361L249.91 214.4L249.914 174.93C249.915 140.181 249.739 134.939 248.445 131.102C247.641 128.704 245.861 125.03 244.5 122.939C243.138 120.847 241.215 118.329 240.229 117.343C239.242 116.356 236.725 114.434 234.633 113.072C232.546 111.706 228.567 109.837 225.795 108.904C222.458 107.784 218.93 107.221 215.342 107.248C212.361 107.269 208.07 107.864 205.798 108.567C203.53 109.274 200.141 110.753 198.268 111.854C196.395 112.956 193.237 115.477 191.245 117.451C189.257 119.43 186.732 122.583 185.635 124.461C184.533 126.334 183.077 129.512 182.389 131.519C181.705 133.521 181.08 137.25 180.997 139.799C180.866 143.671 181.102 144.7 182.402 146.018C183.263 146.888 185.372 148.493 187.092 149.59C188.811 150.687 190.233 151.803 190.255 152.068C190.268 152.333 184.597 156.704 165.026 171.019L165.03 155.022C165.038 146.223 165.39 136.938 165.814 134.388C166.239 131.838 167.197 127.928 167.94 125.696C168.687 123.469 170.161 120.075 171.223 118.162Z" fill="black"/>
<path d="M221.826 236.653C221.542 235.125 221.763 233.128 222.355 231.917C222.92 230.761 223.584 229.612 223.827 229.36C224.075 229.112 225.07 228.593 226.047 228.217C227.019 227.837 241.384 227.482 257.97 227.418C281.794 227.336 288.538 227.553 290.095 228.48C291.409 229.259 292.405 230.345 293.082 231.737C293.672 232.949 293.883 234.945 293.587 236.47C293.172 238.606 292.644 239.457 290.811 240.905C288.608 242.651 287.722 242.702 257.693 242.773C227.665 242.852 226.779 242.805 224.585 241.07C222.759 239.632 222.23 238.788 221.826 236.653Z" fill="black"/>
<path d="M221.698 264.776C221.534 263.809 221.61 262.209 221.869 261.223C222.173 260.067 223.138 258.779 224.575 257.602C226.765 255.816 227.421 255.778 257.634 255.73C280.577 255.695 288.876 255.954 290.084 256.746C290.977 257.333 292.134 258.499 292.662 259.325C293.186 260.155 293.677 261.809 293.746 262.996C293.819 264.187 293.32 266.022 292.647 267.081C291.966 268.139 290.645 269.45 289.709 270.001C288.516 270.692 278.624 271.014 257.191 271.053C234.06 271.098 226.093 270.848 225.21 270.045C224.564 269.462 223.577 268.431 223.017 267.753C222.456 267.085 221.862 265.742 221.698 264.776Z" fill="black"/>
<path d="M224.636 312.65C225.495 310.787 226.836 308.27 227.617 307.068C228.393 305.861 230.923 303.117 233.239 300.971C236.47 297.982 238.699 296.479 242.791 294.522C247.207 292.412 248.26 291.681 248.893 290.258C249.309 289.313 249.678 287.536 249.763 284.088L265.495 284.026L265.409 285.906C265.361 286.94 265.663 288.657 266.074 289.726C266.744 291.468 267.345 291.925 271.957 294.157C274.782 295.531 278.741 298.029 280.751 299.715C283.012 301.607 285.478 304.289 287.194 306.726C288.932 309.186 290.601 312.576 291.632 315.743C292.542 318.537 293.404 322.716 293.555 325.031C293.707 327.346 293.395 331.416 292.863 334.065C292.33 336.724 291.224 340.35 290.401 342.133C289.579 343.915 287.66 347.063 286.135 349.135C284.606 351.202 282.109 353.879 277.806 357.257L277.853 340.447C277.895 327.21 277.622 322.872 276.582 320.029C275.573 317.271 274.52 315.678 272.13 313.269C270.354 311.484 267.702 309.481 266 308.636C263.867 307.585 261.409 307.155 257.529 307.16C253.383 307.17 251.265 307.575 248.771 308.841C246.34 310.078 244.659 311.454 242.319 314.108C240.173 316.541 238.824 318.689 238.144 320.75C237.519 322.64 237.114 330.167 237.001 357.368L234.241 355.194C232.536 353.85 230.214 351.212 228.148 348.281C225.98 345.202 224.266 341.893 223.244 338.834C222.383 336.242 221.557 332.224 221.405 329.909C221.254 327.594 221.565 323.525 222.102 320.871C222.63 318.217 223.773 314.518 224.636 312.65Z" fill="black"/>
</svg>
