<svg width="512" height="512" viewBox="0 0 512 512" fill="none" xmlns="http://www.w3.org/2000/svg">
<path d="M218.187 96.7345C223.487 95.5754 229.608 94.3335 231.848 93.9196C234.087 93.5056 241.179 93.0916 247.524 93.0088C255.81 92.926 261.932 93.4228 269.173 94.5819C274.697 95.4926 282.46 97.1485 286.342 98.2248C290.224 99.3839 296.121 101.288 299.406 102.53C302.69 103.772 308.737 106.421 312.842 108.408C316.948 110.395 323.816 114.369 328.071 117.184C332.326 119.999 339.194 125.132 343.374 128.61C347.48 132.087 354.124 138.462 358.005 142.767C361.887 147.073 367.262 153.53 369.875 157.173C372.487 160.733 376.22 166.363 378.161 169.509C380.102 172.656 383.685 179.362 390.478 193.188L392.344 191.118C393.389 189.959 396.226 188.055 398.689 186.813C401.75 185.24 404.885 184.412 408.394 184.164C411.977 183.915 415.038 184.247 418.098 185.24C420.562 185.985 424.219 187.807 426.235 189.214C428.25 190.704 430.938 193.188 432.132 194.761C433.401 196.334 435.417 200.06 436.686 203.04C438.701 207.842 439 209.25 439 215.873C439 222.497 438.701 223.904 436.686 228.706C435.342 231.852 426.683 245.265 416.307 260.581C406.304 275.153 396.823 288.483 395.106 290.304C393.389 292.043 390.478 294.278 388.612 295.354C386.745 296.431 383.237 297.755 380.773 298.252C377.862 298.997 374.727 299.08 371.816 298.666C369.277 298.335 365.396 296.928 362.858 295.437C360.394 294.03 347.629 283.681 334.491 272.504C321.353 261.327 309.483 250.729 308.214 249.073C306.871 247.417 304.93 244.354 303.959 242.201C302.989 239.966 301.794 235.992 301.346 233.26C300.824 229.865 300.749 226.719 301.272 223.325C301.645 220.593 302.989 216.122 304.183 213.39C305.452 210.409 307.841 206.932 309.931 204.779C311.947 202.792 315.231 200.308 317.321 199.315C319.337 198.321 321.651 197.245 322.323 196.914C323.517 196.5 323.443 196.086 321.651 193.354C320.457 191.698 316.874 187.807 313.589 184.66C310.304 181.432 305.452 177.292 302.765 175.388C300.077 173.401 295.375 170.42 292.314 168.681C289.253 166.943 283.356 164.376 279.25 162.886C275.145 161.313 268.277 159.491 263.947 158.664C257.901 157.587 253.571 157.339 244.912 157.753C235.879 158.084 232.072 158.664 225.129 160.651C220.427 161.975 213.186 164.707 209.08 166.694C204.974 168.764 198.554 172.573 194.896 175.222C190.791 178.203 184.893 183.75 179.892 189.297C174.517 195.175 170.038 201.136 167.202 205.938C164.813 209.995 161.603 216.37 160.11 220.013C158.542 223.656 156.601 229.037 155.706 232.018C154.81 234.999 153.391 241.125 152.57 245.679C151.525 251.64 151.077 257.27 151.077 265.963C151.077 274.656 151.525 280.286 152.57 286.247C153.391 290.801 154.81 296.928 155.706 299.908C156.601 302.889 158.542 308.27 160.11 311.913C161.603 315.556 164.813 321.931 167.202 325.988C169.964 330.79 174.517 336.751 179.892 342.629C184.52 347.762 190.791 353.723 194.15 356.124C197.435 358.525 202.809 361.92 206.094 363.659C209.378 365.397 214.604 367.798 217.665 368.875C220.725 370.034 225.951 371.607 229.235 372.352C232.52 373.097 239.387 374.008 244.538 374.422C251.033 374.918 255.213 375.664 258.348 376.988C261.782 378.396 264.022 380.134 267.754 384.274C271.412 388.331 273.129 391.063 274.398 394.706C275.742 398.514 276.19 401.329 276.19 406.711C276.19 412.092 275.742 414.907 274.398 418.716C273.129 422.359 271.412 425.091 267.754 429.148C263.798 433.453 261.782 435.026 257.602 436.765C253.198 438.669 251.182 439 244.912 439C240.806 439 235.282 438.586 232.594 438.089C229.907 437.593 223.487 436.351 218.187 435.192C212.962 434.115 204.601 431.714 199.599 429.81C194.523 427.989 186.76 424.511 182.206 422.11C177.652 419.709 170.635 415.487 166.53 412.589C162.424 409.691 156.601 405.303 153.541 402.737C150.555 400.087 145.18 395.037 141.671 391.394C138.163 387.751 132.788 381.376 129.728 377.319C126.592 373.263 121.74 365.977 118.903 361.175C115.992 356.373 111.588 347.597 108.975 341.718C106.362 335.84 102.928 326.485 101.211 321.02C99.5691 315.556 97.3297 306.614 96.3592 301.15C95.3888 295.686 94.1944 287.572 93.8211 283.101C93.3732 278.713 93 270.848 93 265.715C93 260.664 93.3732 253.047 93.7465 248.99C94.1944 244.934 95.1648 237.482 96.0606 232.432C96.8818 227.382 99.0466 218.274 100.913 212.148C102.704 206.021 106.288 196.169 108.9 190.208C111.588 184.247 116.067 175.553 118.903 170.751C121.74 165.949 126.667 158.664 129.728 154.607C132.863 150.467 137.566 144.92 140.178 142.105C142.717 139.29 147.27 134.902 150.107 132.17C152.943 129.52 158.841 124.801 163.17 121.655C167.5 118.509 175.338 113.541 180.713 110.644C186.088 107.829 194.523 103.937 199.599 102.116C204.601 100.212 212.962 97.8108 218.187 96.7345Z" fill="black"/>
<rect x="20" y="20" width="472" height="472" rx="48" stroke="black" stroke-width="40"/>
</svg>
