<svg width="512" height="512" viewBox="0 0 512 512" fill="none" xmlns="http://www.w3.org/2000/svg">
<rect x="20" y="20" width="472" height="472" rx="48" stroke="black" stroke-width="40"/>
<path d="M217.17 84.9019C213.906 85.9157 209.358 87.7202 207.056 88.9098C204.754 90.0993 201.064 92.4378 198.86 94.1072C196.656 95.7834 193.238 99.0478 191.264 101.373C189.296 103.698 186.471 107.956 184.986 110.835C183.507 113.714 181.665 118.58 180.905 121.649C180.138 124.717 179.51 128.063 179.51 129.083C179.503 130.104 180.207 131.74 181.072 132.713C182.558 134.382 183.228 134.531 193.803 135.464C199.941 136.011 205.354 136.586 205.835 136.741C206.47 136.951 206.254 137.897 205.047 140.235C204.126 141.999 202.843 145.115 202.194 147.163C201.51 149.285 200.848 154.205 200.646 158.653C200.387 164.31 200.597 167.804 201.406 171.494C202.013 174.285 203.101 177.327 203.812 178.253C204.524 179.179 205.856 180.213 206.777 180.544C208.109 181.017 216.264 178.618 246.467 168.879C274.195 159.93 285.802 155.875 289.366 153.895C292.052 152.394 294.326 151.184 294.424 151.198C294.521 151.205 294.605 177.144 294.612 208.836C294.626 264.669 294.584 266.589 293.224 270.847C292.457 273.26 290.908 276.761 289.792 278.619C288.669 280.478 286.681 283.215 285.363 284.702C284.051 286.189 281.114 288.615 278.847 290.089C276.573 291.562 272.674 293.515 270.184 294.421C266.452 295.786 264.352 296.084 258.326 296.111C252.452 296.131 250.102 295.834 246.467 294.597C243.977 293.752 240.21 291.961 238.097 290.616C235.983 289.271 232.844 286.743 231.121 285.006C229.398 283.263 226.957 279.897 225.701 277.524C224.446 275.152 222.953 271.536 222.395 269.495C221.677 266.893 221.37 262.135 221.363 253.612C221.363 246.921 221.028 238.865 220.616 235.702C220.212 232.539 218.949 227.219 217.819 223.874C216.682 220.528 214.122 215.209 212.12 212.046C210.118 208.883 206.435 204.213 203.931 201.651C201.434 199.097 196.558 195.21 193.105 193.014C189.652 190.817 184.469 188.148 181.596 187.073C178.715 186.005 173.853 184.613 170.784 183.971C167.128 183.214 162.197 182.828 156.484 182.849C149.564 182.869 146.397 183.22 141.138 184.538C137.497 185.451 132.314 187.168 129.628 188.357C126.943 189.54 122.709 191.824 120.211 193.426C117.714 195.035 113.166 198.914 110.097 202.057C107.028 205.193 103.331 209.714 101.887 212.1C100.443 214.486 98.3225 218.798 97.1785 221.677C96.0346 224.557 94.6255 229.578 94.0466 232.829C93.1397 237.905 92.9933 251.483 93.0002 328.465C93.0072 408.217 93.1258 418.47 94.0954 420.721C94.6953 422.113 95.7137 423.83 96.3624 424.526C97.0111 425.222 98.7201 426.52 100.157 427.398C102.089 428.581 103.77 429 106.609 429C109.448 429 111.129 428.581 113.062 427.398C114.499 426.52 116.208 425.222 116.856 424.526C117.505 423.83 118.523 422.113 119.123 420.721C120.093 418.47 120.212 408.332 120.205 329.478C120.205 268.38 120.442 239.507 120.965 236.715C121.383 234.485 122.611 230.835 123.692 228.605C124.773 226.375 127.18 222.901 129.042 220.887C130.898 218.866 134.065 216.21 136.081 214.973C138.097 213.736 142.177 211.938 145.149 210.978C149.327 209.627 151.978 209.228 156.833 209.214C160.683 209.201 164.729 209.64 167.296 210.343C169.598 210.972 173.358 212.452 175.659 213.628C177.954 214.804 181.561 217.44 183.681 219.488C185.795 221.542 188.515 225.036 189.722 227.26C190.936 229.49 192.296 232.525 192.756 234.012C193.238 235.566 193.824 244.197 194.13 254.288C194.626 270.624 194.793 272.286 196.551 277.943C197.59 281.289 199.746 286.459 201.35 289.433C202.947 292.407 206.01 296.969 208.151 299.571C210.293 302.173 213.752 305.695 215.831 307.391C217.91 309.087 221.181 311.507 223.1 312.764C225.018 314.021 228.785 316.029 231.47 317.225C234.156 318.421 238.864 320.057 241.933 320.861C245.379 321.773 250.576 322.47 255.535 322.693C261.22 322.943 265.182 322.747 269.138 322.017C272.207 321.442 277.383 320.043 280.647 318.908C283.912 317.766 289.401 315.042 292.854 312.859C296.774 310.378 301.225 306.729 304.712 303.133C307.991 299.76 311.667 295.05 313.62 291.718C315.448 288.602 317.882 283.242 319.026 279.802C320.17 276.362 321.419 270.887 321.795 267.636C322.2 264.21 322.493 238.648 322.493 206.808L322.5 151.894C329.364 155.557 347.095 161.735 368.538 168.737C389.067 175.441 406.484 180.943 407.252 180.963C408.019 180.983 409.428 180.436 410.391 179.74C411.632 178.834 412.539 177.029 413.53 173.461C414.569 169.737 414.911 166.459 414.869 160.68C414.834 155.463 414.409 151.461 413.578 148.515C412.895 146.095 411.66 142.567 410.837 140.675L409.344 137.228C415.287 136.572 421.098 136.018 426.085 135.565C434.812 134.781 435.23 134.673 437.204 132.679C439.137 130.719 439.227 130.388 438.774 126.718C438.509 124.582 437.49 120.473 436.507 117.594C435.53 114.714 433.417 110.227 431.819 107.625C430.222 105.022 427.02 100.961 424.711 98.595C422.395 96.2294 418.461 92.9853 415.971 91.3834C413.481 89.7816 410.028 87.8757 408.298 87.1525C406.568 86.4293 402.648 85.1655 399.579 84.3409C394.745 83.05 392.785 82.8945 384.93 83.1716C379.943 83.3541 364.876 84.5639 351.448 85.8684L327.034 88.2407C317.338 83.6177 315.859 83.2595 310.683 83.05C306.4 82.881 303.722 83.1311 301.225 83.9421C299.306 84.5639 296.481 85.767 294.947 86.6186L292.157 88.1731C258.102 85.2195 246.091 84.0435 243.503 83.6583C240.915 83.273 235.265 82.9756 230.947 83.0027C224.404 83.0432 222.116 83.3609 217.17 84.9019Z" fill="black"/>
</svg>
