<svg width="512" height="512" viewBox="0 0 512 512" fill="none" xmlns="http://www.w3.org/2000/svg">
<rect x="20" y="20" width="472" height="472" rx="48" stroke="black" stroke-width="40"/>
<path d="M303.813 86.7345C298.513 85.5754 292.392 84.3335 290.152 83.9196C287.913 83.5056 280.821 83.0916 274.476 83.0088C266.19 82.926 260.068 83.4228 252.827 84.5819C247.303 85.4926 239.54 87.1485 235.658 88.2248C231.776 89.3839 225.879 91.2881 222.594 92.53C219.31 93.7719 213.263 96.4213 209.158 98.4083C205.052 100.395 198.184 104.369 193.929 107.184C189.674 109.999 182.806 115.132 178.626 118.61C174.52 122.087 167.876 128.462 163.995 132.767C160.113 137.073 154.738 143.53 152.125 147.173C149.513 150.733 145.78 156.363 143.839 159.509C141.898 162.656 138.315 169.362 131.522 183.188L129.656 181.118C128.611 179.959 125.774 178.055 123.311 176.813C120.25 175.24 117.115 174.412 113.606 174.164C110.023 173.915 106.962 174.247 103.902 175.24C101.438 175.985 97.7806 177.807 95.765 179.214C93.7495 180.704 91.0622 183.188 89.8678 184.761C88.5987 186.334 86.5832 190.06 85.3141 193.04C83.2986 197.842 83 199.25 83 205.873C83 212.497 83.2986 213.904 85.3141 218.706C86.6578 221.852 95.3171 235.265 105.693 250.581C115.696 265.153 125.177 278.483 126.894 280.304C128.611 282.043 131.522 284.278 133.388 285.354C135.255 286.431 138.763 287.755 141.227 288.252C144.138 288.997 147.273 289.08 150.184 288.666C152.723 288.335 156.604 286.928 159.142 285.437C161.606 284.03 174.371 273.681 187.509 262.504C200.647 251.327 212.517 240.729 213.786 239.073C215.129 237.417 217.07 234.354 218.041 232.201C219.011 229.966 220.206 225.992 220.654 223.26C221.176 219.865 221.251 216.719 220.728 213.325C220.355 210.593 219.011 206.122 217.817 203.39C216.548 200.409 214.159 196.932 212.069 194.779C210.053 192.792 206.769 190.308 204.679 189.315C202.663 188.321 200.349 187.245 199.677 186.914C198.483 186.5 198.557 186.086 200.349 183.354C201.543 181.698 205.126 177.807 208.411 174.66C211.696 171.432 216.548 167.292 219.235 165.388C221.923 163.401 226.625 160.42 229.686 158.681C232.747 156.943 238.644 154.376 242.75 152.886C246.855 151.313 253.723 149.491 258.053 148.664C264.099 147.587 268.429 147.339 277.088 147.753C286.121 148.084 289.928 148.664 296.871 150.651C301.573 151.975 308.814 154.707 312.92 156.694C317.026 158.764 323.446 162.573 327.104 165.222C331.209 168.203 337.107 173.75 342.108 179.297C347.483 185.175 351.962 191.136 354.798 195.938C357.187 199.995 360.397 206.37 361.89 210.013C363.458 213.656 365.399 219.037 366.294 222.018C367.19 224.999 368.609 231.125 369.43 235.679C370.475 241.64 370.923 247.27 370.923 255.963C370.923 264.656 370.475 270.286 369.43 276.247C368.609 280.801 367.19 286.928 366.294 289.908C365.399 292.889 363.458 298.27 361.89 301.913C360.397 305.556 357.187 311.931 354.798 315.988C352.036 320.79 347.483 326.751 342.108 332.629C337.48 337.762 331.209 343.723 327.85 346.124C324.565 348.525 319.191 351.92 315.906 353.659C312.622 355.397 307.396 357.798 304.335 358.875C301.275 360.034 296.049 361.607 292.765 362.352C289.48 363.097 282.613 364.008 277.462 364.422C270.967 364.918 266.787 365.664 263.652 366.988C260.218 368.396 257.978 370.134 254.246 374.274C250.588 378.331 248.871 381.063 247.602 384.706C246.258 388.514 245.81 391.329 245.81 396.711C245.81 402.092 246.258 404.907 247.602 408.716C248.871 412.359 250.588 415.091 254.246 419.148C258.202 423.453 260.218 425.026 264.398 426.765C268.802 428.669 270.818 429 277.088 429C281.194 429 286.718 428.586 289.406 428.089C292.093 427.593 298.513 426.351 303.813 425.192C309.038 424.115 317.399 421.714 322.401 419.81C327.477 417.989 335.24 414.511 339.794 412.11C344.348 409.709 351.365 405.487 355.47 402.589C359.576 399.691 365.399 395.303 368.459 392.737C371.445 390.087 376.82 385.037 380.329 381.394C383.837 377.751 389.212 371.376 392.272 367.319C395.408 363.263 400.26 355.977 403.097 351.175C406.008 346.373 410.412 337.597 413.025 331.718C415.638 325.84 419.072 316.485 420.789 311.02C422.431 305.556 424.67 296.614 425.641 291.15C426.611 285.686 427.806 277.572 428.179 273.101C428.627 268.713 429 260.848 429 255.715C429 250.664 428.627 243.047 428.254 238.99C427.806 234.934 426.835 227.482 425.939 222.432C425.118 217.382 422.953 208.274 421.087 202.148C419.296 196.021 415.712 186.169 413.1 180.208C410.412 174.247 405.933 165.553 403.097 160.751C400.26 155.949 395.333 148.664 392.272 144.607C389.137 140.467 384.434 134.92 381.822 132.105C379.283 129.29 374.73 124.902 371.893 122.17C369.057 119.52 363.159 114.801 358.83 111.655C354.5 108.509 346.662 103.541 341.287 100.644C335.912 97.8288 327.477 93.9375 322.401 92.116C317.399 90.2118 309.038 87.8108 303.813 86.7345Z" fill="black"/>
</svg>
