<svg width="512" height="512" viewBox="0 0 512 512" fill="none" xmlns="http://www.w3.org/2000/svg">
<rect x="20" y="20" width="472" height="472" rx="48" stroke="black" stroke-width="40"/>
<path d="M151.388 176.61C192.245 126.704 218.897 94.794 220.318 93.9609C221.806 93.1277 223.565 92.7944 225.053 93.1277C226.338 93.3777 228.3 94.2108 229.382 94.9607C230.464 95.7105 232.02 97.7101 232.764 99.2931C234.117 102.126 234.185 103.709 234.523 140.534C234.794 172.694 234.996 179.193 235.876 180.776C236.417 181.776 237.905 183.192 239.123 183.858C241.017 184.942 252.855 185.108 330.916 185.108C414.862 185.108 420.68 185.191 423.047 186.525C424.4 187.358 426.294 189.274 429 193.69V266.008C429 336.993 429 338.326 427.647 340.575C426.903 341.742 425.415 343.574 422.506 346.324L331.051 346.74C251.299 347.074 239.393 347.324 238.04 348.407C237.229 349.073 236.079 350.906 235.538 352.323C234.658 354.655 234.523 360.987 234.523 391.481C234.523 426.057 234.455 428.14 233.17 431.472C232.426 433.472 230.87 435.805 229.653 436.721C228.435 437.638 226.541 438.638 225.391 438.888C224.309 439.137 222.144 438.971 220.656 438.388C218.356 437.555 207.398 424.391 152.132 356.405C115.875 311.915 85.5028 274.089 84.6235 272.34C83.6088 270.423 83 268.007 83 265.924C83 264.091 83.4059 261.592 83.947 260.259C84.4882 259.009 114.793 221.434 151.388 176.61Z" fill="black"/>
</svg>
